SplineFontDB: 3.0
FontName: Molengo-Regular
FullName: Molengo
FamilyName: Molengo
Weight: Book
Copyright: Copyright (c) 2007, Denis Moyogo Jacquerye <moyogo@gmail.com>, with Reserved Font Name Molengo
Version: 0.11; ttfautohint (v0.8) -G 32 -r 16 -x
ItalicAngle: 0
UnderlinePosition: -196
UnderlineWidth: 90
Ascent: 1638
Descent: 410
sfntRevision: 0x00001999
LayerCount: 2
Layer: 0 1 "Back"  1
Layer: 1 1 "Fore"  0
XUID: [1021 124 2063965451 9714682]
FSType: 0
OS2Version: 2
OS2_WeightWidthSlopeOnly: 0
OS2_UseTypoMetrics: 1
CreationTime: 1182169782
ModificationTime: 1335819380
PfmFamily: 17
TTFWeight: 400
TTFWidth: 5
LineGap: 0
VLineGap: 0
Panose: 2 0 0 0 0 0 0 0 0 0
OS2TypoAscent: 290
OS2TypoAOffset: 1
OS2TypoDescent: -112
OS2TypoDOffset: 1
OS2TypoLinegap: 0
OS2WinAscent: 0
OS2WinAOffset: 1
OS2WinDescent: 0
OS2WinDOffset: 1
HheadAscent: 0
HheadAOffset: 1
HheadDescent: 0
HheadDOffset: 1
OS2SubXSize: 1331
OS2SubYSize: 1229
OS2SubXOff: 0
OS2SubYOff: 154
OS2SupXSize: 1434
OS2SupYSize: 1331
OS2SupXOff: 0
OS2SupYOff: 977
OS2StrikeYSize: 102
OS2StrikeYPos: 512
OS2Vendor: 'PYRS'
OS2CodePages: 00000011.00000000
OS2UnicodeRanges: a000007f.00000002.00000000.00000000
Lookup: 5 0 0 "'ccmp' Glyph Composition/Decomposition in Latin lookup 0"  {"'ccmp' Glyph Composition/Decomposition in Latin lookup 0 subtable"  } ['ccmp' ('DFLT' <'dflt' > 'latn' <'dflt' > ) ]
Lookup: 1 0 0 "Single Substitution lookup 1"  {"Single Substitution lookup 1 subtable"  } []
Lookup: 260 0 0 "'mark' Mark Positioning in Latin lookup 0"  {"'mark' Mark Positioning in Latin lookup 0 anchor 0"  "'mark' Mark Positioning in Latin lookup 0 anchor 1"  "'mark' Mark Positioning in Latin lookup 0 anchor 2"  "'mark' Mark Positioning in Latin lookup 0 anchor 3"  "'mark' Mark Positioning in Latin lookup 0 anchor 4"  } ['mark' ('DFLT' <'dflt' > 'latn' <'dflt' > ) ]

StartChar: .notdef
Encoding: 65536 -1 0
Width: 886
Flags: W
LayerCount: 2
Fore
SplineSet
68 0 m 1,0,-1
 68 1365 l 1,1,-1
 750 1365 l 1,2,-1
 750 0 l 1,3,-1
 68 0 l 1,0,-1
136 68 m 1,4,-1
 682 68 l 1,5,-1
 682 1297 l 1,6,-1
 136 1297 l 1,7,-1
 136 68 l 1,4,-1
EndSplineSet
EndChar

StartChar: exclam
Encoding: 33 33 4
Width: 454
GlyphClass: 2
Flags: W
LayerCount: 2
Fore
SplineSet
107 1392 m 1,0,-1
 347 1392 l 1,1,-1
 283 460 l 1,2,-1
 191 460 l 1,3,-1
 107 1392 l 1,0,-1
109 103 m 256,4,5
 109 153 109 153 143.5 188.5 c 128,-1,6
 178 224 178 224 227 224 c 256,7,8
 276 224 276 224 310.5 188.5 c 128,-1,9
 345 153 345 153 345 103 c 256,10,11
 345 53 345 53 310.5 17.5 c 128,-1,12
 276 -18 276 -18 227 -18 c 256,13,14
 178 -18 178 -18 143.5 17.5 c 128,-1,15
 109 53 109 53 109 103 c 256,4,5
EndSplineSet
EndChar

StartChar: numbersign
Encoding: 35 35 6
Width: 1181
GlyphClass: 2
Flags: W
LayerCount: 2
Fore
SplineSet
524 1475 m 1,0,-1
 652 1475 l 1,1,-1
 554 1011 l 1,2,-1
 850 1011 l 1,3,-1
 948 1475 l 1,4,-1
 1076 1475 l 1,5,-1
 978 1010 l 1,6,-1
 1187 1010 l 1,7,-1
 1187 901 l 1,8,-1
 955 901 l 1,9,-1
 878 539 l 1,10,-1
 1087 539 l 1,11,-1
 1087 430 l 1,12,-1
 855 430 l 1,13,-1
 764 0 l 1,14,-1
 636 0 l 1,15,-1
 727 431 l 1,16,-1
 431 431 l 1,17,-1
 340 0 l 1,18,-1
 212 0 l 1,19,-1
 303 432 l 1,20,-1
 84 432 l 1,21,-1
 84 541 l 1,22,-1
 326 541 l 1,23,-1
 403 903 l 1,24,-1
 184 903 l 1,25,-1
 184 1012 l 1,26,-1
 426 1012 l 1,27,-1
 524 1475 l 1,0,-1
454 540 m 1,28,-1
 750 540 l 1,29,-1
 827 902 l 1,30,-1
 531 902 l 1,31,-1
 454 540 l 1,28,-1
EndSplineSet
EndChar

StartChar: dollar
Encoding: 36 36 7
Width: 966
GlyphClass: 2
Flags: W
LayerCount: 2
Fore
SplineSet
429 683 m 1,0,-1
 429 1040 l 1,1,2
 366 1024 366 1024 326.5 980 c 128,-1,3
 287 936 287 936 287 872 c 256,4,5
 287 808 287 808 324 763.5 c 128,-1,6
 361 719 361 719 429 683 c 1,0,-1
429 1174 m 1,7,-1
 429 1338 l 1,8,-1
 546 1338 l 1,9,-1
 546 1173 l 1,10,11
 695 1159 695 1159 783 1099 c 1,12,-1
 747 971 l 1,13,14
 659 1031 659 1031 546 1044 c 1,15,-1
 546 629 l 1,16,17
 547 628 547 628 566 620 c 128,-1,18
 585 612 585 612 602.5 604.5 c 128,-1,19
 620 597 620 597 652.5 581.5 c 128,-1,20
 685 566 685 566 702.5 555 c 128,-1,21
 720 544 720 544 746.5 526 c 128,-1,22
 773 508 773 508 788 492 c 128,-1,23
 803 476 803 476 821 454 c 128,-1,24
 839 432 839 432 848 409 c 0,25,26
 870 353 870 353 870 296 c 0,27,28
 870 175 870 175 781.5 86.5 c 128,-1,29
 693 -2 693 -2 546 -16 c 1,30,-1
 546 -180 l 1,31,-1
 429 -180 l 1,32,-1
 429 -16 l 1,33,34
 268 -6 268 -6 150 62 c 0,35,36
 125 76 125 76 96 91 c 1,37,-1
 154 211 l 1,38,39
 262 141 262 141 320.5 128.5 c 128,-1,40
 379 116 379 116 429 113 c 1,41,-1
 429 527 l 1,42,43
 297 586 297 586 260.5 616 c 128,-1,44
 224 646 224 646 199 672 c 128,-1,45
 174 698 174 698 160 726 c 0,46,47
 126 791 126 791 126 867 c 0,48,49
 126 989 126 989 209 1074 c 128,-1,50
 292 1159 292 1159 429 1174 c 1,7,-1
546 473 m 1,51,-1
 546 117 l 1,52,53
 625 131 625 131 667 176 c 128,-1,54
 709 221 709 221 709 281 c 0,55,56
 709 390 709 390 546 473 c 1,51,-1
EndSplineSet
EndChar

StartChar: percent
Encoding: 37 37 8
Width: 1566
GlyphClass: 2
Flags: W
LayerCount: 2
Fore
SplineSet
1117 1391 m 1,0,-1
 1245 1391 l 1,1,-1
 458 0 l 1,2,-1
 330 0 l 1,3,-1
 1117 1391 l 1,0,-1
263 1375 m 128,-1,5
 318 1392 318 1392 374.5 1392 c 128,-1,6
 431 1392 431 1392 486 1375 c 128,-1,7
 541 1358 541 1358 592.5 1322 c 128,-1,8
 644 1286 644 1286 676 1219.5 c 128,-1,9
 708 1153 708 1153 708 1065 c 256,10,11
 708 977 708 977 676 910.5 c 128,-1,12
 644 844 644 844 592 808 c 0,13,14
 492 739 492 739 375 739 c 0,15,16
 257 739 257 739 156 808 c 0,17,18
 105 844 105 844 73 910.5 c 128,-1,19
 41 977 41 977 41 1065 c 256,20,21
 41 1153 41 1153 73 1219.5 c 128,-1,22
 105 1286 105 1286 156.5 1322 c 128,-1,4
 208 1358 208 1358 263 1375 c 128,-1,5
375 846 m 0,23,24
 441 846 441 846 484 882 c 1,25,26
 565 947 565 947 565 1065 c 0,27,28
 565 1225 565 1225 438 1272 c 0,29,30
 407 1284 407 1284 375 1284 c 0,31,32
 308 1284 308 1284 265 1248 c 1,33,34
 184 1183 184 1183 184 1065 c 0,35,36
 184 904 184 904 312 858 c 0,37,38
 343 846 343 846 375 846 c 0,23,24
1041 618 m 128,-1,40
 1096 635 1096 635 1152.5 635 c 128,-1,41
 1209 635 1209 635 1264 618 c 128,-1,42
 1319 601 1319 601 1370.5 565 c 128,-1,43
 1422 529 1422 529 1454 462.5 c 128,-1,44
 1486 396 1486 396 1486 308 c 256,45,46
 1486 220 1486 220 1454 153.5 c 128,-1,47
 1422 87 1422 87 1370 52 c 1,48,49
 1270 -18 1270 -18 1153 -18 c 0,50,51
 1035 -18 1035 -18 934 52 c 0,52,53
 883 87 883 87 851 153.5 c 128,-1,54
 819 220 819 220 819 308 c 256,55,56
 819 396 819 396 851 462.5 c 128,-1,57
 883 529 883 529 934.5 565 c 128,-1,39
 986 601 986 601 1041 618 c 128,-1,40
1153 89 m 0,58,59
 1219 89 1219 89 1262 124 c 0,60,61
 1343 190 1343 190 1343 308 c 0,62,63
 1343 468 1343 468 1216 516 c 0,64,65
 1185 527 1185 527 1153 527 c 0,66,67
 1086 527 1086 527 1043 492 c 0,68,69
 962 426 962 426 962 308 c 0,70,71
 962 147 962 147 1090 100 c 0,72,73
 1121 89 1121 89 1153 89 c 0,58,59
EndSplineSet
EndChar

StartChar: ampersand
Encoding: 38 38 9
Width: 1466
GlyphClass: 2
Flags: W
LayerCount: 2
Fore
SplineSet
452 714 m 1,0,1
 354 667 354 667 295.5 574.5 c 128,-1,2
 237 482 237 482 237 370 c 128,-1,3
 237 258 237 258 324 184.5 c 128,-1,4
 411 111 411 111 521 111 c 128,-1,5
 631 111 631 111 729.5 150.5 c 128,-1,6
 828 190 828 190 876 255 c 1,7,-1
 452 714 l 1,0,1
372 828 m 1,8,9
 296 941 296 941 296 1082.5 c 128,-1,10
 296 1224 296 1224 391 1305 c 128,-1,11
 486 1386 486 1386 616 1386 c 0,12,13
 812 1386 812 1386 944 1296 c 1,14,-1
 904 1156 l 1,15,16
 878 1179 878 1179 793.5 1218 c 128,-1,17
 709 1257 709 1257 645.5 1257 c 128,-1,18
 582 1257 582 1257 544 1225 c 0,19,20
 480 1171 480 1171 480 1057 c 128,-1,21
 480 943 480 943 566 828 c 0,22,23
 711 635 711 635 972 374 c 1,24,25
 1030 462 1030 462 1084 627.5 c 128,-1,26
 1138 793 1138 793 1156 920 c 1,27,-1
 1262 852 l 1,28,29
 1249 729 1249 729 1183 554.5 c 128,-1,30
 1117 380 1117 380 1052 286 c 1,31,-1
 1319 0 l 1,32,-1
 1108 0 l 1,33,-1
 960 160 l 1,34,35
 930 136 930 136 904.5 111 c 128,-1,36
 879 86 879 86 843 63 c 128,-1,37
 807 40 807 40 767 22 c 0,38,39
 678 -18 678 -18 562.5 -18 c 128,-1,40
 447 -18 447 -18 366.5 5.5 c 128,-1,41
 286 29 286 29 220 74.5 c 128,-1,42
 154 120 154 120 115 197 c 128,-1,43
 76 274 76 274 76 374 c 128,-1,44
 76 474 76 474 120.5 565.5 c 128,-1,45
 165 657 165 657 227.5 717 c 128,-1,46
 290 777 290 777 372 828 c 1,8,9
EndSplineSet
EndChar

StartChar: quotesingle
Encoding: 39 39 10
Width: 264
GlyphClass: 2
Flags: W
LayerCount: 2
Fore
SplineSet
216 1428 m 1,0,-1
 168 980 l 1,1,-1
 64 980 l 1,2,-1
 64 1428 l 1,3,-1
 216 1428 l 1,0,-1
EndSplineSet
EndChar

StartChar: parenleft
Encoding: 40 40 11
Width: 634
GlyphClass: 2
Flags: W
LayerCount: 2
Fore
SplineSet
271 492 m 0,0,1
 271 107 271 107 454 -264 c 0,2,3
 508 -374 508 -374 581 -493 c 1,4,-1
 471 -493 l 1,5,6
 257 -186 257 -186 180 54 c 1,7,8
 110 276 110 276 110 492 c 0,9,10
 110 842 110 842 292 1188 c 0,11,12
 365 1326 365 1326 471 1477 c 1,13,-1
 581 1477 l 1,14,15
 349 1099 349 1099 293 764 c 0,16,17
 271 632 271 632 271 492 c 0,0,1
EndSplineSet
EndChar

StartChar: parenright
Encoding: 41 41 12
Width: 634
GlyphClass: 2
Flags: W
LayerCount: 2
Fore
SplineSet
363 492 m 0,0,1
 363 877 363 877 180 1248 c 0,2,3
 126 1358 126 1358 53 1477 c 1,4,-1
 163 1477 l 1,5,6
 375 1174 375 1174 454 927 c 1,7,8
 524 704 524 704 524 492 c 0,9,10
 524 138 524 138 342 -204 c 0,11,12
 269 -341 269 -341 163 -493 c 1,13,-1
 53 -493 l 1,14,15
 285 -115 285 -115 341 220 c 0,16,17
 363 352 363 352 363 492 c 0,0,1
EndSplineSet
EndChar

StartChar: asterisk
Encoding: 42 42 13
Width: 849
GlyphClass: 2
Flags: W
LayerCount: 2
Fore
SplineSet
454 953 m 1,0,-1
 603 704 l 1,1,-1
 477 645 l 1,2,-1
 398 930 l 1,3,-1
 208 711 l 1,4,-1
 113 813 l 1,5,-1
 360 975 l 1,6,-1
 93 1088 l 1,7,-1
 161 1210 l 1,8,-1
 391 1026 l 1,9,-1
 416 1315 l 1,10,-1
 553 1288 l 1,11,-1
 449 1012 l 1,12,-1
 732 1078 l 1,13,-1
 748 939 l 1,14,-1
 454 953 l 1,0,-1
EndSplineSet
EndChar

StartChar: plus
Encoding: 43 43 14
Width: 1130
GlyphClass: 2
Flags: W
LayerCount: 2
Fore
SplineSet
620 558 m 1,0,-1
 1069 558 l 1,1,-1
 1069 449 l 1,2,-1
 620 449 l 1,3,-1
 620 0 l 1,4,-1
 510 0 l 1,5,-1
 510 449 l 1,6,-1
 61 449 l 1,7,-1
 61 558 l 1,8,-1
 510 558 l 1,9,-1
 510 1008 l 1,10,-1
 620 1008 l 1,11,-1
 620 558 l 1,0,-1
EndSplineSet
EndChar

StartChar: comma
Encoding: 44 44 15
Width: 450
GlyphClass: 2
Flags: W
LayerCount: 2
Fore
SplineSet
205 -27 m 0,0,1
 205 -9 205 -9 156 14 c 0,2,3
 138 23 138 23 122.5 48 c 128,-1,4
 107 73 107 73 107 113 c 128,-1,5
 107 153 107 153 138.5 188.5 c 128,-1,6
 170 224 170 224 218 224 c 128,-1,7
 266 224 266 224 293.5 206.5 c 128,-1,8
 321 189 321 189 332 161 c 0,9,10
 351 113 351 113 351 52 c 0,11,12
 351 -107 351 -107 157 -294 c 1,13,-1
 75 -222 l 1,14,15
 205 -98 205 -98 205 -27 c 0,0,1
EndSplineSet
EndChar

StartChar: hyphen
Encoding: 45 45 16
Width: 765
GlyphClass: 2
Flags: W
LayerCount: 2
Fore
SplineSet
690 449 m 1,0,-1
 61 449 l 1,1,-1
 61 558 l 1,2,-1
 690 558 l 1,3,-1
 690 449 l 1,0,-1
EndSplineSet
EndChar

StartChar: period
Encoding: 46 46 17
Width: 450
GlyphClass: 2
Flags: W
LayerCount: 2
Fore
SplineSet
107 103 m 256,0,1
 107 153 107 153 141.5 188.5 c 128,-1,2
 176 224 176 224 225 224 c 256,3,4
 274 224 274 224 308.5 188.5 c 128,-1,5
 343 153 343 153 343 103 c 256,6,7
 343 53 343 53 308.5 17.5 c 128,-1,8
 274 -18 274 -18 225 -18 c 256,9,10
 176 -18 176 -18 141.5 17.5 c 128,-1,11
 107 53 107 53 107 103 c 256,0,1
EndSplineSet
EndChar

StartChar: slash
Encoding: 47 47 18
Width: 645
GlyphClass: 2
Flags: W
LayerCount: 2
Fore
SplineSet
493 1475 m 1,0,-1
 621 1475 l 1,1,-1
 152 0 l 1,2,-1
 24 0 l 1,3,-1
 493 1475 l 1,0,-1
EndSplineSet
EndChar

StartChar: zero
Encoding: 48 48 19
Width: 1231
GlyphClass: 2
Flags: W
LayerCount: 2
Fore
SplineSet
616 111 m 0,0,1
 726 111 726 111 824 167 c 0,2,3
 937 231 937 231 984 362 c 0,4,5
 1010 434 1010 434 1010 524 c 0,6,7
 1010 700 1010 700 918 806 c 1,8,9
 836 896 836 896 719 926 c 1,10,11
 667 938 667 938 616 938 c 0,12,13
 434 938 434 938 314 806 c 1,14,15
 222 703 222 703 222 524 c 0,16,17
 222 434 222 434 248 362 c 1,18,19
 293 232 293 232 408 167 c 1,20,21
 504 111 504 111 616 111 c 0,0,1
616 1067 m 256,22,23
 774 1067 774 1067 911 994 c 0,24,25
 1071 909 1071 909 1135 738 c 0,26,27
 1171 642 1171 642 1171 524 c 256,28,29
 1171 406 1171 406 1135 310 c 0,30,31
 1071 140 1071 140 911 55 c 0,32,33
 774 -18 774 -18 616 -18 c 256,34,35
 458 -18 458 -18 321 55 c 0,36,37
 161 140 161 140 97 311 c 0,38,39
 61 406 61 406 61 524.5 c 128,-1,40
 61 643 61 643 97 738 c 0,41,42
 161 909 161 909 321 994 c 0,43,44
 458 1067 458 1067 616 1067 c 256,22,23
EndSplineSet
EndChar

StartChar: one
Encoding: 49 49 20
Width: 581
GlyphClass: 2
Flags: W
LayerCount: 2
Fore
SplineSet
436 1049 m 1,0,-1
 436 0 l 1,1,-1
 275 0 l 1,2,-1
 275 906 l 1,3,-1
 87 810 l 1,4,-1
 34 925 l 1,5,-1
 275 1049 l 1,6,-1
 436 1049 l 1,0,-1
EndSplineSet
EndChar

StartChar: two
Encoding: 50 50 21
Width: 919
GlyphClass: 2
Flags: W
LayerCount: 2
Fore
SplineSet
547 893 m 1,0,1
 497 938 497 938 388.5 938 c 128,-1,2
 280 938 280 938 150 854 c 1,3,-1
 90 959 l 1,4,5
 139 999 139 999 221.5 1033 c 128,-1,6
 304 1067 304 1067 400 1067 c 0,7,8
 563 1067 563 1067 660.5 995 c 128,-1,9
 758 923 758 923 758 780 c 0,10,11
 758 623 758 623 562 416 c 0,12,13
 531 382 531 382 478 328 c 2,14,-1
 282 128 l 1,15,-1
 802 128 l 1,16,-1
 802 0 l 1,17,-1
 90 0 l 1,18,-1
 90 128 l 1,19,-1
 286 328 l 2,20,21
 341 385 341 385 388 432 c 0,22,23
 545 592 545 592 581 696 c 0,24,25
 596 740 596 740 596 793.5 c 128,-1,26
 596 847 596 847 547 893 c 1,0,1
EndSplineSet
EndChar

StartChar: three
Encoding: 51 51 22
Width: 841
GlyphClass: 2
Flags: W
LayerCount: 2
Fore
SplineSet
717 747 m 0,0,1
 717 562 717 562 536 462 c 1,2,3
 664 413 664 413 725 326 c 1,4,5
 788 230 788 230 788 81 c 0,6,7
 788 -98 788 -98 666 -222 c 0,8,9
 540 -350 540 -350 346.5 -350 c 128,-1,10
 153 -350 153 -350 36 -258 c 1,11,-1
 101 -154 l 1,12,13
 201 -221 201 -221 331.5 -221 c 128,-1,14
 462 -221 462 -221 543.5 -133.5 c 128,-1,15
 625 -46 625 -46 625 89 c 128,-1,16
 625 224 625 224 534 302 c 256,17,18
 443 380 443 380 316 380 c 2,19,-1
 234 380 l 1,20,-1
 234 508 l 1,21,-1
 288 508 l 2,22,23
 380 508 380 508 462 560 c 0,24,25
 503 586 503 586 528.5 635 c 128,-1,26
 554 684 554 684 554 740 c 0,27,28
 554 846 554 846 484 896 c 1,29,30
 418 939 418 939 332.5 939 c 128,-1,31
 247 939 247 939 144 894 c 1,32,-1
 102 1006 l 1,33,34
 153 1032 153 1032 223 1049.5 c 128,-1,35
 293 1067 293 1067 363 1067 c 128,-1,36
 433 1067 433 1067 500 1047 c 0,37,38
 619 1012 619 1012 673 920 c 0,39,40
 717 847 717 847 717 747 c 0,0,1
EndSplineSet
EndChar

StartChar: four
Encoding: 52 52 23
Width: 995
GlyphClass: 2
Flags: W
LayerCount: 2
Fore
SplineSet
591 259 m 1,0,-1
 591 822 l 1,1,-1
 232 259 l 1,2,-1
 591 259 l 1,0,-1
62 236 m 1,3,-1
 591 1067 l 1,4,-1
 752 1067 l 1,5,-1
 752 259 l 1,6,-1
 969 259 l 1,7,-1
 969 131 l 1,8,-1
 752 131 l 1,9,-1
 752 -256 l 1,10,-1
 591 -256 l 1,11,-1
 591 131 l 1,12,-1
 62 131 l 1,13,-1
 62 236 l 1,3,-1
EndSplineSet
EndChar

StartChar: five
Encoding: 53 53 24
Width: 835
GlyphClass: 2
Flags: W
LayerCount: 2
Fore
SplineSet
120 1049 m 1,0,-1
 716 1049 l 1,1,-1
 716 921 l 1,2,-1
 282 921 l 1,3,-1
 264 560 l 1,4,5
 511 542 511 542 637 416 c 0,6,7
 685 368 685 368 716.5 287 c 128,-1,8
 748 206 748 206 748 102 c 0,9,10
 748 -103 748 -103 623.5 -226.5 c 128,-1,11
 499 -350 499 -350 276 -350 c 0,12,13
 228 -350 228 -350 160.5 -336.5 c 128,-1,14
 93 -323 93 -323 48 -298 c 1,15,-1
 104 -175 l 1,16,17
 175 -215 175 -215 276 -215 c 0,18,19
 429 -215 429 -215 508 -125 c 128,-1,20
 587 -35 587 -35 587 102 c 0,21,22
 587 318 587 318 384 399 c 0,23,24
 282 440 282 440 148 440 c 2,25,-1
 85 440 l 1,26,-1
 120 1049 l 1,0,-1
EndSplineSet
EndChar

StartChar: six
Encoding: 54 54 25
Width: 1013
GlyphClass: 2
Flags: W
LayerCount: 2
Fore
SplineSet
700.5 184 m 128,-1,1
 777 257 777 257 781 387 c 1,2,-1
 781 404 l 2,3,4
 781 533 781 533 706.5 607 c 128,-1,5
 632 681 632 681 508 681 c 0,6,7
 351 681 351 681 236 572 c 1,8,9
 231 540 231 540 231 477.5 c 128,-1,10
 231 415 231 415 252 341 c 128,-1,11
 273 267 273 267 304.5 225 c 128,-1,12
 336 183 336 183 378 156 c 0,13,14
 447 111 447 111 535.5 111 c 128,-1,0
 624 111 624 111 700.5 184 c 128,-1,1
525 -18 m 0,15,16
 393 -18 393 -18 284 47 c 0,17,18
 152 125 152 125 100 294 c 1,19,20
 70 388 70 388 70 486 c 128,-1,21
 70 584 70 584 80 655 c 128,-1,22
 90 726 90 726 115 802 c 128,-1,23
 140 878 140 878 178.5 944 c 128,-1,24
 217 1010 217 1010 278 1071.5 c 128,-1,25
 339 1133 339 1133 417 1180 c 0,26,27
 588 1282 588 1282 840 1305 c 1,28,-1
 855 1176 l 1,29,30
 611 1154 611 1154 455 1038 c 128,-1,31
 299 922 299 922 253 713 c 1,32,33
 295 758 295 758 374 784 c 128,-1,34
 453 810 453 810 536 810 c 0,35,36
 711 810 711 810 826.5 700.5 c 128,-1,37
 942 591 942 591 942 411.5 c 128,-1,38
 942 232 942 232 831 107 c 128,-1,39
 720 -18 720 -18 525 -18 c 0,15,16
EndSplineSet
EndChar

StartChar: seven
Encoding: 55 55 26
Width: 787
GlyphClass: 2
Flags: W
LayerCount: 2
Fore
SplineSet
379 636 m 1,0,-1
 544 921 l 1,1,-1
 35 921 l 1,2,-1
 35 1049 l 1,3,-1
 771 1049 l 1,4,-1
 607 764 l 2,5,6
 475 535 475 535 392.5 264 c 128,-1,7
 310 -7 310 -7 285 -257 c 1,8,-1
 124 -257 l 1,9,10
 145 -39 145 -39 223 230 c 128,-1,11
 301 499 301 499 379 636 c 1,0,-1
EndSplineSet
EndChar

StartChar: eight
Encoding: 56 56 27
Width: 952
GlyphClass: 2
Flags: W
LayerCount: 2
Fore
SplineSet
658 935 m 0,0,1
 673 972 673 972 673 1014.5 c 128,-1,2
 673 1057 673 1057 651.5 1091 c 128,-1,3
 630 1125 630 1125 597 1142 c 0,4,5
 534 1176 534 1176 472 1176 c 256,6,7
 410 1176 410 1176 362 1151 c 0,8,9
 270 1104 270 1104 270 1012 c 0,10,11
 270 922 270 922 334 860 c 0,12,13
 387 809 387 809 483 757 c 1,14,15
 624 856 624 856 658 935 c 0,0,1
436 605 m 1,16,17
 338 549 338 549 284.5 479.5 c 128,-1,18
 231 410 231 410 231 321.5 c 128,-1,19
 231 233 231 233 303 172 c 128,-1,20
 375 111 375 111 474.5 111 c 128,-1,21
 574 111 574 111 649 165 c 128,-1,22
 724 219 724 219 724 312 c 0,23,24
 724 428 724 428 611 505 c 0,25,26
 554 544 554 544 510.5 566 c 128,-1,27
 467 588 467 588 436 605 c 1,16,17
316 672 m 1,28,29
 162 773 162 773 124 902 c 0,30,31
 109 956 109 956 109 1031 c 128,-1,32
 109 1106 109 1106 162 1172 c 0,33,34
 269 1305 269 1305 472 1305 c 0,35,36
 674 1305 674 1305 780 1172 c 1,37,38
 834 1106 834 1106 834 1035 c 128,-1,39
 834 964 834 964 815 914.5 c 128,-1,40
 796 865 796 865 762 825 c 0,41,42
 705 758 705 758 603 694 c 1,43,44
 766 604 766 604 828 510 c 0,45,46
 885 423 885 423 885 304 c 0,47,48
 885 174 885 174 790 82 c 0,49,50
 686 -18 686 -18 472 -18 c 0,51,52
 171 -18 171 -18 92 183 c 0,53,54
 70 239 70 239 70 293 c 128,-1,55
 70 347 70 347 77.5 385 c 128,-1,56
 85 423 85 423 97 452.5 c 128,-1,57
 109 482 109 482 129 510 c 128,-1,58
 149 538 149 538 167.5 558 c 128,-1,59
 186 578 186 578 214 600 c 0,60,61
 264 639 264 639 316 672 c 1,28,29
EndSplineSet
EndChar

StartChar: nine
Encoding: 57 57 28
Width: 1013
GlyphClass: 2
Flags: W
LayerCount: 2
Fore
SplineSet
311.5 865 m 128,-1,1
 235 792 235 792 231 662 c 1,2,-1
 231 645 l 2,3,4
 231 516 231 516 305.5 442 c 128,-1,5
 380 368 380 368 504 368 c 0,6,7
 661 368 661 368 776 477 c 1,8,9
 781 509 781 509 781 571.5 c 128,-1,10
 781 634 781 634 760 708 c 128,-1,11
 739 782 739 782 707.5 824 c 128,-1,12
 676 866 676 866 634 893 c 0,13,14
 565 938 565 938 476.5 938 c 128,-1,0
 388 938 388 938 311.5 865 c 128,-1,1
487 1067 m 0,15,16
 619 1067 619 1067 728 1002 c 0,17,18
 860 924 860 924 912 756 c 0,19,20
 942 661 942 661 942 563 c 128,-1,21
 942 465 942 465 932 394 c 128,-1,22
 922 323 922 323 897 247 c 128,-1,23
 872 171 872 171 833.5 105 c 128,-1,24
 795 39 795 39 734 -22.5 c 128,-1,25
 673 -84 673 -84 595 -130 c 0,26,27
 424 -233 424 -233 172 -256 c 1,28,-1
 157 -127 l 1,29,30
 401 -105 401 -105 557 11 c 128,-1,31
 713 127 713 127 759 336 c 1,32,33
 717 291 717 291 638 265 c 128,-1,34
 559 239 559 239 476 239 c 0,35,36
 301 239 301 239 185.5 348.5 c 128,-1,37
 70 458 70 458 70 637.5 c 128,-1,38
 70 817 70 817 181 942 c 128,-1,39
 292 1067 292 1067 487 1067 c 0,15,16
EndSplineSet
EndChar

StartChar: less
Encoding: 60 60 31
Width: 967
GlyphClass: 2
Flags: W
LayerCount: 2
Fore
SplineSet
0 525 m 1,0,-1
 800 1155 l 1,1,-1
 879 1071 l 1,2,-1
 187 525 l 1,3,-1
 879 -21 l 1,4,-1
 800 -105 l 1,5,-1
 0 525 l 1,0,-1
EndSplineSet
EndChar

StartChar: equal
Encoding: 61 61 32
Width: 1052
GlyphClass: 2
Flags: W
LayerCount: 2
Fore
SplineSet
991 630 m 1,0,-1
 61 630 l 1,1,-1
 61 738 l 1,2,-1
 991 738 l 1,3,-1
 991 630 l 1,0,-1
991 294 m 1,4,-1
 61 294 l 1,5,-1
 61 402 l 1,6,-1
 991 402 l 1,7,-1
 991 294 l 1,4,-1
EndSplineSet
EndChar

StartChar: greater
Encoding: 62 62 33
Width: 967
GlyphClass: 2
Flags: W
LayerCount: 2
Fore
SplineSet
967 525 m 1,0,-1
 167 -105 l 1,1,-1
 88 -21 l 1,2,-1
 780 525 l 1,3,-1
 88 1071 l 1,4,-1
 167 1155 l 1,5,-1
 967 525 l 1,0,-1
EndSplineSet
EndChar

StartChar: question
Encoding: 63 63 34
Width: 864
GlyphClass: 2
Flags: W
LayerCount: 2
Fore
SplineSet
302 103 m 256,0,1
 302 153 302 153 336.5 188.5 c 128,-1,2
 371 224 371 224 420 224 c 256,3,4
 469 224 469 224 503.5 188.5 c 128,-1,5
 538 153 538 153 538 103 c 256,6,7
 538 53 538 53 503.5 17.5 c 128,-1,8
 469 -18 469 -18 420 -18 c 256,9,10
 371 -18 371 -18 336.5 17.5 c 128,-1,11
 302 53 302 53 302 103 c 256,0,1
368 388 m 1,12,13
 315 487 315 487 315 561 c 128,-1,14
 315 635 315 635 344.5 700 c 128,-1,15
 374 765 374 765 416.5 822.5 c 128,-1,16
 459 880 459 880 502 937 c 0,17,18
 603 1073 603 1073 603 1180 c 0,19,20
 603 1242 603 1242 544 1288.5 c 128,-1,21
 485 1335 485 1335 374 1335 c 256,22,23
 263 1335 263 1335 158 1272 c 1,24,-1
 108 1380 l 1,25,26
 207 1443 207 1443 281 1453.5 c 128,-1,27
 355 1464 355 1464 420 1464 c 0,28,29
 556 1464 556 1464 660 1384.5 c 128,-1,30
 764 1305 764 1305 764 1180 c 0,31,32
 764 1053 764 1053 662 906 c 0,33,34
 620 845 620 845 578 788 c 0,35,36
 476 650 476 650 476 573 c 128,-1,37
 476 496 476 496 502 408 c 1,38,-1
 368 388 l 1,12,13
EndSplineSet
EndChar

StartChar: at
Encoding: 64 64 35
Width: 1994
GlyphClass: 2
Flags: W
LayerCount: 2
Fore
SplineSet
1892.5 854.5 m 128,-1,1
 1930 736 1930 736 1930 623.5 c 128,-1,2
 1930 511 1930 511 1906.5 418.5 c 128,-1,3
 1883 326 1883 326 1837 248 c 128,-1,4
 1791 170 1791 170 1728 111 c 0,5,6
 1595 -15 1595 -15 1409 -15 c 0,7,8
 1204 -15 1204 -15 1166 96 c 0,9,10
 1160 116 1160 116 1156 144 c 1,11,12
 1041 -18 1041 -18 848 -18 c 0,13,14
 718 -18 718 -18 638 58 c 1,15,16
 553 137 553 137 553 305 c 0,17,18
 553 652 553 652 814 848 c 0,19,20
 960 957 960 957 1124 957 c 0,21,22
 1223 957 1223 957 1296 933.5 c 128,-1,23
 1369 910 1369 910 1442 859 c 1,24,-1
 1351 392 l 2,25,26
 1327 270 1327 270 1327 207 c 128,-1,27
 1327 144 1327 144 1353 119.5 c 128,-1,28
 1379 95 1379 95 1452.5 95 c 128,-1,29
 1526 95 1526 95 1607 169 c 128,-1,30
 1688 243 1688 243 1737.5 359.5 c 128,-1,31
 1787 476 1787 476 1787 608 c 128,-1,32
 1787 740 1787 740 1736 868 c 128,-1,33
 1685 996 1685 996 1593 1092 c 128,-1,34
 1501 1188 1501 1188 1363.5 1244 c 128,-1,35
 1226 1300 1226 1300 1083 1300 c 128,-1,36
 940 1300 940 1300 818 1259 c 128,-1,37
 696 1218 696 1218 591.5 1139 c 128,-1,38
 487 1060 487 1060 406 954 c 128,-1,39
 325 848 325 848 279 709.5 c 128,-1,40
 233 571 233 571 233 410.5 c 128,-1,41
 233 250 233 250 293.5 100.5 c 128,-1,42
 354 -49 354 -49 459 -155 c 128,-1,43
 564 -261 564 -261 712.5 -322.5 c 128,-1,44
 861 -384 861 -384 1030 -384 c 0,45,46
 1334 -384 1334 -384 1579 -194 c 0,47,48
 1612 -169 1612 -169 1665 -125 c 1,49,-1
 1755 -195 l 1,50,51
 1634 -324 1634 -324 1446.5 -408 c 128,-1,52
 1259 -492 1259 -492 1062.5 -492 c 128,-1,53
 866 -492 866 -492 726.5 -455 c 128,-1,54
 587 -418 587 -418 486 -352 c 128,-1,55
 385 -286 385 -286 307.5 -198.5 c 128,-1,56
 230 -111 230 -111 184 -6 c 0,57,58
 90 205 90 205 90 436 c 0,59,60
 90 760 90 760 279 1010 c 0,61,62
 470 1264 470 1264 752 1359 c 0,63,64
 897 1408 897 1408 1055 1408 c 128,-1,65
 1213 1408 1213 1408 1354.5 1365.5 c 128,-1,66
 1496 1323 1496 1323 1600 1248.5 c 128,-1,67
 1704 1174 1704 1174 1779.5 1073.5 c 128,-1,0
 1855 973 1855 973 1892.5 854.5 c 128,-1,1
1268 791 m 1,68,69
 1217 828 1217 828 1141 828 c 128,-1,70
 1065 828 1065 828 1005.5 808.5 c 128,-1,71
 946 789 946 789 904 757 c 128,-1,72
 862 725 862 725 828 681 c 128,-1,73
 794 637 794 637 773.5 591 c 128,-1,74
 753 545 753 545 739 494 c 0,75,76
 714 404 714 404 714 307.5 c 128,-1,77
 714 211 714 211 761 160.5 c 128,-1,78
 808 110 808 110 869.5 110 c 128,-1,79
 931 110 931 110 972.5 124 c 128,-1,80
 1014 138 1014 138 1050 166 c 0,81,82
 1111 215 1111 215 1171 291 c 1,83,-1
 1268 791 l 1,68,69
EndSplineSet
EndChar

StartChar: A
Encoding: 65 65 36
Width: 1328
GlyphClass: 2
Flags: W
AnchorPoint: "Anchor-4" 664 0 basechar 0
AnchorPoint: "Anchor-3" 1166 0 basechar 0
AnchorPoint: "Anchor-2" 1166 0 basechar 0
AnchorPoint: "Anchor-1" 664 1409 basechar 0
AnchorPoint: "Anchor-0" 786 1053 basechar 0
LayerCount: 2
Fore
SplineSet
933 404 m 1,0,-1
 385 404 l 1,1,-1
 235 0 l 1,2,-1
 67 0 l 1,3,-1
 589 1391 l 1,4,-1
 739 1391 l 1,5,-1
 1261 0 l 1,6,-1
 1083 0 l 1,7,-1
 933 404 l 1,0,-1
881 544 m 1,8,-1
 659 1144 l 1,9,-1
 436 544 l 1,10,-1
 881 544 l 1,8,-1
EndSplineSet
EndChar

StartChar: B
Encoding: 66 66 37
Width: 1116
GlyphClass: 2
Flags: W
AnchorPoint: "Anchor-4" 540 0 basechar 0
AnchorPoint: "Anchor-3" 636 0 basechar 0
AnchorPoint: "Anchor-2" 636 0 basechar 0
AnchorPoint: "Anchor-1" 992 172 basechar 0 19
AnchorPoint: "Anchor-0" 848 -18 basechar 0 20
LayerCount: 2
Fore
SplineSet
361 1252 m 1,0,-1
 361 795 l 1,1,-1
 427 795 l 2,2,3
 594 795 594 795 682.5 858 c 128,-1,4
 771 921 771 921 771 1040 c 0,5,6
 771 1187 771 1187 626 1244 c 0,7,8
 559 1270 559 1270 488.5 1270 c 128,-1,9
 418 1270 418 1270 361 1252 c 1,0,-1
883 390 m 0,10,11
 883 655 883 655 421 655 c 2,12,-1
 361 655 l 1,13,-1
 361 140 l 1,14,15
 415 122 415 122 499 122 c 0,16,17
 687 122 687 122 785 191.5 c 128,-1,18
 883 261 883 261 883 390 c 0,10,11
992 172 m 0,19,20
 848 -18 848 -18 492 -18 c 0,21,22
 316 -18 316 -18 180 13 c 1,23,-1
 180 1372 l 1,24,25
 346 1409 346 1409 524 1409 c 128,-1,26
 702 1409 702 1409 832.5 1322 c 128,-1,27
 963 1235 963 1235 963 1094 c 128,-1,28
 963 953 963 953 894 867 c 128,-1,29
 825 781 825 781 717 752 c 1,30,31
 980 717 980 717 1046 538 c 1,32,33
 1068 482 1068 482 1068 413 c 0,34,35
 1068 271 1068 271 992 172 c 0,19,20
EndSplineSet
EndChar

StartChar: C
Encoding: 67 67 38
Width: 1255
GlyphClass: 2
Flags: W
AnchorPoint: "Anchor-4" 497 -18 basechar 0 7
AnchorPoint: "Anchor-3" 497 -18 basechar 0 7
AnchorPoint: "Anchor-2" 688 -18 basechar 0
AnchorPoint: "Anchor-1" 880 -17 basechar 0 6
AnchorPoint: "Anchor-0" 1080 1245 basechar 0
LayerCount: 2
Fore
SplineSet
740 122 m 2,0,1
 915 122 915 122 1078 245 c 1,2,-1
 1166 126 l 1,3,4
 1060 49 1060 49 991 23 c 0,5,6
 881 -18 881 -18 689 -18 c 128,-1,7
 497 -18 497 -18 350 72 c 256,8,9
 203 162 203 162 126 323.5 c 128,-1,10
 49 485 49 485 49 696 c 256,11,12
 49 907 49 907 126 1068 c 256,13,14
 203 1229 203 1229 350 1319 c 256,15,16
 497 1409 497 1409 693 1409 c 0,17,18
 880 1409 880 1409 955.5 1381 c 128,-1,19
 1031 1353 1031 1353 1069 1330.5 c 128,-1,20
 1107 1308 1107 1308 1166 1265 c 1,21,-1
 1078 1146 l 1,22,23
 915 1269 915 1269 740 1269 c 2,24,-1
 728 1269 l 2,25,26
 616 1269 616 1269 518 1221 c 0,27,28
 337 1133 337 1133 265 909 c 0,29,30
 231 806 231 806 231 695 c 256,31,32
 231 584 231 584 264.5 481.5 c 128,-1,33
 298 379 298 379 358 298 c 0,34,35
 491 122 491 122 728 122 c 2,36,-1
 740 122 l 2,0,1
EndSplineSet
EndChar

StartChar: D
Encoding: 68 68 39
Width: 1375
GlyphClass: 2
Flags: W
AnchorPoint: "Anchor-4" 1142 1003 basechar 0 23
AnchorPoint: "Anchor-3" 1142 1003 basechar 0 23
AnchorPoint: "Anchor-2" 1142 1003 basechar 0 23
AnchorPoint: "Anchor-1" 1142 554 basechar 0 21
AnchorPoint: "Anchor-0" 1142 676 basechar 0 22
LayerCount: 2
Fore
SplineSet
1101 163 m 0,0,1
 883 -18 883 -18 548 -18 c 0,2,3
 367 -18 367 -18 180 13 c 1,4,-1
 180 1372 l 1,5,6
 391 1409 391 1409 527 1409 c 0,7,8
 927 1409 927 1409 1167 1144 c 1,9,10
 1242 1059 1242 1059 1286 942 c 128,-1,11
 1330 825 1330 825 1330 674.5 c 128,-1,12
 1330 524 1330 524 1267.5 387 c 128,-1,13
 1205 250 1205 250 1101 163 c 0,0,1
361 1252 m 1,14,-1
 360 140 l 1,15,16
 452 122 452 122 558 122 c 0,17,18
 781 122 781 122 955 265 c 0,19,20
 1039 333 1039 333 1090.5 443.5 c 128,-1,21
 1142 554 1142 554 1142 676 c 0,22,23
 1142 1003 1142 1003 872 1175 c 1,24,25
 721 1270 721 1270 546 1270 c 0,26,27
 439 1270 439 1270 361 1252 c 1,14,-1
EndSplineSet
EndChar

StartChar: E
Encoding: 69 69 40
Width: 1077
GlyphClass: 2
Flags: W
AnchorPoint: "Anchor-4" 568 0 basechar 0
AnchorPoint: "Anchor-3" 568 0 basechar 0
AnchorPoint: "Anchor-2" 908 0 basechar 0
AnchorPoint: "Anchor-1" 568 1409 basechar 0
AnchorPoint: "Anchor-0" 868 1053 basechar 0
LayerCount: 2
Fore
SplineSet
361 644 m 1,0,-1
 361 140 l 1,1,-1
 975 140 l 1,2,-1
 975 0 l 1,3,-1
 180 0 l 1,4,-1
 180 1391 l 1,5,-1
 975 1391 l 1,6,-1
 975 1252 l 1,7,-1
 361 1252 l 1,8,-1
 361 784 l 1,9,-1
 779 784 l 1,10,-1
 779 644 l 1,11,-1
 361 644 l 1,0,-1
EndSplineSet
EndChar

StartChar: F
Encoding: 70 70 41
Width: 999
GlyphClass: 2
Flags: W
AnchorPoint: "Anchor-4" 270 0 basechar 0
AnchorPoint: "Anchor-3" 270 0 basechar 0
AnchorPoint: "Anchor-2" 270 0 basechar 0
AnchorPoint: "Anchor-1" 580 1409 basechar 0
AnchorPoint: "Anchor-0" 872 1053 basechar 0
LayerCount: 2
Fore
SplineSet
361 644 m 1,0,-1
 361 0 l 1,1,-1
 180 0 l 1,2,-1
 180 1391 l 1,3,-1
 975 1391 l 1,4,-1
 975 1252 l 1,5,-1
 361 1252 l 1,6,-1
 361 784 l 1,7,-1
 779 784 l 1,8,-1
 779 644 l 1,9,-1
 361 644 l 1,0,-1
EndSplineSet
EndChar

StartChar: G
Encoding: 71 71 42
Width: 1435
GlyphClass: 2
Flags: W
AnchorPoint: "Anchor-4" 774 665 basechar 0 29
AnchorPoint: "Anchor-3" 774 665 basechar 0 29
AnchorPoint: "Anchor-2" 774 665 basechar 0 29
AnchorPoint: "Anchor-1" 1071 526 basechar 0 27
AnchorPoint: "Anchor-0" 774 526 basechar 0 28
LayerCount: 2
Fore
SplineSet
49 696 m 0,0,1
 49 907 49 907 136 1068 c 0,2,3
 222 1229 222 1229 386 1319 c 256,4,5
 550 1409 550 1409 770 1409 c 0,6,7
 959 1409 959 1409 1045 1378.5 c 128,-1,8
 1131 1348 1131 1348 1171.5 1326.5 c 128,-1,9
 1212 1305 1212 1305 1276 1264 c 1,10,-1
 1206 1131 l 1,11,12
 992 1269 992 1269 774 1269 c 0,13,14
 652 1269 652 1269 550 1221 c 0,15,16
 355 1130 355 1130 278 911 c 0,17,18
 241 808 241 808 241 708 c 0,19,20
 241 411 241 411 425 240 c 1,21,22
 547 122 547 122 730 122 c 2,23,-1
 742 122 l 2,24,25
 904 122 904 122 1071 197 c 1,26,-1
 1071 526 l 1,27,-1
 774 526 l 1,28,-1
 774 665 l 1,29,-1
 1252 666 l 1,30,-1
 1251 126 l 1,31,32
 1038 -18 1038 -18 731 -18 c 128,-1,33
 424 -18 424 -18 236.5 179 c 128,-1,34
 49 376 49 376 49 696 c 0,0,1
EndSplineSet
EndChar

StartChar: H
Encoding: 72 72 43
Width: 1364
GlyphClass: 2
Flags: W
AnchorPoint: "Anchor-4" 682 0 basechar 0
AnchorPoint: "Anchor-3" 1093 0 basechar 0
AnchorPoint: "Anchor-2" 1093 0 basechar 0
AnchorPoint: "Anchor-1" 682 1409 basechar 0
AnchorPoint: "Anchor-0" 1096 1053 basechar 0
LayerCount: 2
Fore
SplineSet
1184 1390 m 1,0,-1
 1184 0 l 1,1,-1
 1003 0 l 1,2,-1
 1003 664 l 1,3,-1
 361 664 l 1,4,-1
 361 0 l 1,5,-1
 180 0 l 1,6,-1
 180 1391 l 1,7,-1
 361 1391 l 1,8,-1
 361 804 l 1,9,-1
 1003 804 l 1,10,-1
 1003 1390 l 1,11,-1
 1184 1390 l 1,0,-1
EndSplineSet
EndChar

StartChar: I
Encoding: 73 73 44
Width: 541
GlyphClass: 2
Flags: W
AnchorPoint: "Anchor-4" 270 0 basechar 0
AnchorPoint: "Anchor-3" 270 0 basechar 0
AnchorPoint: "Anchor-2" 270 0 basechar 0
AnchorPoint: "Anchor-1" 270 1409 basechar 0
AnchorPoint: "Anchor-0" 270 1053 basechar 0
LayerCount: 2
Fore
SplineSet
361 1391 m 1,0,-1
 361 0 l 1,1,-1
 180 0 l 1,2,-1
 180 1391 l 1,3,-1
 361 1391 l 1,0,-1
EndSplineSet
EndChar

StartChar: J
Encoding: 74 74 45
Width: 541
GlyphClass: 2
Flags: W
AnchorPoint: "Anchor-4" 180 -492 basechar 0
AnchorPoint: "Anchor-3" 60 -492 basechar 0
AnchorPoint: "Anchor-2" 60 -492 basechar 0
AnchorPoint: "Anchor-1" 180 1391 basechar 0 14
AnchorPoint: "Anchor-0" 270 1053 basechar 0
LayerCount: 2
Fore
SplineSet
361 1391 m 1,0,-1
 361 140 l 1,1,2
 359 74 359 74 359 32.5 c 128,-1,3
 359 -9 359 -9 351.5 -67.5 c 128,-1,4
 344 -126 344 -126 331.5 -166.5 c 128,-1,5
 319 -207 319 -207 295 -257 c 128,-1,6
 271 -307 271 -307 238 -344 c 0,7,8
 158 -434 158 -434 37 -495 c 1,9,-1
 -41 -396 l 1,10,11
 76 -306 76 -306 128 -200.5 c 128,-1,12
 180 -95 180 -95 180 69 c 2,13,-1
 180 1391 l 1,14,-1
 361 1391 l 1,0,-1
EndSplineSet
EndChar

StartChar: K
Encoding: 75 75 46
Width: 1115
GlyphClass: 2
Flags: W
AnchorPoint: "Anchor-4" 620 0 basechar 0
AnchorPoint: "Anchor-3" 997 0 basechar 0
AnchorPoint: "Anchor-2" 997 0 basechar 0
AnchorPoint: "Anchor-1" 620 1409 basechar 0
AnchorPoint: "Anchor-0" 999 1053 basechar 0
LayerCount: 2
Fore
SplineSet
361 0 m 1,0,-1
 180 0 l 1,1,-1
 180 1391 l 1,2,-1
 361 1391 l 1,3,-1
 361 693 l 1,4,-1
 871 1391 l 1,5,-1
 1059 1391 l 1,6,-1
 555 701 l 1,7,-1
 1103 0 l 1,8,-1
 892 0 l 1,9,-1
 361 679 l 1,10,-1
 361 0 l 1,0,-1
EndSplineSet
EndChar

StartChar: L
Encoding: 76 76 47
Width: 1010
GlyphClass: 2
Flags: W
AnchorPoint: "Anchor-4" 580 0 basechar 0
AnchorPoint: "Anchor-3" 580 0 basechar 0
AnchorPoint: "Anchor-2" 580 0 basechar 0
AnchorPoint: "Anchor-1" 270 1409 basechar 0
AnchorPoint: "Anchor-0" 270 1053 basechar 0
LayerCount: 2
Fore
SplineSet
180 0 m 1,0,-1
 180 1391 l 1,1,-1
 361 1391 l 1,2,-1
 361 140 l 1,3,-1
 975 140 l 1,4,-1
 975 0 l 1,5,-1
 180 0 l 1,0,-1
EndSplineSet
EndChar

StartChar: M
Encoding: 77 77 48
Width: 1774
GlyphClass: 2
Flags: W
AnchorPoint: "Anchor-4" 886 0 basechar 0
AnchorPoint: "Anchor-3" 1575 0 basechar 0
AnchorPoint: "Anchor-2" 1575 0 basechar 0
AnchorPoint: "Anchor-1" 886 1409 basechar 0
AnchorPoint: "Anchor-0" 1455 1053 basechar 0
LayerCount: 2
Fore
SplineSet
893 249 m 1,0,-1
 1323 1392 l 1,1,-1
 1491 1392 l 1,2,-1
 1664 0 l 1,3,-1
 1486 0 l 1,4,-1
 1362 1039 l 1,5,-1
 981 0 l 1,6,-1
 816 0 l 1,7,-1
 399 1087 l 1,8,-1
 269 0 l 1,9,-1
 109 0 l 1,10,-1
 282 1392 l 1,11,-1
 460 1392 l 1,12,-1
 893 249 l 1,0,-1
EndSplineSet
EndChar

StartChar: N
Encoding: 78 78 49
Width: 1385
GlyphClass: 2
Flags: W
AnchorPoint: "Anchor-4" 692 0 basechar 0
AnchorPoint: "Anchor-3" 1114 0 basechar 0
AnchorPoint: "Anchor-2" 1114 0 basechar 0
AnchorPoint: "Anchor-1" 692 1409 basechar 0
AnchorPoint: "Anchor-0" 1114 1053 basechar 0
LayerCount: 2
Fore
SplineSet
1205 1391 m 1,0,-1
 1205 0 l 1,1,-1
 1024 0 l 1,2,-1
 361 1042 l 1,3,-1
 361 0 l 1,4,-1
 180 0 l 1,5,-1
 180 1391 l 1,6,-1
 361 1391 l 1,7,-1
 1024 348 l 1,8,-1
 1024 1391 l 1,9,-1
 1205 1391 l 1,0,-1
EndSplineSet
EndChar

StartChar: O
Encoding: 79 79 50
Width: 1444
GlyphClass: 2
Flags: W
AnchorPoint: "Anchor-4" 727 0 basechar 0
AnchorPoint: "Anchor-3" 727 0 basechar 0
AnchorPoint: "Anchor-2" 727 0 basechar 0
AnchorPoint: "Anchor-1" 710 1409 basechar 0 2
AnchorPoint: "Anchor-0" 1263 1053 basechar 0
LayerCount: 2
Fore
SplineSet
435 1355.5 m 128,-1,1
 565 1409 565 1409 710 1409 c 0,2,3
 1105 1409 1105 1409 1290 1119 c 1,4,5
 1399 943 1399 943 1399 703 c 0,6,7
 1399 460 1399 460 1286 282 c 1,8,9
 1166 90 1166 90 962 20 c 0,10,11
 853 -18 853 -18 707.5 -18 c 128,-1,12
 562 -18 562 -18 431 37.5 c 128,-1,13
 300 93 300 93 216 190 c 1,14,15
 45 391 45 391 45 703 c 0,16,17
 45 1011 45 1011 221 1208 c 0,18,0
 305 1302 305 1302 435 1355.5 c 128,-1,1
992 1193 m 0,19,20
 880 1271 880 1271 726.5 1271 c 128,-1,21
 573 1271 573 1271 460 1196 c 0,22,23
 237 1047 237 1047 237 703 c 0,24,25
 237 354 237 354 458 201 c 0,26,27
 570 123 570 123 705 123 c 0,28,29
 954 123 954 123 1085 297 c 0,30,31
 1210 464 1210 464 1210 703 c 0,32,33
 1210 1040 1210 1040 992 1193 c 0,19,20
EndSplineSet
EndChar

StartChar: P
Encoding: 80 80 51
Width: 1083
GlyphClass: 2
Flags: W
AnchorPoint: "Anchor-4" 680 1270 basechar 0 21
AnchorPoint: "Anchor-3" 680 1270 basechar 0 21
AnchorPoint: "Anchor-2" 680 1270 basechar 0 21
AnchorPoint: "Anchor-1" 843 1124 basechar 0 19
AnchorPoint: "Anchor-0" 762 1197 basechar 0 20
LayerCount: 2
Fore
SplineSet
180 1372 m 1,0,1
 374 1409 374 1409 502.5 1409 c 128,-1,2
 631 1409 631 1409 722.5 1385.5 c 128,-1,3
 814 1362 814 1362 871.5 1323 c 128,-1,4
 929 1284 929 1284 966 1230 c 0,5,6
 1035 1130 1035 1130 1035 996 c 0,7,8
 1035 813 1035 813 895 694.5 c 128,-1,9
 755 576 755 576 531 576 c 2,10,-1
 361 576 l 1,11,-1
 361 0 l 1,12,-1
 180 0 l 1,13,-1
 180 1372 l 1,0,1
361 1252 m 1,14,-1
 361 716 l 1,15,-1
 427 716 l 2,16,17
 649 716 649 716 746 781.5 c 128,-1,18
 843 847 843 847 843 985.5 c 128,-1,19
 843 1124 843 1124 762 1197 c 0,20,21
 680 1270 680 1270 520 1270 c 0,22,23
 434 1270 434 1270 361 1252 c 1,14,-1
EndSplineSet
EndChar

StartChar: Q
Encoding: 81 81 52
Width: 1449
GlyphClass: 2
Flags: W
AnchorPoint: "Anchor-4" 727 0 basechar 0
AnchorPoint: "Anchor-3" 727 0 basechar 0
AnchorPoint: "Anchor-2" 727 0 basechar 0
AnchorPoint: "Anchor-1" 710 1409 basechar 0 4
AnchorPoint: "Anchor-0" 237 353 basechar 0 35
LayerCount: 2
Fore
SplineSet
91 984 m 0,0,1
 185 1252 185 1252 435 1356 c 0,2,3
 565 1409 565 1409 710 1409 c 0,4,5
 1105 1409 1105 1409 1290 1119 c 1,6,7
 1399 943 1399 943 1399 703 c 0,8,9
 1399 394 1399 394 1217 190 c 0,10,11
 1126 88 1126 88 1000 34 c 1,12,13
 1028 19 1028 19 1084.5 -15.5 c 128,-1,14
 1141 -50 1141 -50 1176 -70 c 0,15,16
 1272 -125 1272 -125 1372 -142 c 1,17,-1
 1319 -272 l 1,18,19
 1204 -253 1204 -253 1073 -171 c 0,20,21
 924 -79 924 -79 855 -51.5 c 128,-1,22
 786 -24 786 -24 721 -18 c 1,23,24
 333 -15 333 -15 155 276 c 1,25,26
 45 451 45 451 45 703 c 0,27,28
 45 855 45 855 91 984 c 0,0,1
992 1193 m 0,29,30
 880 1271 880 1271 726.5 1271 c 128,-1,31
 573 1271 573 1271 460 1196 c 0,32,33
 237 1047 237 1047 237 703 c 0,34,35
 237 354 237 354 458 201 c 0,36,37
 570 123 570 123 705 123 c 0,38,39
 954 123 954 123 1085 297 c 0,40,41
 1210 464 1210 464 1210 703 c 0,42,43
 1210 1040 1210 1040 992 1193 c 0,29,30
EndSplineSet
EndChar

StartChar: R
Encoding: 82 82 53
Width: 1045
GlyphClass: 2
Flags: W
AnchorPoint: "Anchor-4" 411 1270 basechar 0 15
AnchorPoint: "Anchor-3" 491 1270 basechar 0 14
AnchorPoint: "Anchor-2" 491 1270 basechar 0 14
AnchorPoint: "Anchor-1" 709 1202 basechar 0 22
AnchorPoint: "Anchor-0" 615 1270 basechar 0 23
LayerCount: 2
Fore
SplineSet
1079 0 m 1,0,-1
 878 0 l 1,1,-1
 361 628 l 1,2,-1
 361 0 l 1,3,-1
 180 0 l 1,4,-1
 180 1372 l 1,5,6
 367 1409 367 1409 500 1409 c 0,7,8
 732 1409 732 1409 863 1302.5 c 128,-1,9
 994 1196 994 1196 994 1031 c 128,-1,10
 994 866 994 866 876 757 c 256,11,12
 758 648 758 648 559 631 c 1,13,-1
 1079 0 l 1,0,-1
491 1270 m 0,14,15
 411 1270 411 1270 361 1252 c 1,16,-1
 361 768 l 1,17,-1
 386 768 l 2,18,19
 802 768 802 768 802 1024 c 0,20,21
 802 1133 802 1133 709 1202 c 1,22,23
 615 1270 615 1270 491 1270 c 0,14,15
EndSplineSet
EndChar

StartChar: S
Encoding: 83 83 54
Width: 1007
GlyphClass: 2
Flags: W
AnchorPoint: "Anchor-4" 911 519 basechar 0 44
AnchorPoint: "Anchor-3" 911 519 basechar 0 44
AnchorPoint: "Anchor-2" 911 519 basechar 0 44
AnchorPoint: "Anchor-1" 778 652 basechar 0 42
AnchorPoint: "Anchor-0" 810 619 basechar 0 43
LayerCount: 2
Fore
SplineSet
157 253 m 1,0,1
 185 233 185 233 208.5 214 c 128,-1,2
 232 195 232 195 262 178.5 c 128,-1,3
 292 162 292 162 324 150 c 0,4,5
 394 122 394 122 481 122 c 0,6,7
 627 122 627 122 682 193 c 0,8,9
 729 254 729 254 729 313.5 c 128,-1,10
 729 373 729 373 717 407 c 1,11,12
 694 466 694 466 625 518 c 1,13,14
 596 538 596 538 556 561 c 1,15,-1
 392 642 l 1,16,17
 300 692 300 692 252 739 c 128,-1,18
 204 786 204 786 180 826 c 0,19,20
 127 915 127 915 127 1057 c 128,-1,21
 127 1199 127 1199 230 1304 c 256,22,23
 333 1409 333 1409 498 1409 c 0,24,25
 603 1409 603 1409 686.5 1382 c 128,-1,26
 770 1355 770 1355 819 1317 c 1,27,-1
 781 1179 l 1,28,29
 662 1271 662 1271 511 1271 c 0,30,31
 416 1271 416 1271 362.5 1208 c 128,-1,32
 309 1145 309 1145 309 1046 c 0,33,34
 309 1001 309 1001 324 964 c 0,35,36
 349 898 349 898 428 846 c 1,37,38
 459 824 459 824 514 800 c 1,39,-1
 671 720 l 1,40,41
 713 697 713 697 745.5 674.5 c 128,-1,42
 778 652 778 652 810 620 c 0,43,44
 911 519 911 519 911 359.5 c 128,-1,45
 911 200 911 200 802 91 c 256,46,47
 693 -18 693 -18 518 -18 c 0,48,49
 326 -18 326 -18 202 50 c 0,50,51
 135 86 135 86 96 113 c 1,52,-1
 157 253 l 1,0,1
EndSplineSet
EndChar

StartChar: T
Encoding: 84 84 55
Width: 1183
GlyphClass: 2
Flags: W
AnchorPoint: "Anchor-4" 591 0 basechar 0
AnchorPoint: "Anchor-3" 591 0 basechar 0
AnchorPoint: "Anchor-2" 591 0 basechar 0
AnchorPoint: "Anchor-1" 591 1409 basechar 0
AnchorPoint: "Anchor-0" 1008 1053 basechar 0
LayerCount: 2
Fore
SplineSet
57 1391 m 1,0,-1
 1126 1391 l 1,1,-1
 1126 1252 l 1,2,-1
 682 1252 l 1,3,-1
 682 0 l 1,4,-1
 501 0 l 1,5,-1
 501 1252 l 1,6,-1
 57 1252 l 1,7,-1
 57 1391 l 1,0,-1
EndSplineSet
EndChar

StartChar: U
Encoding: 85 85 56
Width: 1310
GlyphClass: 2
Flags: W
AnchorPoint: "Anchor-4" 655 0 basechar 0
AnchorPoint: "Anchor-3" 655 0 basechar 0
AnchorPoint: "Anchor-2" 655 0 basechar 0
AnchorPoint: "Anchor-1" 180 438 basechar 0 2
AnchorPoint: "Anchor-0" 1048 1053 basechar 0
LayerCount: 2
Fore
SplineSet
681 -18 m 0,0,1
 180 -18 180 -18 180 438 c 2,2,-1
 180 1391 l 1,3,-1
 361 1391 l 1,4,-1
 361 486 l 2,5,6
 361 299 361 299 447 211 c 256,7,8
 533 123 533 123 674 123 c 0,9,10
 959 123 959 123 959 513 c 2,11,-1
 959 1391 l 1,12,-1
 1130 1391 l 1,13,-1
 1130 469 l 2,14,15
 1130 248 1130 248 1012 115 c 256,16,17
 894 -18 894 -18 681 -18 c 0,0,1
EndSplineSet
EndChar

StartChar: V
Encoding: 86 86 57
Width: 1328
GlyphClass: 2
Flags: W
AnchorPoint: "Anchor-4" 664 0 basechar 0
AnchorPoint: "Anchor-3" 664 0 basechar 0
AnchorPoint: "Anchor-2" 664 0 basechar 0
AnchorPoint: "Anchor-1" 664 1409 basechar 0
AnchorPoint: "Anchor-0" 1048 1053 basechar 0
LayerCount: 2
Fore
SplineSet
669 248 m 1,0,-1
 1093 1391 l 1,1,-1
 1261 1391 l 1,2,-1
 739 0 l 1,3,-1
 589 0 l 1,4,-1
 67 1391 l 1,5,-1
 245 1391 l 1,6,-1
 669 248 l 1,0,-1
EndSplineSet
EndChar

StartChar: W
Encoding: 87 87 58
Width: 2027
GlyphClass: 2
Flags: W
AnchorPoint: "Anchor-4" 1013 0 basechar 0
AnchorPoint: "Anchor-3" 1424 0 basechar 0
AnchorPoint: "Anchor-2" 1424 0 basechar 0
AnchorPoint: "Anchor-1" 1013 1409 basechar 0
AnchorPoint: "Anchor-0" 1772 1053 basechar 0
LayerCount: 2
Fore
SplineSet
1792 1391 m 1,0,-1
 1960 1391 l 1,1,-1
 1499 0 l 1,2,-1
 1349 0 l 1,3,-1
 1013 1014 l 1,4,-1
 677 0 l 1,5,-1
 527 0 l 1,6,-1
 67 1391 l 1,7,-1
 245 1391 l 1,8,-1
 607 248 l 1,9,-1
 970 1391 l 1,10,-1
 1067 1391 l 1,11,-1
 1429 248 l 1,12,-1
 1792 1391 l 1,0,-1
EndSplineSet
EndChar

StartChar: X
Encoding: 88 88 59
Width: 1288
GlyphClass: 2
Flags: W
AnchorPoint: "Anchor-4" 644 0 basechar 0
AnchorPoint: "Anchor-3" 1098 0 basechar 0
AnchorPoint: "Anchor-2" 1098 0 basechar 0
AnchorPoint: "Anchor-1" 644 1409 basechar 0
AnchorPoint: "Anchor-0" 892 1053 basechar 0
LayerCount: 2
Fore
SplineSet
108 1392 m 1,0,-1
 319 1392 l 1,1,-1
 662 854 l 1,2,-1
 1002 1391 l 1,3,-1
 1190 1391 l 1,4,-1
 756 706 l 1,5,-1
 1204 1 l 1,6,-1
 992 1 l 1,7,-1
 633 566 l 1,8,-1
 272 -5 l 1,9,-1
 84 -5 l 1,10,-1
 539 714 l 1,11,-1
 108 1392 l 1,0,-1
EndSplineSet
EndChar

StartChar: Y
Encoding: 89 89 60
Width: 1241
GlyphClass: 2
Flags: W
AnchorPoint: "Anchor-4" 620 0 basechar 0
AnchorPoint: "Anchor-3" 620 0 basechar 0
AnchorPoint: "Anchor-2" 620 0 basechar 0
AnchorPoint: "Anchor-1" 620 1409 basechar 0
AnchorPoint: "Anchor-0" 896 1053 basechar 0
LayerCount: 2
Fore
SplineSet
1014 1391 m 1,0,-1
 1182 1391 l 1,1,-1
 711 618 l 1,2,-1
 711 0 l 1,3,-1
 530 0 l 1,4,-1
 530 619 l 1,5,-1
 59 1391 l 1,6,-1
 237 1391 l 1,7,-1
 626 754 l 1,8,-1
 1014 1391 l 1,0,-1
EndSplineSet
EndChar

StartChar: Z
Encoding: 90 90 61
Width: 1259
GlyphClass: 2
Flags: W
LayerCount: 2
Fore
SplineSet
87 1391 m 1,0,-1
 1116 1391 l 1,1,-1
 320 139 l 1,2,-1
 1116 139 l 1,3,-1
 1116 -1 l 1,4,-1
 50 0 l 1,5,-1
 846 1252 l 1,6,-1
 87 1252 l 1,7,-1
 87 1391 l 1,0,-1
EndSplineSet
EndChar

StartChar: bracketleft
Encoding: 91 91 62
Width: 581
GlyphClass: 2
Flags: W
LayerCount: 2
Fore
SplineSet
100 -490 m 1,0,-1
 100 1475 l 1,1,-1
 522 1475 l 1,2,-1
 522 1347 l 1,3,-1
 261 1347 l 1,4,-1
 261 -362 l 1,5,-1
 522 -362 l 1,6,-1
 522 -490 l 1,7,-1
 100 -490 l 1,0,-1
EndSplineSet
EndChar

StartChar: backslash
Encoding: 92 92 63
Width: 645
GlyphClass: 2
Flags: W
LayerCount: 2
Fore
SplineSet
152 1475 m 1,0,-1
 621 0 l 1,1,-1
 493 0 l 1,2,-1
 24 1475 l 1,3,-1
 152 1475 l 1,0,-1
EndSplineSet
EndChar

StartChar: bracketright
Encoding: 93 93 64
Width: 581
GlyphClass: 2
Flags: W
LayerCount: 2
Fore
SplineSet
522 -490 m 1,0,-1
 100 -490 l 1,1,-1
 100 -362 l 1,2,-1
 361 -362 l 1,3,-1
 361 1347 l 1,4,-1
 100 1347 l 1,5,-1
 100 1475 l 1,6,-1
 522 1475 l 1,7,-1
 522 -490 l 1,0,-1
EndSplineSet
EndChar

StartChar: asciicircum
Encoding: 94 94 65
Width: 1085
GlyphClass: 2
Flags: W
LayerCount: 2
Fore
SplineSet
600 1409 m 1,0,-1
 1015 828 l 1,1,-1
 915 795 l 1,2,-1
 540 1310 l 1,3,-1
 165 795 l 1,4,-1
 65 828 l 1,5,-1
 480 1409 l 1,6,-1
 600 1409 l 1,0,-1
EndSplineSet
EndChar

StartChar: underscore
Encoding: 95 95 66
Width: 1048
GlyphClass: 2
Flags: W
LayerCount: 2
Fore
SplineSet
983 -297 m 1,0,-1
 65 -297 l 1,1,-1
 65 -188 l 1,2,-1
 983 -188 l 1,3,-1
 983 -297 l 1,0,-1
EndSplineSet
EndChar

StartChar: grave
Encoding: 96 96 67
Width: 491
GlyphClass: 2
Flags: W
LayerCount: 2
Fore
SplineSet
10 1475 m 1,0,-1
 198 1475 l 1,1,-1
 360 1100 l 1,2,-1
 249 1100 l 1,3,-1
 10 1475 l 1,0,-1
EndSplineSet
EndChar

StartChar: a
Encoding: 97 97 68
Width: 894
GlyphClass: 2
Flags: W
AnchorPoint: "Anchor-4" 611 746 basechar 0 39
AnchorPoint: "Anchor-3" 611 636 basechar 0 38
AnchorPoint: "Anchor-2" 720 0 basechar 0
AnchorPoint: "Anchor-1" 611 535 basechar 0 37
AnchorPoint: "Anchor-0" 774 828 basechar 0
LayerCount: 2
Fore
SplineSet
605 422 m 2,0,1
 237 422 237 422 237 239 c 0,2,3
 237 190 237 190 267.5 148 c 128,-1,4
 298 106 298 106 337 106 c 2,5,-1
 376 106 l 2,6,7
 596 106 596 106 611 337 c 1,8,-1
 611 422 l 1,9,-1
 605 422 l 2,0,1
145 893 m 1,10,11
 325 956 325 956 440 956 c 128,-1,12
 555 956 555 956 641 899 c 256,13,14
 727 842 727 842 756 730 c 0,15,16
 772 667 772 667 772 473 c 2,17,-1
 772 160 l 2,18,19
 772 72 772 72 786 0 c 1,20,-1
 624 0 l 1,21,22
 611 41 611 41 611 93 c 2,23,-1
 611 100 l 1,24,25
 586 70 586 70 556 48 c 0,26,27
 462 -21 462 -21 356 -21 c 0,28,29
 178 -21 178 -21 111 106 c 1,30,31
 76 169 76 169 76 235 c 0,32,33
 76 410 76 410 281 488 c 0,34,35
 404 535 404 535 593 535 c 2,36,-1
 611 535 l 1,37,-1
 611 636 l 2,38,39
 611 746 611 746 569 786 c 0,40,41
 520 832 520 832 406 832 c 128,-1,42
 292 832 292 832 153 768 c 1,43,-1
 145 893 l 1,10,11
EndSplineSet
EndChar

StartChar: b
Encoding: 98 98 69
Width: 1059
GlyphClass: 2
Flags: W
AnchorPoint: "Anchor-4" 555 0 basechar 0
AnchorPoint: "Anchor-3" 555 0 basechar 0
AnchorPoint: "Anchor-2" 555 0 basechar 0
AnchorPoint: "Anchor-1" 244 1475 basechar 0
AnchorPoint: "Anchor-0" 841 828 basechar 0
LayerCount: 2
Fore
SplineSet
594 828 m 0,0,1
 431 828 431 828 325 648 c 1,2,-1
 325 148 l 1,3,4
 383 111 383 111 480 111 c 0,5,6
 742 111 742 111 817 343 c 0,7,8
 838 411 838 411 838 496.5 c 128,-1,9
 838 582 838 582 816 650 c 1,10,11
 780 768 780 768 681 811 c 0,12,13
 640 828 640 828 594 828 c 0,0,1
457 928.5 m 128,-1,15
 524 956 524 956 604 956 c 0,16,17
 766 956 766 956 878 846 c 0,18,19
 934 791 934 791 966.5 697.5 c 128,-1,20
 999 604 999 604 999 496 c 0,21,22
 999 211 999 211 786 64 c 1,23,24
 665 -18 665 -18 526 -18 c 0,25,26
 323 -18 323 -18 164 80 c 1,27,-1
 164 1475 l 1,28,-1
 325 1475 l 1,29,-1
 325 828 l 1,30,14
 390 901 390 901 457 928.5 c 128,-1,15
EndSplineSet
EndChar

StartChar: c
Encoding: 99 99 70
Width: 888
GlyphClass: 2
Flags: W
AnchorPoint: "Anchor-4" 757 24 basechar 0 4
AnchorPoint: "Anchor-3" 633 -18 basechar 0 5
AnchorPoint: "Anchor-2" 633 -18 basechar 0 5
AnchorPoint: "Anchor-1" 774 190 basechar 0 2
AnchorPoint: "Anchor-0" 836 82 basechar 0 3
LayerCount: 2
Fore
SplineSet
549 111 m 2,0,1
 666 111 666 111 774 190 c 1,2,-1
 836 82 l 1,3,4
 757 24 757 24 695 3 c 128,-1,5
 633 -18 633 -18 508 -18 c 0,6,7
 302 -18 302 -18 181.5 115 c 128,-1,8
 61 248 61 248 61 469 c 256,9,10
 61 690 61 690 181.5 823 c 128,-1,11
 302 956 302 956 508 956 c 0,12,13
 633 956 633 956 695 935 c 128,-1,14
 757 914 757 914 836 856 c 1,15,-1
 774 748 l 1,16,17
 666 827 666 827 549 827 c 2,18,-1
 543 827 l 2,19,20
 397 827 397 827 309.5 722 c 128,-1,21
 222 617 222 617 222 469 c 256,22,23
 222 321 222 321 309.5 216 c 128,-1,24
 397 111 397 111 543 111 c 2,25,-1
 549 111 l 2,0,1
EndSplineSet
EndChar

StartChar: d
Encoding: 100 100 71
Width: 1063
GlyphClass: 2
Flags: W
AnchorPoint: "Anchor-4" 371 111 basechar 0 24
AnchorPoint: "Anchor-3" 371 111 basechar 0 24
AnchorPoint: "Anchor-2" 554 111 basechar 0 26
AnchorPoint: "Anchor-1" 296 204 basechar 0
AnchorPoint: "Anchor-0" 480 111 basechar 0 25
LayerCount: 2
Fore
SplineSet
465 -18 m 0,0,1
 349 -18 349 -18 255 46 c 256,2,3
 161 110 161 110 111 212.5 c 128,-1,4
 61 315 61 315 61 432 c 0,5,6
 61 665 61 665 196.5 810.5 c 128,-1,7
 332 956 332 956 533 956 c 0,8,9
 617 956 617 956 734 924 c 1,10,-1
 734 1475 l 1,11,-1
 899 1475 l 1,12,-1
 899 0 l 1,13,-1
 734 0 l 1,14,-1
 734 110 l 1,15,16
 621 -18 621 -18 465 -18 c 0,0,1
734 784 m 1,17,18
 651 828 651 828 570 828 c 0,19,20
 430 828 430 828 328 722 c 1,21,22
 222 609 222 609 222 453 c 128,-1,23
 222 297 222 297 296.5 204 c 128,-1,24
 371 111 371 111 480 111 c 0,25,26
 554 111 554 111 621 161.5 c 128,-1,27
 688 212 688 212 734 290 c 1,28,-1
 734 784 l 1,17,18
EndSplineSet
EndChar

StartChar: e
Encoding: 101 101 72
Width: 939
GlyphClass: 2
Flags: W
AnchorPoint: "Anchor-4" 848 460 basechar 0 24
AnchorPoint: "Anchor-3" 848 460 basechar 0 24
AnchorPoint: "Anchor-2" 872 520 basechar 0 23
AnchorPoint: "Anchor-1" 495 956 basechar 0
AnchorPoint: "Anchor-0" 773 828 basechar 0
LayerCount: 2
Fore
SplineSet
500 828 m 0,0,1
 361 828 361 828 292 744 c 0,2,3
 244 686 244 686 229 580 c 1,4,-1
 714 580 l 1,5,6
 705 689 705 689 649 759 c 1,7,8
 592 828 592 828 500 828 c 0,0,1
838 55 m 1,9,10
 730 -18 730 -18 546 -18 c 0,11,12
 313 -18 313 -18 187 115 c 256,13,14
 61 248 61 248 61 469 c 0,15,16
 61 757 61 757 248 886 c 1,17,18
 352 956 352 956 480 956 c 0,19,20
 678 956 678 956 780 822 c 1,21,22
 866 707 866 707 872 520 c 1,23,-1
 848 460 l 1,24,-1
 222 460 l 1,25,26
 224 294 224 294 311 202.5 c 128,-1,27
 398 111 398 111 543 111 c 0,28,29
 653 111 653 111 795 170 c 1,30,-1
 838 55 l 1,9,10
EndSplineSet
EndChar

StartChar: f
Encoding: 102 102 73
Width: 675
GlyphClass: 2
Flags: W
AnchorPoint: "Anchor-4" 612 938 basechar 0 15
AnchorPoint: "Anchor-3" 612 938 basechar 0 15
AnchorPoint: "Anchor-2" 612 938 basechar 0 15
AnchorPoint: "Anchor-1" 383 810 basechar 0 17
AnchorPoint: "Anchor-0" 612 810 basechar 0 16
LayerCount: 2
Fore
SplineSet
222 1020 m 2,0,1
 222 1464 222 1464 573 1464 c 0,2,3
 683 1464 683 1464 754 1430 c 0,4,5
 777 1418 777 1418 807 1398.5 c 128,-1,6
 837 1379 837 1379 846 1374 c 1,7,-1
 802 1247 l 1,8,9
 761 1283 761 1283 699.5 1309.5 c 128,-1,10
 638 1336 638 1336 569 1336 c 128,-1,11
 500 1336 500 1336 441.5 1264 c 128,-1,12
 383 1192 383 1192 383 1107 c 2,13,-1
 383 938 l 1,14,-1
 612 938 l 1,15,-1
 612 810 l 1,16,-1
 383 810 l 1,17,-1
 383 0 l 1,18,-1
 222 0 l 1,19,-1
 222 810 l 1,20,-1
 56 810 l 1,21,-1
 56 938 l 1,22,-1
 222 938 l 1,23,-1
 222 1020 l 2,0,1
EndSplineSet
EndChar

StartChar: g
Encoding: 103 103 74
Width: 980
GlyphClass: 2
Flags: W
AnchorPoint: "Anchor-4" 495 -492 basechar 0
AnchorPoint: "Anchor-3" 777 -225 basechar 0 69
AnchorPoint: "Anchor-2" 777 -225 basechar 0 69
AnchorPoint: "Anchor-1" 777 -156 basechar 0 70
AnchorPoint: "Anchor-0" 777 -85 basechar 0 71
LayerCount: 2
Fore
SplineSet
492 827 m 0,0,1
 334 827 334 827 290 680 c 0,2,3
 278 642 278 642 278 602 c 0,4,5
 278 519 278 519 329 466.5 c 128,-1,6
 380 414 380 414 492 414 c 0,7,8
 650 414 650 414 694 550 c 0,9,10
 706 585 706 585 706 620 c 0,11,12
 706 693 706 693 659 756 c 1,13,14
 604 827 604 827 492 827 c 0,0,1
805 810 m 1,15,16
 867 722 867 722 867 621 c 0,17,18
 867 457 867 457 745 360 c 0,19,20
 652 285 652 285 492 285 c 0,21,22
 406 285 406 285 338 303 c 1,23,24
 279 258 279 258 279 201 c 0,25,26
 279 122 279 122 536 122 c 0,27,28
 832 122 832 122 913 -21 c 0,29,30
 938 -65 938 -65 938 -121 c 0,31,32
 938 -244 938 -244 869 -329 c 0,33,34
 737 -492 737 -492 424 -492 c 0,35,36
 265 -492 265 -492 165.5 -428 c 128,-1,37
 66 -364 66 -364 66 -241 c 0,38,39
 66 -116 66 -116 168 -33 c 0,40,41
 198 -9 198 -9 242 18 c 1,42,43
 118 60 118 60 118 170 c 0,44,45
 118 211 118 211 146 262 c 128,-1,46
 174 313 174 313 231 353 c 1,47,48
 120 433 120 433 117 598 c 1,49,-1
 117 604 l 2,50,51
 117 733 117 733 198 837 c 0,52,53
 240 891 240 891 316 923.5 c 128,-1,54
 392 956 392 956 477.5 956 c 128,-1,55
 563 956 563 956 624 938 c 1,56,-1
 938 938 l 1,57,-1
 938 810 l 1,58,-1
 805 810 l 1,15,16
396 -6 m 1,59,60
 299 -60 299 -60 266 -105 c 0,61,62
 227 -157 227 -157 227 -215 c 128,-1,63
 227 -273 227 -273 262 -306 c 0,64,65
 322 -363 322 -363 454 -363 c 0,66,67
 636 -363 636 -363 728 -273 c 0,68,69
 777 -225 777 -225 777 -156 c 0,70,71
 777 -85 777 -85 721 -53 c 1,72,73
 661 -21 661 -21 605 -15 c 0,74,75
 529 -7 529 -7 473.5 -7 c 128,-1,76
 418 -7 418 -7 396 -6 c 1,59,60
EndSplineSet
EndChar

StartChar: h
Encoding: 104 104 75
Width: 1121
GlyphClass: 2
Flags: W
AnchorPoint: "Anchor-4" 555 0 basechar 0
AnchorPoint: "Anchor-3" 876 0 basechar 0
AnchorPoint: "Anchor-2" 876 0 basechar 0
AnchorPoint: "Anchor-1" 325 578 basechar 0 8
AnchorPoint: "Anchor-0" 325 600 basechar 0 7
LayerCount: 2
Fore
SplineSet
796 507 m 2,0,1
 796 828 796 828 566 828 c 0,2,3
 507 828 507 828 458 796 c 0,4,5
 383 748 383 748 340 638 c 0,6,7
 325 600 325 600 325 578 c 2,8,-1
 325 0 l 1,9,-1
 164 0 l 1,10,-1
 164 1475 l 1,11,-1
 325 1475 l 1,12,-1
 325 766 l 1,13,14
 415 956 415 956 618 956 c 0,15,16
 700 956 700 956 765.5 919.5 c 128,-1,17
 831 883 831 883 868 841 c 0,18,19
 957 742 957 742 957 563 c 2,20,-1
 957 0 l 1,21,-1
 796 0 l 1,22,-1
 796 507 l 2,0,1
EndSplineSet
EndChar

StartChar: k
Encoding: 107 107 78
Width: 935
GlyphClass: 2
Flags: W
AnchorPoint: "Anchor-4" 555 0 basechar 0
AnchorPoint: "Anchor-3" 555 0 basechar 0
AnchorPoint: "Anchor-2" 555 0 basechar 0
AnchorPoint: "Anchor-1" 244 1475 basechar 0
AnchorPoint: "Anchor-0" 632 828 basechar 0
LayerCount: 2
Fore
SplineSet
325 0 m 1,0,-1
 164 0 l 1,1,-1
 164 1475 l 1,2,-1
 325 1475 l 1,3,-1
 325 624 l 1,4,-1
 644 938 l 1,5,-1
 844 938 l 1,6,-1
 458 562 l 1,7,-1
 913 0 l 1,8,-1
 714 0 l 1,9,-1
 325 479 l 1,10,-1
 325 0 l 1,0,-1
EndSplineSet
EndChar

StartChar: l
Encoding: 108 108 79
Width: 593
GlyphClass: 2
Flags: W
AnchorPoint: "Anchor-4" 344 0 basechar 0
AnchorPoint: "Anchor-3" 344 0 basechar 0
AnchorPoint: "Anchor-2" 344 0 basechar 0
AnchorPoint: "Anchor-1" 244 1475 basechar 0
AnchorPoint: "Anchor-0" 244 828 basechar 0
LayerCount: 2
Fore
SplineSet
372 -18 m 0,0,1
 164 -18 164 -18 164 246 c 2,2,-1
 164 1475 l 1,3,-1
 325 1475 l 1,4,-1
 325 256 l 2,5,6
 325 179 325 179 355.5 145.5 c 128,-1,7
 386 112 386 112 412 112 c 128,-1,8
 438 112 438 112 526 120 c 1,9,-1
 539 3 l 1,10,11
 439 -18 439 -18 372 -18 c 0,0,1
EndSplineSet
EndChar

StartChar: m
Encoding: 109 109 80
Width: 1645
GlyphClass: 2
Flags: W
AnchorPoint: "Anchor-4" 381 742 basechar 0 4
AnchorPoint: "Anchor-3" 325 549 basechar 0 7
AnchorPoint: "Anchor-2" 325 549 basechar 0 7
AnchorPoint: "Anchor-1" 356 680 basechar 0 5
AnchorPoint: "Anchor-0" 325 617 basechar 0 6
LayerCount: 2
Fore
SplineSet
747 469 m 2,0,1
 747 828 747 828 533 828 c 0,2,3
 475 828 475 828 428 785 c 128,-1,4
 381 742 381 742 356 680 c 1,5,6
 325 617 325 617 325 549 c 2,7,-1
 325 0 l 1,8,-1
 164 0 l 1,9,-1
 164 938 l 1,10,-1
 325 938 l 1,11,-1
 325 789 l 1,12,13
 356 862 356 862 416.5 909 c 128,-1,14
 477 956 477 956 567 956 c 0,15,16
 793 956 793 956 867 731 c 1,17,18
 946 956 946 956 1145 956 c 0,19,20
 1310 956 1310 956 1395.5 833 c 128,-1,21
 1481 710 1481 710 1481 469 c 2,22,-1
 1481 1 l 1,23,-1
 1325 0 l 1,24,-1
 1325 469 l 2,25,26
 1325 828 1325 828 1111 828 c 0,27,28
 1053 828 1053 828 1006 785 c 128,-1,29
 959 742 959 742 934 680 c 1,30,31
 903 617 903 617 903 549 c 2,32,-1
 903 0 l 1,33,-1
 747 0 l 1,34,-1
 747 469 l 2,0,1
EndSplineSet
EndChar

StartChar: n
Encoding: 110 110 81
Width: 1121
GlyphClass: 2
Flags: W
AnchorPoint: "Anchor-4" 957 741 basechar 0 19
AnchorPoint: "Anchor-3" 957 563 basechar 0 20
AnchorPoint: "Anchor-2" 957 563 basechar 0 20
AnchorPoint: "Anchor-1" 555 956 basechar 0
AnchorPoint: "Anchor-0" 795 828 basechar 0
LayerCount: 2
Fore
SplineSet
796 507 m 2,0,1
 796 828 796 828 566 828 c 0,2,3
 507 828 507 828 458 796 c 0,4,5
 383 748 383 748 340 638 c 0,6,7
 325 600 325 600 325 578 c 2,8,-1
 325 0 l 1,9,-1
 164 0 l 1,10,-1
 164 938 l 1,11,-1
 325 938 l 1,12,-1
 325 766 l 1,13,14
 415 956 415 956 618 956 c 0,15,16
 700 956 700 956 765.5 919.5 c 128,-1,17
 831 883 831 883 868 841 c 0,18,19
 957 742 957 742 957 563 c 2,20,-1
 957 0 l 1,21,-1
 796 0 l 1,22,-1
 796 507 l 2,0,1
EndSplineSet
EndChar

StartChar: o
Encoding: 111 111 82
Width: 1012
GlyphClass: 2
Flags: W
AnchorPoint: "Anchor-4" 951 469 basechar 0 27
AnchorPoint: "Anchor-3" 951 469 basechar 0 27
AnchorPoint: "Anchor-2" 951 469 basechar 0 27
AnchorPoint: "Anchor-1" 506 956 basechar 0
AnchorPoint: "Anchor-0" 773 828 basechar 0
LayerCount: 2
Fore
SplineSet
222 469 m 0,0,1
 222 372 222 372 246.5 299.5 c 128,-1,2
 271 227 271 227 312.5 187.5 c 128,-1,3
 354 148 354 148 402.5 129.5 c 128,-1,4
 451 111 451 111 506 111 c 0,5,6
 618 111 618 111 699 188 c 0,7,8
 788 273 788 273 788 469 c 0,9,10
 788 664 788 664 699 751 c 1,11,12
 617 827 617 827 506 827 c 0,13,14
 393 827 393 827 313 751 c 0,15,16
 222 664 222 664 222 469 c 0,0,1
61 469 m 0,17,18
 61 772 61 772 256 891 c 0,19,20
 364 956 364 956 506 956 c 0,21,22
 647 956 647 956 757 891 c 1,23,24
 815 855 815 855 858 801 c 1,25,26
 951 679 951 679 951 469 c 0,27,28
 951 165 951 165 757 48 c 0,29,30
 649 -18 649 -18 506 -18 c 0,31,32
 362 -18 362 -18 256 48 c 1,33,34
 197 83 197 83 154 138 c 0,35,36
 61 257 61 257 61 469 c 0,17,18
EndSplineSet
EndChar

StartChar: p
Encoding: 112 112 83
Width: 1063
GlyphClass: 2
Flags: W
AnchorPoint: "Anchor-4" 164 -492 basechar 0 25
AnchorPoint: "Anchor-3" 164 -492 basechar 0 25
AnchorPoint: "Anchor-2" 164 -492 basechar 0 25
AnchorPoint: "Anchor-1" 329 14 basechar 0 23
AnchorPoint: "Anchor-0" 329 -492 basechar 0 24
LayerCount: 2
Fore
SplineSet
329 154 m 1,0,1
 409 110 409 110 492 110 c 0,2,3
 634 110 634 110 735 217 c 0,4,5
 841 328 841 328 841 484.5 c 128,-1,6
 841 641 841 641 767 734 c 0,7,8
 692 827 692 827 583 827 c 0,9,10
 509 827 509 827 442 776.5 c 128,-1,11
 375 726 375 726 329 648 c 1,12,-1
 329 154 l 1,0,1
598 956 m 0,13,14
 714 956 714 956 808 892 c 256,15,16
 902 828 902 828 952 725.5 c 128,-1,17
 1002 623 1002 623 1002 506 c 0,18,19
 1002 273 1002 273 866.5 127.5 c 128,-1,20
 731 -18 731 -18 530 -18 c 0,21,22
 446 -18 446 -18 329 14 c 1,23,-1
 329 -492 l 1,24,-1
 164 -492 l 1,25,-1
 164 938 l 1,26,-1
 329 938 l 1,27,-1
 329 828 l 1,28,29
 442 956 442 956 598 956 c 0,13,14
EndSplineSet
EndChar

StartChar: q
Encoding: 113 113 84
Width: 1060
GlyphClass: 2
Flags: W
AnchorPoint: "Anchor-4" 244 595 basechar 0 24
AnchorPoint: "Anchor-3" 244 595 basechar 0 24
AnchorPoint: "Anchor-2" 244 595 basechar 0 24
AnchorPoint: "Anchor-1" 555 956 basechar 0
AnchorPoint: "Anchor-0" 816 828 basechar 0
LayerCount: 2
Fore
SplineSet
603 9.5 m 128,-1,1
 536 -18 536 -18 456 -18 c 0,2,3
 294 -18 294 -18 182 92 c 0,4,5
 126 147 126 147 93.5 240.5 c 128,-1,6
 61 334 61 334 61 442 c 0,7,8
 61 729 61 729 275 874 c 1,9,10
 394 956 394 956 534 956 c 0,11,12
 737 956 737 956 896 858 c 1,13,-1
 896 -492 l 1,14,-1
 735 -492 l 1,15,-1
 735 110 l 1,16,0
 670 37 670 37 603 9.5 c 128,-1,1
464 110 m 0,17,18
 628 110 628 110 735 290 c 1,19,-1
 735 790 l 1,20,21
 677 827 677 827 580 827 c 0,22,23
 316 827 316 827 244 595 c 0,24,25
 222 527 222 527 222 442 c 128,-1,26
 222 357 222 357 243.5 288.5 c 128,-1,27
 265 220 265 220 301 182 c 0,28,29
 371 110 371 110 464 110 c 0,17,18
EndSplineSet
EndChar

StartChar: r
Encoding: 114 114 85
Width: 830
GlyphClass: 2
Flags: W
AnchorPoint: "Anchor-4" 330 601 basechar 0 17
AnchorPoint: "Anchor-3" 330 601 basechar 0 17
AnchorPoint: "Anchor-2" 330 601 basechar 0 17
AnchorPoint: "Anchor-1" 325 534 basechar 0 18
AnchorPoint: "Anchor-0" 325 0 basechar 0 19
LayerCount: 2
Fore
SplineSet
164 0 m 1,0,-1
 164 938 l 1,1,-1
 325 938 l 1,2,-1
 325 766 l 1,3,4
 361 844 361 844 427.5 900 c 128,-1,5
 494 956 494 956 578.5 956 c 128,-1,6
 663 956 663 956 717.5 926.5 c 128,-1,7
 772 897 772 897 790 864 c 1,8,-1
 722 762 l 1,9,10
 708 780 708 780 695 792 c 0,11,12
 658 828 658 828 586 828 c 128,-1,13
 514 828 514 828 456 782 c 0,14,15
 398 735 398 735 364 668 c 256,16,17
 330 601 330 601 325 534 c 1,18,-1
 325 0 l 1,19,-1
 164 0 l 1,0,-1
EndSplineSet
EndChar

StartChar: s
Encoding: 115 115 86
Width: 782
GlyphClass: 2
Flags: W
AnchorPoint: "Anchor-4" 400 0 basechar 0
AnchorPoint: "Anchor-3" 400 0 basechar 0
AnchorPoint: "Anchor-2" 400 0 basechar 0
AnchorPoint: "Anchor-1" 390 404 basechar 0 4
AnchorPoint: "Anchor-0" 292 438 basechar 0 5
LayerCount: 2
Fore
SplineSet
382 111 m 0,0,1
 555 111 555 111 555 260 c 0,2,3
 555 350 555 350 390 404 c 1,4,-1
 292 438 l 2,5,6
 187 475 187 475 136.5 543.5 c 128,-1,7
 86 612 86 612 86 705.5 c 128,-1,8
 86 799 86 799 173 877.5 c 128,-1,9
 260 956 260 956 396 956 c 0,10,11
 486 956 486 956 556 932.5 c 128,-1,12
 626 909 626 909 664 879 c 1,13,-1
 607 759 l 1,14,15
 576 784 576 784 519 806 c 128,-1,16
 462 828 462 828 396.5 828 c 128,-1,17
 331 828 331 828 289 789 c 256,18,19
 247 750 247 750 247 702 c 128,-1,20
 247 654 247 654 279 622 c 256,21,22
 311 590 311 590 408 556 c 2,23,-1
 506 522 l 2,24,25
 613 485 613 485 665 425 c 1,26,27
 716 364 716 364 716 249 c 128,-1,28
 716 134 716 134 628 58 c 256,29,30
 540 -18 540 -18 388 -18 c 0,31,32
 307 -18 307 -18 232.5 -1.5 c 128,-1,33
 158 15 158 15 66 68 c 1,34,-1
 124 192 l 1,35,36
 201 146 201 146 255 128.5 c 128,-1,37
 309 111 309 111 382 111 c 0,0,1
EndSplineSet
EndChar

StartChar: t
Encoding: 116 116 87
Width: 669
GlyphClass: 2
Flags: W
AnchorPoint: "Anchor-4" 174 938 basechar 0 6
AnchorPoint: "Anchor-3" 174 938 basechar 0 6
AnchorPoint: "Anchor-2" 174 938 basechar 0 6
AnchorPoint: "Anchor-1" 174 1128 basechar 0 7
AnchorPoint: "Anchor-0" 510 828 basechar 0
LayerCount: 2
Fore
SplineSet
412 -18 m 0,0,1
 174 -18 174 -18 174 246 c 2,2,-1
 174 810 l 1,3,-1
 8 810 l 1,4,-1
 8 938 l 1,5,-1
 174 938 l 1,6,-1
 174 1128 l 1,7,-1
 335 1188 l 1,8,-1
 335 938 l 1,9,-1
 564 938 l 1,10,-1
 564 810 l 1,11,-1
 335 810 l 1,12,-1
 335 256 l 2,13,14
 335 179 335 179 374 145.5 c 128,-1,15
 413 112 413 112 461 112 c 0,16,17
 554 112 554 112 606 128 c 1,18,-1
 626 15 l 1,19,20
 534 -18 534 -18 412 -18 c 0,0,1
EndSplineSet
EndChar

StartChar: u
Encoding: 117 117 88
Width: 1121
GlyphClass: 2
Flags: W
AnchorPoint: "Anchor-4" 355 18 basechar 0
AnchorPoint: "Anchor-3" 215 139 basechar 0 5
AnchorPoint: "Anchor-2" 215 139 basechar 0 5
AnchorPoint: "Anchor-1" 290 55 basechar 0 4
AnchorPoint: "Anchor-0" 252 97 basechar 0
LayerCount: 2
Fore
SplineSet
796 172 m 1,0,1
 706 -18 706 -18 503 -18 c 0,2,3
 421 -18 421 -18 355.5 18.5 c 128,-1,4
 290 55 290 55 252.5 97 c 128,-1,5
 215 139 215 139 190 211 c 0,6,7
 164 283 164 283 164 375 c 2,8,-1
 164 938 l 1,9,-1
 325 938 l 1,10,-1
 325 431 l 2,11,12
 325 110 325 110 555 110 c 0,13,14
 614 110 614 110 663 142 c 0,15,16
 738 190 738 190 781 300 c 0,17,18
 796 338 796 338 796 360 c 2,19,-1
 796 938 l 1,20,-1
 957 938 l 1,21,-1
 957 0 l 1,22,-1
 796 0 l 1,23,-1
 796 172 l 1,0,1
EndSplineSet
EndChar

StartChar: v
Encoding: 118 118 89
Width: 984
GlyphClass: 2
Flags: W
AnchorPoint: "Anchor-4" 492 0 basechar 0
AnchorPoint: "Anchor-3" 492 0 basechar 0
AnchorPoint: "Anchor-2" 492 0 basechar 0
AnchorPoint: "Anchor-1" 492 956 basechar 0
AnchorPoint: "Anchor-0" 846 828 basechar 0
LayerCount: 2
Fore
SplineSet
801 938 m 1,0,-1
 963 938 l 1,1,-1
 546 0 l 1,2,-1
 440 0 l 1,3,-1
 21 938 l 1,4,-1
 194 938 l 1,5,-1
 498 266 l 1,6,-1
 801 938 l 1,0,-1
EndSplineSet
EndChar

StartChar: w
Encoding: 119 119 90
Width: 1512
GlyphClass: 2
Flags: W
AnchorPoint: "Anchor-4" 756 0 basechar 0
AnchorPoint: "Anchor-3" 1068 0 basechar 0
AnchorPoint: "Anchor-2" 1068 0 basechar 0
AnchorPoint: "Anchor-1" 756 956 basechar 0
AnchorPoint: "Anchor-0" 1362 828 basechar 0
LayerCount: 2
Fore
SplineSet
1329 938 m 1,0,-1
 1491 938 l 1,1,-1
 1124 0 l 1,2,-1
 1020 0 l 1,3,-1
 756 671 l 1,4,-1
 494 0 l 1,5,-1
 390 0 l 1,6,-1
 21 938 l 1,7,-1
 194 938 l 1,8,-1
 447 266 l 1,9,-1
 699 938 l 1,10,-1
 824 938 l 1,11,-1
 1077 266 l 1,12,-1
 1329 938 l 1,0,-1
EndSplineSet
EndChar

StartChar: x
Encoding: 120 120 91
Width: 945
GlyphClass: 2
Flags: W
AnchorPoint: "Anchor-4" 472 0 basechar 0
AnchorPoint: "Anchor-3" 790 0 basechar 0
AnchorPoint: "Anchor-2" 790 0 basechar 0
AnchorPoint: "Anchor-1" 472 956 basechar 0
AnchorPoint: "Anchor-0" 738 828 basechar 0
LayerCount: 2
Fore
SplineSet
61 938 m 1,0,-1
 247 938 l 1,1,-1
 482 592 l 1,2,-1
 726 935 l 1,3,-1
 898 935 l 1,4,-1
 562 474 l 1,5,-1
 883 0 l 1,6,-1
 697 0 l 1,7,-1
 463 345 l 1,8,-1
 218 0 l 1,9,-1
 46 0 l 1,10,-1
 383 463 l 1,11,-1
 61 938 l 1,0,-1
EndSplineSet
EndChar

StartChar: y
Encoding: 121 121 92
Width: 1027
GlyphClass: 2
Flags: W
AnchorPoint: "Anchor-4" 515 -492 basechar 0
AnchorPoint: "Anchor-3" 406 -48 basechar 0 7
AnchorPoint: "Anchor-2" 406 -48 basechar 0 7
AnchorPoint: "Anchor-1" 515 956 basechar 0
AnchorPoint: "Anchor-0" 880 828 basechar 0
LayerCount: 2
Fore
SplineSet
57 -322 m 1,0,1
 110 -367 110 -367 146 -367 c 0,2,3
 207 -367 207 -367 253 -313 c 1,4,5
 316 -242 316 -242 387 -89 c 0,6,7
 406 -48 406 -48 433 11 c 1,8,-1
 24 938 l 1,9,-1
 197 938 l 1,10,-1
 520 207 l 1,11,-1
 844 938 l 1,12,-1
 1006 938 l 1,13,-1
 592 18 l 1,14,15
 424 -368 424 -368 304 -454 c 0,16,17
 244 -496 244 -496 157 -496 c 128,-1,18
 70 -496 70 -496 -1 -420 c 1,19,-1
 57 -322 l 1,0,1
EndSplineSet
EndChar

StartChar: z
Encoding: 122 122 93
Width: 972
GlyphClass: 2
Flags: W
AnchorPoint: "Anchor-4" 508 0 basechar 0
AnchorPoint: "Anchor-3" 820 0 basechar 0
AnchorPoint: "Anchor-2" 820 0 basechar 0
AnchorPoint: "Anchor-1" 508 956 basechar 0
AnchorPoint: "Anchor-0" 738 828 basechar 0
LayerCount: 2
Fore
SplineSet
111 938 m 1,0,-1
 889 938 l 1,1,-1
 340 128 l 1,2,-1
 905 128 l 1,3,-1
 905 0 l 1,4,-1
 67 0 l 1,5,-1
 616 810 l 1,6,-1
 111 810 l 1,7,-1
 111 938 l 1,0,-1
EndSplineSet
EndChar

StartChar: braceleft
Encoding: 123 123 94
Width: 667
GlyphClass: 2
Flags: W
LayerCount: 2
Fore
SplineSet
214 492 m 1,0,1
 281 470 281 470 320 437 c 0,2,3
 407 365 407 365 407 174 c 0,4,5
 407 114 407 114 395 -12 c 128,-1,6
 383 -138 383 -138 383 -166 c 128,-1,7
 383 -194 383 -194 387.5 -223.5 c 128,-1,8
 392 -253 392 -253 406 -293 c 0,9,10
 436 -374 436 -374 546 -441 c 1,11,-1
 520 -522 l 1,12,13
 222 -441 222 -441 222 -152 c 0,14,15
 222 -76 222 -76 234 31.5 c 128,-1,16
 246 139 246 139 246 192.5 c 128,-1,17
 246 246 246 246 226 302 c 128,-1,18
 206 358 206 358 176 388 c 0,19,20
 116 447 116 447 53 447 c 1,21,-1
 53 537 l 1,22,23
 116 537 116 537 176 596 c 0,24,25
 246 665 246 665 246 810 c 0,26,27
 246 845 246 845 234 952.5 c 128,-1,28
 222 1060 222 1060 222 1136 c 0,29,30
 222 1425 222 1425 520 1506 c 1,31,-1
 546 1425 l 1,32,33
 436 1358 436 1358 406 1277 c 1,34,35
 383 1212 383 1212 383 1167 c 128,-1,36
 383 1122 383 1122 395 996 c 128,-1,37
 407 870 407 870 407 789.5 c 128,-1,38
 407 709 407 709 383.5 644.5 c 128,-1,39
 360 580 360 580 320.5 547 c 128,-1,40
 281 514 281 514 214 492 c 1,0,1
EndSplineSet
EndChar

StartChar: bar
Encoding: 124 124 95
Width: 310
GlyphClass: 2
Flags: W
LayerCount: 2
Fore
SplineSet
210 1477 m 1,0,-1
 210 -488 l 1,1,-1
 100 -488 l 1,2,-1
 100 1477 l 1,3,-1
 210 1477 l 1,0,-1
EndSplineSet
EndChar

StartChar: braceright
Encoding: 125 125 96
Width: 667
GlyphClass: 2
Flags: W
LayerCount: 2
Fore
SplineSet
453 492 m 1,0,1
 386 514 386 514 346 547 c 0,2,3
 260 619 260 619 260 810 c 0,4,5
 260 870 260 870 272 996 c 128,-1,6
 284 1122 284 1122 284 1150 c 128,-1,7
 284 1178 284 1178 279.5 1207.5 c 128,-1,8
 275 1237 275 1237 260 1277 c 0,9,10
 231 1358 231 1358 121 1425 c 1,11,-1
 147 1506 l 1,12,13
 445 1425 445 1425 445 1136 c 0,14,15
 445 1060 445 1060 433 952.5 c 128,-1,16
 421 845 421 845 421 791.5 c 128,-1,17
 421 738 421 738 441 682 c 128,-1,18
 461 626 461 626 492 596 c 0,19,20
 551 537 551 537 614 537 c 1,21,-1
 614 447 l 1,22,23
 551 447 551 447 492 388 c 1,24,25
 421 319 421 319 421 174 c 0,26,27
 421 139 421 139 433 31.5 c 128,-1,28
 445 -76 445 -76 445 -152 c 0,29,30
 445 -441 445 -441 147 -522 c 1,31,-1
 121 -441 l 1,32,33
 231 -374 231 -374 260 -293 c 0,34,35
 284 -228 284 -228 284 -183 c 128,-1,36
 284 -138 284 -138 272 -12 c 128,-1,37
 260 114 260 114 260 194.5 c 128,-1,38
 260 275 260 275 283.5 339.5 c 128,-1,39
 307 404 307 404 346.5 437 c 128,-1,40
 386 470 386 470 453 492 c 1,0,1
EndSplineSet
EndChar

StartChar: asciitilde
Encoding: 126 126 97
Width: 1144
GlyphClass: 2
Flags: W
LayerCount: 2
Fore
SplineSet
167 423 m 1,0,-1
 59 489 l 1,1,2
 205 695 205 695 375 695 c 0,3,4
 437 695 437 695 512.5 669 c 128,-1,5
 588 643 588 643 660 617 c 128,-1,6
 732 591 732 591 785 591 c 0,7,8
 893 591 893 591 978 699 c 1,9,-1
 1086 633 l 1,10,11
 940 427 940 427 770 427 c 0,12,13
 708 427 708 427 632.5 453 c 128,-1,14
 557 479 557 479 485 505 c 128,-1,15
 413 531 413 531 360 531 c 0,16,17
 252 531 252 531 167 423 c 1,0,-1
EndSplineSet
EndChar

StartChar: exclamdown
Encoding: 161 161 99
Width: 442
GlyphClass: 2
Flags: W
LayerCount: 2
Fore
SplineSet
339 946 m 256,0,1
 339 896 339 896 304.5 860.5 c 128,-1,2
 270 825 270 825 221 825 c 256,3,4
 172 825 172 825 137.5 860.5 c 128,-1,5
 103 896 103 896 103 946 c 256,6,7
 103 996 103 996 137.5 1031.5 c 128,-1,8
 172 1067 172 1067 221 1067 c 256,9,10
 270 1067 270 1067 304.5 1031.5 c 128,-1,11
 339 996 339 996 339 946 c 256,0,1
341 -343 m 1,12,-1
 101 -343 l 1,13,-1
 165 589 l 1,14,-1
 257 589 l 1,15,-1
 341 -343 l 1,12,-1
EndSplineSet
EndChar

StartChar: sterling
Encoding: 163 163 100
Width: 1052
GlyphClass: 2
Flags: W
LayerCount: 2
Fore
SplineSet
361 867 m 2,0,1
 361 786 361 786 416 672 c 1,2,-1
 785 672 l 1,3,-1
 785 563 l 1,4,-1
 467 563 l 1,5,6
 489 505 489 505 489 431.5 c 128,-1,7
 489 358 489 358 452.5 294 c 128,-1,8
 416 230 416 230 336 153 c 1,9,10
 458 200 458 200 574 200 c 0,11,12
 778 200 778 200 976 93 c 1,13,-1
 896 -18 l 1,14,15
 720 71 720 71 570 71 c 0,16,17
 429 71 429 71 302 26 c 0,18,19
 266 13 266 13 189 -18 c 1,20,-1
 129 111 l 1,21,22
 208 170 208 170 268 250.5 c 128,-1,23
 328 331 328 331 328 410 c 128,-1,24
 328 489 328 489 299 563 c 1,25,-1
 156 563 l 1,26,-1
 156 672 l 1,27,-1
 250 672 l 1,28,29
 200 781 200 781 200 869 c 0,30,31
 200 1002 200 1002 297.5 1090 c 128,-1,32
 395 1178 395 1178 552 1178 c 0,33,34
 746 1178 746 1178 857 1101 c 1,35,-1
 821 973 l 1,36,37
 709 1049 709 1049 564 1049 c 0,38,39
 480 1049 480 1049 421 1001 c 128,-1,40
 362 953 362 953 361 874 c 1,41,-1
 361 867 l 2,0,1
EndSplineSet
EndChar

StartChar: currency
Encoding: 164 164 101
Width: 1130
GlyphClass: 2
Flags: W
LayerCount: 2
Fore
SplineSet
454 504 m 256,1,2
 454 458 454 458 486.5 425.5 c 128,-1,3
 519 393 519 393 565 393 c 256,4,5
 611 393 611 393 643.5 425.5 c 128,-1,6
 676 458 676 458 676 504 c 256,7,8
 676 550 676 550 643.5 582.5 c 128,-1,9
 611 615 611 615 565 615 c 256,10,11
 519 615 519 615 486.5 582.5 c 128,-1,0
 454 550 454 550 454 504 c 256,1,2
375 390 m 1,12,13
 343 442 343 442 343 503.5 c 128,-1,14
 343 565 343 565 374 617 c 1,15,-1
 170 821 l 1,16,-1
 248 899 l 1,17,-1
 452 695 l 1,18,19
 504 726 504 726 565.5 726 c 128,-1,20
 627 726 627 726 679 694 c 1,21,-1
 883 899 l 1,22,-1
 960 821 l 1,23,-1
 756 617 l 1,24,25
 787 565 787 565 787 504 c 256,26,27
 787 443 787 443 756 391 c 1,28,-1
 960 187 l 1,29,-1
 882 109 l 1,30,-1
 678 313 l 1,31,32
 626 282 626 282 565 282 c 256,33,34
 504 282 504 282 452 313 c 1,35,-1
 248 109 l 1,36,-1
 170 186 l 1,37,-1
 375 390 l 1,12,13
EndSplineSet
EndChar

StartChar: brokenbar
Encoding: 166 166 102
Width: 310
GlyphClass: 2
Flags: W
LayerCount: 2
Fore
SplineSet
210 298 m 1,0,-1
 210 -488 l 1,1,-1
 100 -488 l 1,2,-1
 100 298 l 1,3,-1
 210 298 l 1,0,-1
210 1477 m 1,4,-1
 210 691 l 1,5,-1
 100 691 l 1,6,-1
 100 1477 l 1,7,-1
 210 1477 l 1,4,-1
EndSplineSet
EndChar

StartChar: guillemotleft
Encoding: 171 171 104
Width: 978
GlyphClass: 2
Flags: W
LayerCount: 2
Fore
SplineSet
646 525 m 1,0,-1
 873 268 l 1,1,-1
 840 168 l 1,2,-1
 488 525 l 1,3,-1
 840 882 l 1,4,-1
 873 782 l 1,5,-1
 646 525 l 1,0,-1
187 525 m 1,6,-1
 467 268 l 1,7,-1
 434 168 l 1,8,-1
 18 525 l 1,9,-1
 434 882 l 1,10,-1
 467 782 l 1,11,-1
 187 525 l 1,6,-1
EndSplineSet
EndChar

StartChar: paragraph
Encoding: 182 182 105
Width: 960
GlyphClass: 2
Flags: W
LayerCount: 2
Fore
SplineSet
662 940 m 1,0,-1
 662 0 l 1,1,-1
 552 0 l 1,2,-1
 552 940 l 1,3,-1
 442 940 l 1,4,-1
 442 0 l 1,5,-1
 332 0 l 1,6,-1
 332 468 l 1,7,8
 266 468 266 468 204.5 509 c 128,-1,9
 143 550 143 550 105 619.5 c 128,-1,10
 67 689 67 689 67 764 c 0,11,12
 67 878 67 878 147.5 963.5 c 128,-1,13
 228 1049 228 1049 332 1049 c 2,14,-1
 774 1049 l 1,15,-1
 774 940 l 1,16,-1
 662 940 l 1,0,-1
EndSplineSet
EndChar

StartChar: guillemotright
Encoding: 187 187 106
Width: 978
GlyphClass: 2
Flags: W
LayerCount: 2
Fore
SplineSet
332 525 m 1,0,-1
 105 782 l 1,1,-1
 138 882 l 1,2,-1
 490 525 l 1,3,-1
 138 168 l 1,4,-1
 105 268 l 1,5,-1
 332 525 l 1,0,-1
791 525 m 1,6,-1
 511 782 l 1,7,-1
 544 882 l 1,8,-1
 960 525 l 1,9,-1
 544 168 l 1,10,-1
 511 268 l 1,11,-1
 791 525 l 1,6,-1
EndSplineSet
EndChar

StartChar: questiondown
Encoding: 191 191 107
Width: 863
GlyphClass: 2
Flags: W
LayerCount: 2
Fore
SplineSet
503 584 m 1,0,1
 556 485 556 485 556 411 c 128,-1,2
 556 337 556 337 526.5 272 c 128,-1,3
 497 207 497 207 454.5 149.5 c 128,-1,4
 412 92 412 92 370 35 c 0,5,6
 268 -101 268 -101 268 -208 c 0,7,8
 268 -270 268 -270 327 -316.5 c 128,-1,9
 386 -363 386 -363 497 -363 c 256,10,11
 608 -363 608 -363 713 -300 c 1,12,-1
 763 -408 l 1,13,14
 664 -471 664 -471 590 -481.5 c 128,-1,15
 516 -492 516 -492 440 -492 c 128,-1,16
 364 -492 364 -492 286 -458 c 128,-1,17
 208 -424 208 -424 157.5 -358 c 128,-1,18
 107 -292 107 -292 107 -216.5 c 128,-1,19
 107 -141 107 -141 136.5 -68.5 c 128,-1,20
 166 4 166 4 208.5 65.5 c 128,-1,21
 251 127 251 127 294 184 c 1,22,23
 395 322 395 322 395 398 c 128,-1,24
 395 474 395 474 369 564 c 1,25,-1
 503 584 l 1,0,1
569 869 m 256,26,27
 569 819 569 819 534.5 783.5 c 128,-1,28
 500 748 500 748 451 748 c 256,29,30
 402 748 402 748 367.5 783.5 c 128,-1,31
 333 819 333 819 333 869 c 256,32,33
 333 919 333 919 367.5 954.5 c 128,-1,34
 402 990 402 990 451 990 c 256,35,36
 500 990 500 990 534.5 954.5 c 128,-1,37
 569 919 569 919 569 869 c 256,26,27
EndSplineSet
EndChar

StartChar: AE
Encoding: 198 198 114
Width: 1818
GlyphClass: 2
Flags: W
LayerCount: 2
Fore
SplineSet
1102 644 m 1,0,-1
 1102 139 l 1,1,-1
 1716 140 l 1,2,-1
 1716 0 l 1,3,-1
 921 0 l 1,4,-1
 921 404 l 1,5,-1
 489 404 l 1,6,-1
 255 0 l 1,7,-1
 67 0 l 1,8,-1
 871 1391 l 1,9,-1
 1716 1391 l 1,10,-1
 1716 1252 l 1,11,-1
 1102 1252 l 1,12,-1
 1102 784 l 1,13,-1
 1520 784 l 1,14,-1
 1520 644 l 1,15,-1
 1102 644 l 1,0,-1
921 544 m 1,16,-1
 921 1152 l 1,17,-1
 569 543 l 1,18,-1
 921 544 l 1,16,-1
EndSplineSet
EndChar

StartChar: Ccedilla
Encoding: 199 199 115
Width: 1255
GlyphClass: 2
Flags: W
LayerCount: 2
Fore
SplineSet
740 122 m 2,0,1
 915 122 915 122 1078 245 c 1,2,-1
 1166 126 l 1,3,4
 1060 49 1060 49 991 23 c 0,5,6
 881 -18 881 -18 693 -18 c 2,7,-1
 679 -18 l 1,8,9
 663 -62 663 -62 663 -106 c 1,10,11
 713 -119 713 -119 749 -170 c 128,-1,12
 785 -221 785 -221 785 -295.5 c 128,-1,13
 785 -370 785 -370 742.5 -414.5 c 128,-1,14
 700 -459 700 -459 614 -494 c 1,15,-1
 535 -419 l 1,16,17
 597 -393 597 -393 630.5 -364 c 128,-1,18
 664 -335 664 -335 664 -285 c 128,-1,19
 664 -235 664 -235 630.5 -203.5 c 128,-1,20
 597 -172 597 -172 539 -172 c 1,21,22
 539 -79 539 -79 579 -10 c 1,23,24
 453 9 453 9 350 72 c 0,25,26
 203 162 203 162 126 323.5 c 128,-1,27
 49 485 49 485 49 696 c 256,28,29
 49 907 49 907 126 1068 c 256,30,31
 203 1229 203 1229 350 1319 c 256,32,33
 497 1409 497 1409 693 1409 c 0,34,35
 880 1409 880 1409 955.5 1381 c 128,-1,36
 1031 1353 1031 1353 1069 1330.5 c 128,-1,37
 1107 1308 1107 1308 1166 1265 c 1,38,-1
 1078 1146 l 1,39,40
 915 1269 915 1269 740 1269 c 2,41,-1
 728 1269 l 2,42,43
 616 1269 616 1269 522 1221 c 0,44,45
 346 1130 346 1130 275 909 c 0,46,47
 241 806 241 806 241 695 c 256,48,49
 241 584 241 584 274.5 481.5 c 128,-1,50
 308 379 308 379 368.5 298.5 c 128,-1,51
 429 218 429 218 522.5 170 c 128,-1,52
 616 122 616 122 728 122 c 2,53,-1
 740 122 l 2,0,1
EndSplineSet
EndChar

StartChar: Eth
Encoding: 208 208 124
Width: 1375
GlyphClass: 2
Flags: W
AnchorPoint: "Anchor-4" 620 0 basechar 0
AnchorPoint: "Anchor-3" 620 0 basechar 0
AnchorPoint: "Anchor-2" 620 0 basechar 0
AnchorPoint: "Anchor-1" 620 1409 basechar 0
AnchorPoint: "Anchor-0" 1135 1053 basechar 0
LayerCount: 2
Fore
SplineSet
863 29 m 128,-1,1
 730 -18 730 -18 548.5 -18 c 128,-1,2
 367 -18 367 -18 180 13 c 1,3,-1
 180 656 l 1,4,-1
 61 656 l 1,5,-1
 61 795 l 1,6,-1
 180 795 l 1,7,-1
 180 1372 l 1,8,9
 391 1409 391 1409 527 1409 c 128,-1,10
 663 1409 663 1409 777 1379 c 128,-1,11
 891 1349 891 1349 991 1288.5 c 128,-1,12
 1091 1228 1091 1228 1166.5 1143.5 c 128,-1,13
 1242 1059 1242 1059 1286 942 c 128,-1,14
 1330 825 1330 825 1330 674.5 c 128,-1,15
 1330 524 1330 524 1267.5 387 c 128,-1,16
 1205 250 1205 250 1100.5 163 c 128,-1,0
 996 76 996 76 863 29 c 128,-1,1
360 655 m 1,17,-1
 360 140 l 1,18,19
 452 122 452 122 558.5 122 c 128,-1,20
 665 122 665 122 768 159 c 128,-1,21
 871 196 871 196 955 264.5 c 128,-1,22
 1039 333 1039 333 1090.5 443.5 c 128,-1,23
 1142 554 1142 554 1142 676.5 c 128,-1,24
 1142 799 1142 799 1105.5 895 c 128,-1,25
 1069 991 1069 991 1009 1058.5 c 128,-1,26
 949 1126 949 1126 872 1175 c 0,27,28
 721 1270 721 1270 546 1270 c 0,29,30
 439 1270 439 1270 361 1252 c 1,31,-1
 361 795 l 1,32,-1
 504 795 l 1,33,-1
 504 655 l 1,34,-1
 360 655 l 1,17,-1
EndSplineSet
EndChar

StartChar: multiply
Encoding: 215 215 131
Width: 1130
GlyphClass: 2
Flags: W
LayerCount: 2
Fore
SplineSet
566 581 m 1,0,-1
 883 899 l 1,1,-1
 960 821 l 1,2,-1
 643 504 l 1,3,-1
 960 187 l 1,4,-1
 882 109 l 1,5,-1
 565 426 l 1,6,-1
 248 109 l 1,7,-1
 170 186 l 1,8,-1
 488 503 l 1,9,-1
 170 821 l 1,10,-1
 248 899 l 1,11,-1
 566 581 l 1,0,-1
EndSplineSet
EndChar

StartChar: Oslash
Encoding: 216 216 132
Width: 1444
GlyphClass: 2
Flags: W
LayerCount: 2
Fore
SplineSet
1003 1186 m 1,0,1
 887 1271 887 1271 730 1271 c 128,-1,2
 573 1271 573 1271 460 1196 c 0,3,4
 237 1047 237 1047 237 703 c 0,5,6
 237 501 237 501 317 356 c 1,7,-1
 1003 1186 l 1,0,1
1210 1221 m 1,8,9
 1399 1026 1399 1026 1399 703 c 0,10,11
 1399 334 1399 334 1150 124 c 0,12,13
 981 -18 981 -18 725 -18 c 128,-1,14
 469 -18 469 -18 297 115 c 1,15,-1
 202 0 l 1,16,-1
 102 96 l 1,17,-1
 198 212 l 1,18,19
 45 404 45 404 45 703 c 0,20,21
 45 1011 45 1011 220 1208 c 1,22,23
 305 1302 305 1302 435 1355.5 c 128,-1,24
 565 1409 565 1409 727 1409 c 0,25,26
 945 1409 945 1409 1103 1308 c 1,27,-1
 1172 1391 l 1,28,-1
 1272 1295 l 1,29,-1
 1210 1221 l 1,8,9
1100 1087 m 1,30,-1
 403 244 l 1,31,32
 530 123 530 123 727 123 c 0,33,34
 840 123 840 123 932.5 170 c 128,-1,35
 1025 217 1025 217 1085 297 c 0,36,37
 1210 464 1210 464 1210 698.5 c 128,-1,38
 1210 933 1210 933 1100 1087 c 1,30,-1
EndSplineSet
EndChar

StartChar: Thorn
Encoding: 222 222 138
Width: 1083
GlyphClass: 2
Flags: W
LayerCount: 2
Fore
SplineSet
746 481.5 m 128,-1,1
 843 547 843 547 843 695.5 c 128,-1,2
 843 844 843 844 746 910 c 128,-1,3
 649 976 649 976 427 976 c 2,4,-1
 361 976 l 1,5,-1
 361 416 l 1,6,-1
 427 416 l 2,7,0
 649 416 649 416 746 481.5 c 128,-1,1
361 276 m 1,8,-1
 361 0 l 1,9,-1
 180 0 l 1,10,-1
 180 1391 l 1,11,-1
 361 1391 l 1,12,-1
 361 1116 l 1,13,-1
 531 1116 l 2,14,15
 679 1116 679 1116 794 1061.5 c 128,-1,16
 909 1007 909 1007 972 911.5 c 128,-1,17
 1035 816 1035 816 1035 695.5 c 128,-1,18
 1035 575 1035 575 972 479.5 c 128,-1,19
 909 384 909 384 794 330 c 128,-1,20
 679 276 679 276 531 276 c 2,21,-1
 361 276 l 1,8,-1
EndSplineSet
EndChar

StartChar: germandbls
Encoding: 223 223 139
Width: 1162
GlyphClass: 2
Flags: W
LayerCount: 2
Fore
SplineSet
505 1336 m 0,0,1
 416 1336 416 1336 370.5 1269 c 128,-1,2
 325 1202 325 1202 325 1082 c 2,3,-1
 325 0 l 1,4,-1
 164 0 l 1,5,-1
 164 1044 l 2,6,7
 164 1464 164 1464 503 1464 c 0,8,9
 728 1464 728 1464 816 1362 c 0,10,11
 897 1268 897 1268 897 1086 c 0,12,13
 897 985 897 985 840 924 c 0,14,15
 794 874 794 874 744 843 c 128,-1,16
 694 812 694 812 669 792 c 0,17,18
 612 748 612 748 612 695.5 c 128,-1,19
 612 643 612 643 645.5 612 c 128,-1,20
 679 581 679 581 774 549 c 2,21,-1
 852 522 l 2,22,23
 959 485 959 485 1010.5 424.5 c 128,-1,24
 1062 364 1062 364 1062 249 c 128,-1,25
 1062 134 1062 134 974 58 c 128,-1,26
 886 -18 886 -18 734 -18 c 0,27,28
 653 -18 653 -18 578.5 -1.5 c 128,-1,29
 504 15 504 15 412 68 c 1,30,-1
 470 192 l 1,31,32
 547 146 547 146 601 128.5 c 128,-1,33
 655 111 655 111 728 111 c 0,34,35
 901 111 901 111 901 260 c 0,36,37
 901 350 901 350 736 404 c 1,38,-1
 658 431 l 2,39,40
 553 468 553 468 502.5 539.5 c 128,-1,41
 452 611 452 611 452 677.5 c 128,-1,42
 452 744 452 744 467.5 783.5 c 128,-1,43
 483 823 483 823 508 848.5 c 128,-1,44
 533 874 533 874 563.5 895.5 c 128,-1,45
 594 917 594 917 624 936.5 c 128,-1,46
 654 956 654 956 680 978 c 0,47,48
 736 1025 736 1025 736 1098 c 0,49,50
 736 1336 736 1336 505 1336 c 0,0,1
EndSplineSet
EndChar

StartChar: ae
Encoding: 230 230 146
Width: 1444
GlyphClass: 2
Flags: W
AnchorPoint: "Anchor-4" 718 0 basechar 0
AnchorPoint: "Anchor-3" 1080 0 basechar 0
AnchorPoint: "Anchor-2" 1320 93 basechar 0
AnchorPoint: "Anchor-1" 718 956 basechar 0
AnchorPoint: "Anchor-0" 1230 820 basechar 0
LayerCount: 2
Fore
SplineSet
430 828 m 0,0,1
 300 828 300 828 150 752 c 1,2,-1
 117 866 l 1,3,4
 209 912 209 912 289 934 c 128,-1,5
 369 956 369 956 464 956 c 0,6,7
 641 956 641 956 727 822 c 1,8,9
 847 956 847 956 1032 956 c 0,10,11
 1230 956 1230 956 1332 822 c 1,12,13
 1418 707 1418 707 1424 520 c 1,14,-1
 1400 460 l 1,15,-1
 774 460 l 1,16,17
 776 291 776 291 863.5 201 c 128,-1,18
 951 111 951 111 1094 111 c 0,19,20
 1204 111 1204 111 1346 170 c 1,21,-1
 1390 55 l 1,22,23
 1282 -18 1282 -18 1098 -18 c 0,24,25
 828 -18 828 -18 699 162 c 1,26,27
 643 81 643 81 547.5 31.5 c 128,-1,28
 452 -18 452 -18 331 -18 c 128,-1,29
 210 -18 210 -18 139 36.5 c 128,-1,30
 68 91 68 91 68 200 c 0,31,32
 68 270 68 270 100 310 c 128,-1,33
 132 350 132 350 155 372.5 c 128,-1,34
 178 395 178 395 216.5 418.5 c 128,-1,35
 255 442 255 442 285.5 459 c 128,-1,36
 316 476 316 476 365.5 497.5 c 128,-1,37
 415 519 415 519 446 531.5 c 128,-1,38
 477 544 477 544 531 565.5 c 128,-1,39
 585 587 585 587 612 598 c 1,40,-1
 613 655 l 1,41,42
 605 828 605 828 430 828 c 0,0,1
612 481 m 1,43,44
 557 458 557 458 502.5 437 c 128,-1,45
 448 416 448 416 397 390 c 128,-1,46
 346 364 346 364 308 338 c 0,47,48
 222 280 222 280 222 210 c 0,49,50
 222 171 222 171 248 147 c 0,51,52
 286 111 286 111 355 111 c 128,-1,53
 424 111 424 111 476 135 c 128,-1,54
 528 159 528 159 556 193 c 0,55,56
 612 263 612 263 612 312 c 2,57,-1
 612 481 l 1,43,44
781 580 m 1,58,-1
 1266 580 l 1,59,60
 1257 689 1257 689 1200.5 758.5 c 128,-1,61
 1144 828 1144 828 1040 828 c 0,62,63
 817 828 817 828 781 580 c 1,58,-1
EndSplineSet
EndChar

StartChar: ccedilla
Encoding: 231 231 147
Width: 888
GlyphClass: 2
Flags: W
AnchorPoint: "Anchor-6" 395 -82 basemark 0 20
AnchorPoint: "Anchor-1" 486 956 basechar 0
AnchorPoint: "Anchor-0" 774 190 basechar 0 2
LayerCount: 2
Fore
SplineSet
549 111 m 2,0,1
 666 111 666 111 774 190 c 1,2,-1
 836 82 l 1,3,4
 757 24 757 24 698.5 4 c 128,-1,5
 640 -16 640 -16 535 -18 c 1,6,7
 519 -62 519 -62 519 -106 c 1,8,9
 569 -119 569 -119 605 -170 c 128,-1,10
 641 -221 641 -221 641 -295.5 c 128,-1,11
 641 -370 641 -370 598.5 -414.5 c 128,-1,12
 556 -459 556 -459 470 -494 c 1,13,-1
 391 -419 l 1,14,15
 453 -393 453 -393 486.5 -364 c 128,-1,16
 520 -335 520 -335 520 -285 c 128,-1,17
 520 -235 520 -235 486.5 -203.5 c 128,-1,18
 453 -172 453 -172 395 -172 c 1,19,20
 395 -82 395 -82 433 -13 c 1,21,22
 279 7 279 7 182 115 c 0,23,24
 61 248 61 248 61 469 c 256,25,26
 61 690 61 690 181.5 823 c 128,-1,27
 302 956 302 956 508 956 c 0,28,29
 633 956 633 956 695 935 c 128,-1,30
 757 914 757 914 836 856 c 1,31,-1
 774 748 l 1,32,33
 666 827 666 827 549 827 c 2,34,-1
 543 827 l 2,35,36
 397 827 397 827 309.5 722 c 128,-1,37
 222 617 222 617 222 469 c 256,38,39
 222 321 222 321 309.5 216 c 128,-1,40
 397 111 397 111 543 111 c 2,41,-1
 549 111 l 2,0,1
EndSplineSet
EndChar

StartChar: eth
Encoding: 240 240 156
Width: 1012
GlyphClass: 2
Flags: W
LayerCount: 2
Fore
SplineSet
222 469 m 0,0,1
 222 198 222 198 402 130 c 0,2,3
 451 111 451 111 500.5 111 c 128,-1,4
 550 111 550 111 589 123 c 128,-1,5
 628 135 628 135 665.5 165 c 128,-1,6
 703 195 703 195 729 241 c 0,7,8
 788 345 788 345 788 528 c 0,9,10
 788 642 788 642 764 752 c 1,11,12
 663 828 663 828 536 828 c 128,-1,13
 409 828 409 828 315.5 732 c 128,-1,14
 222 636 222 636 222 469 c 0,0,1
707 931 m 1,15,16
 662 1037 662 1037 597 1128 c 1,17,-1
 408 1015 l 1,18,-1
 352 1108 l 1,19,-1
 527 1213 l 1,20,21
 427 1319 427 1319 336 1350 c 1,22,-1
 416 1475 l 1,23,24
 554 1420 554 1420 666 1297 c 1,25,-1
 823 1391 l 1,26,-1
 879 1298 l 1,27,-1
 735 1211 l 1,28,29
 840 1063 840 1063 895.5 879 c 128,-1,30
 951 695 951 695 951 555.5 c 128,-1,31
 951 416 951 416 925.5 318 c 128,-1,32
 900 220 900 220 857.5 158 c 128,-1,33
 815 96 815 96 756 56 c 0,34,35
 650 -18 650 -18 506 -18 c 0,36,37
 276 -18 276 -18 154 138 c 0,38,39
 61 257 61 257 61 467.5 c 128,-1,40
 61 678 61 678 197.5 817 c 128,-1,41
 334 956 334 956 540 956 c 0,42,43
 637 956 637 956 707 931 c 1,15,16
EndSplineSet
EndChar

StartChar: divide
Encoding: 247 247 163
Width: 1130
GlyphClass: 2
Flags: W
LayerCount: 2
Fore
SplineSet
1069 449 m 1,0,-1
 61 449 l 1,1,-1
 61 558 l 1,2,-1
 1069 558 l 1,3,-1
 1069 449 l 1,0,-1
447 829 m 256,4,5
 447 879 447 879 481.5 914.5 c 128,-1,6
 516 950 516 950 565 950 c 256,7,8
 614 950 614 950 648.5 914.5 c 128,-1,9
 683 879 683 879 683 829 c 256,10,11
 683 779 683 779 648.5 743.5 c 128,-1,12
 614 708 614 708 565 708 c 256,13,14
 516 708 516 708 481.5 743.5 c 128,-1,15
 447 779 447 779 447 829 c 256,4,5
447 178 m 256,16,17
 447 228 447 228 481.5 263.5 c 128,-1,18
 516 299 516 299 565 299 c 256,19,20
 614 299 614 299 648.5 263.5 c 128,-1,21
 683 228 683 228 683 178 c 256,22,23
 683 128 683 128 648.5 92.5 c 128,-1,24
 614 57 614 57 565 57 c 256,25,26
 516 57 516 57 481.5 92.5 c 128,-1,27
 447 128 447 128 447 178 c 256,16,17
EndSplineSet
EndChar

StartChar: oslash
Encoding: 248 248 164
Width: 1012
GlyphClass: 2
Flags: W
LayerCount: 2
Fore
SplineSet
61 469 m 0,0,1
 61 772 61 772 256 890 c 1,2,3
 363 956 363 956 521.5 956 c 128,-1,4
 680 956 680 956 794 864 c 1,5,-1
 860 938 l 1,6,-1
 927 870 l 1,7,-1
 860 796 l 1,8,9
 951 673 951 673 951 469 c 0,10,11
 951 166 951 166 756 48 c 1,12,13
 649 -18 649 -18 490.5 -18 c 128,-1,14
 332 -18 332 -18 218 74 c 1,15,-1
 152 0 l 1,16,-1
 85 68 l 1,17,-1
 152 142 l 1,18,19
 61 265 61 265 61 469 c 0,0,1
751 672 m 1,20,-1
 316 184 l 1,21,22
 390 111 390 111 506 111 c 0,23,24
 618 111 618 111 698 188 c 1,25,26
 788 273 788 273 788 469 c 0,27,28
 788 590 788 590 751 672 c 1,20,-1
696 753 m 1,29,30
 622 827 622 827 506 827 c 0,31,32
 393 827 393 827 312 750 c 0,33,34
 222 664 222 664 222 469 c 0,35,36
 222 348 222 348 260 265 c 1,37,-1
 696 753 l 1,29,30
EndSplineSet
EndChar

StartChar: thorn
Encoding: 254 254 170
Width: 1063
GlyphClass: 2
Flags: W
AnchorPoint: "Anchor-4" 244 -492 basechar 0
AnchorPoint: "Anchor-3" 244 -492 basechar 0
AnchorPoint: "Anchor-2" 244 -492 basechar 0
AnchorPoint: "Anchor-1" 244 1475 basechar 0
AnchorPoint: "Anchor-0" 841 828 basechar 0
LayerCount: 2
Fore
SplineSet
329 154 m 1,0,1
 409 110 409 110 492 110 c 128,-1,2
 575 110 575 110 631.5 138.5 c 128,-1,3
 688 167 688 167 735 216.5 c 128,-1,4
 782 266 782 266 811.5 341 c 128,-1,5
 841 416 841 416 841 502 c 0,6,7
 841 641 841 641 766.5 734 c 128,-1,8
 692 827 692 827 583 827 c 0,9,10
 509 827 509 827 442 776.5 c 128,-1,11
 375 726 375 726 329 648 c 1,12,-1
 329 154 l 1,0,1
598 956 m 0,13,14
 714 956 714 956 808 892 c 128,-1,15
 902 828 902 828 952 725.5 c 128,-1,16
 1002 623 1002 623 1002 506 c 0,17,18
 1002 273 1002 273 866.5 127.5 c 128,-1,19
 731 -18 731 -18 530 -18 c 0,20,21
 446 -18 446 -18 329 14 c 1,22,-1
 329 -492 l 1,23,-1
 164 -492 l 1,24,-1
 164 1475 l 1,25,-1
 329 1475 l 1,26,-1
 329 828 l 1,27,28
 442 956 442 956 598 956 c 0,13,14
EndSplineSet
EndChar

StartChar: dcroat
Encoding: 273 273 180
Width: 1124
GlyphClass: 2
Flags: W
AnchorPoint: "Anchor-4" 482 0 basechar 0
AnchorPoint: "Anchor-3" 482 0 basechar 0
AnchorPoint: "Anchor-2" 816 0 basechar 0
AnchorPoint: "Anchor-1" 816 1475 basechar 0
AnchorPoint: "Anchor-0" 816 828 basechar 0
LayerCount: 2
Fore
SplineSet
734 784 m 1,0,1
 651 828 651 828 569.5 828 c 128,-1,2
 488 828 488 828 431.5 799.5 c 128,-1,3
 375 771 375 771 328 721.5 c 128,-1,4
 281 672 281 672 251.5 597 c 128,-1,5
 222 522 222 522 222 436 c 0,6,7
 222 297 222 297 296.5 204 c 128,-1,8
 371 111 371 111 480 111 c 0,9,10
 554 111 554 111 621 161.5 c 128,-1,11
 688 212 688 212 734 290 c 1,12,-1
 734 784 l 1,0,1
465 -18 m 0,13,14
 349 -18 349 -18 255 46 c 128,-1,15
 161 110 161 110 111 212.5 c 128,-1,16
 61 315 61 315 61 432 c 0,17,18
 61 665 61 665 196.5 810.5 c 128,-1,19
 332 956 332 956 533 956 c 0,20,21
 617 956 617 956 734 924 c 1,22,-1
 734 1143 l 1,23,-1
 505 1143 l 1,24,-1
 505 1252 l 1,25,-1
 734 1252 l 1,26,-1
 734 1475 l 1,27,-1
 899 1475 l 1,28,-1
 899 1251 l 1,29,-1
 1063 1251 l 1,30,-1
 1063 1142 l 1,31,-1
 899 1142 l 1,32,-1
 899 0 l 1,33,-1
 734 0 l 1,34,-1
 734 110 l 1,35,36
 621 -18 621 -18 465 -18 c 0,13,14
EndSplineSet
EndChar

StartChar: dotlessi
Encoding: 305 305 192
Width: 547
GlyphClass: 2
Flags: W
AnchorPoint: "Anchor-4" 302 0 basechar 0
AnchorPoint: "Anchor-3" 302 0 basechar 0
AnchorPoint: "Anchor-2" 302 0 basechar 0
AnchorPoint: "Anchor-1" 302 956 basechar 0
AnchorPoint: "Anchor-0" 302 828 basechar 0
LayerCount: 2
Fore
SplineSet
383 938 m 1,0,-1
 383 0 l 1,1,-1
 222 0 l 1,2,-1
 222 810 l 1,3,-1
 56 810 l 1,4,-1
 56 938 l 1,5,-1
 383 938 l 1,0,-1
EndSplineSet
EndChar

StartChar: Eng
Encoding: 330 330 193
Width: 1490
GlyphClass: 2
Flags: W
AnchorPoint: "Anchor-4" 755 -492 basechar 0
AnchorPoint: "Anchor-3" 755 -492 basechar 0
AnchorPoint: "Anchor-2" 755 -492 basechar 0
AnchorPoint: "Anchor-1" 755 1409 basechar 0
AnchorPoint: "Anchor-0" 1170 1053 basechar 0
LayerCount: 2
Fore
SplineSet
1127 684 m 2,0,1
 1127 985 1127 985 1028 1128 c 128,-1,2
 929 1271 929 1271 753 1271 c 0,3,4
 557 1271 557 1271 422 1118 c 0,5,6
 359 1046 359 1046 359 1012 c 2,7,-1
 361 0 l 1,8,-1
 180 0 l 1,9,-1
 180 1391 l 1,10,-1
 361 1391 l 1,11,-1
 361 1219 l 1,12,13
 454 1345 454 1345 638 1392 c 0,14,15
 702 1409 702 1409 762 1409 c 128,-1,16
 822 1409 822 1409 868.5 1402.5 c 128,-1,17
 915 1396 915 1396 970.5 1376 c 128,-1,18
 1026 1356 1026 1356 1072.5 1324 c 128,-1,19
 1119 1292 1119 1292 1164 1236.5 c 128,-1,20
 1209 1181 1209 1181 1240 1108 c 0,21,22
 1310 947 1310 947 1310 693 c 2,23,-1
 1310 28 l 2,24,25
 1310 -379 1310 -379 940 -465 c 0,26,27
 826 -492 826 -492 631 -492 c 1,28,-1
 600 -354 l 1,29,30
 901 -346 901 -346 999 -281 c 0,31,32
 1060 -240 1060 -240 1079.5 -197 c 128,-1,33
 1099 -154 1099 -154 1107 -123 c 128,-1,34
 1115 -92 1115 -92 1120 -42 c 0,35,36
 1127 40 1127 40 1127 166 c 2,37,-1
 1127 684 l 2,0,1
EndSplineSet
EndChar

StartChar: eng
Encoding: 331 331 194
Width: 1121
GlyphClass: 2
Flags: W
AnchorPoint: "Anchor-4" 555 -492 basechar 0
AnchorPoint: "Anchor-3" 555 -492 basechar 0
AnchorPoint: "Anchor-2" 555 -492 basechar 0
AnchorPoint: "Anchor-1" 555 956 basechar 0
AnchorPoint: "Anchor-0" 795 828 basechar 0
LayerCount: 2
Fore
SplineSet
796 507 m 2,0,1
 796 828 796 828 566 828 c 0,2,3
 507 828 507 828 458 796.5 c 128,-1,4
 409 765 409 765 382 721 c 0,5,6
 325 628 325 628 325 578 c 2,7,-1
 325 0 l 1,8,-1
 164 0 l 1,9,-1
 164 938 l 1,10,-1
 325 938 l 1,11,-1
 325 766 l 1,12,13
 415 956 415 956 618 956 c 0,14,15
 700 956 700 956 765.5 919.5 c 128,-1,16
 831 883 831 883 868 841 c 0,17,18
 957 742 957 742 957 563 c 2,19,-1
 957 28 l 2,20,21
 957 -261 957 -261 826 -388 c 0,22,23
 718 -492 718 -492 540 -492 c 1,24,-1
 527 -364 l 1,25,26
 653 -348 653 -348 697 -308 c 0,27,28
 749 -260 749 -260 765 -200 c 0,29,30
 796 -84 796 -84 796 68 c 2,31,-1
 796 507 l 2,0,1
EndSplineSet
EndChar

StartChar: OE
Encoding: 338 338 199
Width: 1832
GlyphClass: 2
Flags: W
LayerCount: 2
Fore
SplineSet
655 1271 m 0,0,1
 535 1271 535 1271 436 1196 c 0,2,3
 237 1046 237 1046 237 703 c 0,4,5
 237 453 237 453 346 291 c 0,6,7
 399 212 399 212 483 167.5 c 128,-1,8
 567 123 567 123 685.5 123 c 128,-1,9
 804 123 804 123 904 204 c 0,10,11
 1101 365 1101 365 1101 703 c 0,12,13
 1101 942 1101 942 992 1103 c 0,14,15
 879 1271 879 1271 655 1271 c 0,0,1
1288 644 m 1,16,-1
 1288 139 l 1,17,-1
 1786 140 l 1,18,-1
 1786 0 l 1,19,-1
 1107 0 l 1,20,-1
 1107 171 l 1,21,22
 939 -18 939 -18 673 -18 c 0,23,24
 521 -18 521 -18 400.5 37.5 c 128,-1,25
 280 93 280 93 203 190 c 0,26,27
 45 391 45 391 45 703 c 0,28,29
 45 907 45 907 116.5 1065.5 c 128,-1,30
 188 1224 188 1224 331.5 1316.5 c 128,-1,31
 475 1409 475 1409 673 1409 c 0,32,33
 943 1409 943 1409 1107 1231 c 1,34,-1
 1107 1391 l 1,35,-1
 1786 1391 l 1,36,-1
 1786 1252 l 1,37,-1
 1288 1252 l 1,38,-1
 1288 784 l 1,39,-1
 1590 784 l 1,40,-1
 1590 644 l 1,41,-1
 1288 644 l 1,16,-1
EndSplineSet
EndChar

StartChar: oe
Encoding: 339 339 200
Width: 1666
GlyphClass: 2
Flags: W
AnchorPoint: "Anchor-4" 882 0 basechar 0
AnchorPoint: "Anchor-3" 1222 0 basechar 0
AnchorPoint: "Anchor-2" 1447 0 basechar 0
AnchorPoint: "Anchor-1" 882 956 basechar 0
AnchorPoint: "Anchor-0" 1445 828 basechar 0
LayerCount: 2
Fore
SplineSet
956 580 m 1,0,-1
 1441 580 l 1,1,2
 1432 689 1432 689 1375.5 758.5 c 128,-1,3
 1319 828 1319 828 1214 828 c 0,4,5
 992 828 992 828 956 580 c 1,0,-1
222 469 m 0,6,7
 222 198 222 198 402 130 c 0,8,9
 451 111 451 111 506 111 c 0,10,11
 618 111 618 111 698 188 c 1,12,13
 788 273 788 273 788 469 c 0,14,15
 788 740 788 740 609 808 c 0,16,17
 561 827 561 827 506 827 c 0,18,19
 393 827 393 827 312 750 c 0,20,21
 222 664 222 664 222 469 c 0,6,7
875 163 m 1,22,23
 759 -18 759 -18 506 -18 c 0,24,25
 276 -18 276 -18 154 138 c 0,26,27
 61 257 61 257 61 469 c 0,28,29
 61 772 61 772 256 890 c 1,30,31
 363 956 363 956 506 956 c 0,32,33
 754 956 754 956 871 781 c 1,34,35
 930 869 930 869 1020 912.5 c 128,-1,36
 1110 956 1110 956 1194.5 956 c 128,-1,37
 1279 956 1279 956 1338 938 c 128,-1,38
 1397 920 1397 920 1436.5 891 c 128,-1,39
 1476 862 1476 862 1506.5 821.5 c 128,-1,40
 1537 781 1537 781 1553.5 742 c 128,-1,41
 1570 703 1570 703 1581 658 c 0,42,43
 1597 596 1597 596 1599 520 c 1,44,-1
 1575 460 l 1,45,-1
 951 460 l 1,46,47
 951 441 951 441 950 431 c 1,48,49
 960 276 960 276 1047 193.5 c 128,-1,50
 1134 111 1134 111 1270 111 c 0,51,52
 1380 111 1380 111 1522 170 c 1,53,-1
 1565 55 l 1,54,55
 1457 -18 1457 -18 1273 -18 c 0,56,57
 1002 -18 1002 -18 875 163 c 1,22,23
EndSplineSet
EndChar

StartChar: longs
Encoding: 383 383 211
Width: 675
GlyphClass: 2
Flags: W
LayerCount: 2
Fore
SplineSet
383 0 m 1,0,-1
 222 0 l 1,1,-1
 222 810 l 1,2,-1
 56 810 l 1,3,-1
 56 938 l 1,4,-1
 222 938 l 1,5,-1
 222 1020 l 2,6,7
 222 1464 222 1464 573 1464 c 0,8,9
 683 1464 683 1464 754 1430 c 0,10,11
 777 1418 777 1418 807 1398.5 c 128,-1,12
 837 1379 837 1379 846 1374 c 1,13,-1
 802 1247 l 1,14,15
 761 1283 761 1283 699.5 1309.5 c 128,-1,16
 638 1336 638 1336 569 1336 c 128,-1,17
 500 1336 500 1336 441.5 1265.5 c 128,-1,18
 383 1195 383 1195 383 1107 c 2,19,-1
 383 0 l 1,0,-1
EndSplineSet
EndChar

StartChar: uni0181
Encoding: 385 385 212
Width: 1116
GlyphClass: 2
Flags: W
LayerCount: 2
Fore
SplineSet
793 27.5 m 128,-1,1
 669 -18 669 -18 492.5 -18 c 128,-1,2
 316 -18 316 -18 180 13 c 1,3,-1
 180 1202 l 1,4,5
 -22 1125 -22 1125 -22 1018 c 0,6,7
 -22 953 -22 953 0 896 c 1,8,-1
 -174 870 l 1,9,10
 -207 932 -207 932 -207 1030 c 128,-1,11
 -207 1128 -207 1128 -138.5 1205.5 c 128,-1,12
 -70 1283 -70 1283 40 1326 c 0,13,14
 255 1409 255 1409 478.5 1409 c 128,-1,15
 702 1409 702 1409 832.5 1322 c 128,-1,16
 963 1235 963 1235 963 1094 c 128,-1,17
 963 953 963 953 894 867 c 128,-1,18
 825 781 825 781 717 752 c 1,19,20
 979 717 979 717 1046 538 c 0,21,22
 1068 482 1068 482 1068 413 c 0,23,24
 1068 271 1068 271 992.5 172 c 128,-1,0
 917 73 917 73 793 27.5 c 128,-1,1
361 1252 m 1,25,-1
 361 795 l 1,26,-1
 427 795 l 2,27,28
 594 795 594 795 682.5 858 c 128,-1,29
 771 921 771 921 771 1040 c 0,30,31
 771 1187 771 1187 626 1244 c 0,32,33
 559 1270 559 1270 489.5 1270 c 128,-1,34
 420 1270 420 1270 361 1252 c 1,25,-1
361 140 m 1,35,36
 415 122 415 122 499 122 c 0,37,38
 687 122 687 122 785 191.5 c 128,-1,39
 883 261 883 261 883 390 c 0,40,41
 883 655 883 655 421 655 c 2,42,-1
 361 655 l 1,43,-1
 361 140 l 1,35,36
EndSplineSet
EndChar

StartChar: uni0186
Encoding: 390 390 213
Width: 1255
GlyphClass: 2
Flags: W
AnchorPoint: "Anchor-4" 584 0 basechar 0
AnchorPoint: "Anchor-3" 584 0 basechar 0
AnchorPoint: "Anchor-2" 584 0 basechar 0
AnchorPoint: "Anchor-1" 1206 374 basechar 0 11
AnchorPoint: "Anchor-0" 853 -18 basechar 0 12
LayerCount: 2
Fore
SplineSet
515 1269 m 2,0,1
 340 1269 340 1269 177 1146 c 1,2,-1
 89 1265 l 1,3,4
 195 1342 195 1342 264 1368 c 0,5,6
 374 1409 374 1409 566 1409 c 128,-1,7
 758 1409 758 1409 905 1319 c 128,-1,8
 1052 1229 1052 1229 1129 1067.5 c 128,-1,9
 1206 906 1206 906 1206 695 c 0,10,11
 1206 374 1206 374 1029.5 178 c 128,-1,12
 853 -18 853 -18 549 -18 c 0,13,14
 198 -18 198 -18 61 276 c 1,15,-1
 176 340 l 1,16,17
 219 242 219 242 310 182 c 128,-1,18
 401 122 401 122 543 122 c 0,19,20
 777 122 777 122 895.5 275 c 128,-1,21
 1014 428 1014 428 1014 696 c 0,22,23
 1014 923 1014 923 886 1092 c 1,24,25
 826 1173 826 1173 732.5 1221 c 128,-1,26
 639 1269 639 1269 527 1269 c 2,27,-1
 515 1269 l 2,0,1
EndSplineSet
EndChar

StartChar: uni018A
Encoding: 394 394 214
Width: 1375
GlyphClass: 2
Flags: W
LayerCount: 2
Fore
SplineSet
387 1402 m 128,-1,1
 465 1409 465 1409 564 1409 c 128,-1,2
 663 1409 663 1409 777 1379 c 128,-1,3
 891 1349 891 1349 991 1288.5 c 128,-1,4
 1091 1228 1091 1228 1166.5 1143.5 c 128,-1,5
 1242 1059 1242 1059 1286 942 c 128,-1,6
 1330 825 1330 825 1330 674.5 c 128,-1,7
 1330 524 1330 524 1267.5 387 c 128,-1,8
 1205 250 1205 250 1100 163 c 0,9,10
 883 -18 883 -18 584 -18 c 0,11,12
 367 -18 367 -18 180 13 c 1,13,-1
 180 1210 l 1,14,15
 -22 1141 -22 1141 -22 1018 c 0,16,17
 -22 952 -22 952 0 896 c 1,18,-1
 -174 870 l 1,19,20
 -207 932 -207 932 -207 1016.5 c 128,-1,21
 -207 1101 -207 1101 -172 1162.5 c 128,-1,22
 -137 1224 -137 1224 -76 1264.5 c 128,-1,23
 -15 1305 -15 1305 59 1334.5 c 128,-1,24
 133 1364 133 1364 221 1379.5 c 128,-1,0
 309 1395 309 1395 387 1402 c 128,-1,1
361 1252 m 1,25,-1
 360 140 l 1,26,27
 452 122 452 122 558.5 122 c 128,-1,28
 665 122 665 122 768 159 c 128,-1,29
 871 196 871 196 955 264.5 c 128,-1,30
 1039 333 1039 333 1090.5 443.5 c 128,-1,31
 1142 554 1142 554 1142 676.5 c 128,-1,32
 1142 799 1142 799 1105.5 895 c 128,-1,33
 1069 991 1069 991 1009 1058.5 c 128,-1,34
 949 1126 949 1126 872 1175 c 0,35,36
 721 1270 721 1270 546 1270 c 0,37,38
 439 1270 439 1270 361 1252 c 1,25,-1
EndSplineSet
EndChar

StartChar: uni018E
Encoding: 398 398 215
Width: 1077
GlyphClass: 2
Flags: W
LayerCount: 2
Fore
SplineSet
716 747 m 1,0,-1
 716 1252 l 1,1,-1
 102 1251 l 1,2,-1
 102 1391 l 1,3,-1
 897 1391 l 1,4,-1
 897 0 l 1,5,-1
 102 0 l 1,6,-1
 102 139 l 1,7,-1
 716 139 l 1,8,-1
 716 608 l 1,9,-1
 298 607 l 1,10,-1
 298 747 l 1,11,-1
 716 747 l 1,0,-1
EndSplineSet
EndChar

StartChar: uni018F
Encoding: 399 399 216
Width: 1333
GlyphClass: 2
Flags: W
AnchorPoint: "Anchor-4" 652 0 basechar 0
AnchorPoint: "Anchor-3" 652 0 basechar 0
AnchorPoint: "Anchor-2" 652 0 basechar 0
AnchorPoint: "Anchor-1" 652 1409 basechar 0
AnchorPoint: "Anchor-0" 1188 1053 basechar 0
LayerCount: 2
Fore
SplineSet
646 -18 m 0,0,1
 382 -18 382 -18 215 138 c 0,2,3
 40 301 40 301 40 627 c 1,4,-1
 128 720 l 1,5,-1
 1092 720 l 1,6,7
 1082 993 1082 993 913 1154 c 0,8,9
 793 1269 793 1269 615 1269 c 0,10,11
 499 1269 499 1269 406.5 1232 c 128,-1,12
 314 1195 314 1195 222 1132 c 1,13,-1
 134 1251 l 1,14,15
 235 1323 235 1323 346.5 1366 c 128,-1,16
 458 1409 458 1409 618 1409 c 128,-1,17
 778 1409 778 1409 908 1352 c 128,-1,18
 1038 1295 1038 1295 1119 1196 c 0,19,20
 1284 994 1284 994 1284 678.5 c 128,-1,21
 1284 363 1284 363 1117.5 172.5 c 128,-1,22
 951 -18 951 -18 646 -18 c 0,0,1
1087 580 m 1,23,-1
 222 580 l 1,24,25
 222 320 222 320 410 194 c 0,26,27
 517 122 517 122 625 122 c 128,-1,28
 733 122 733 122 803 144.5 c 128,-1,29
 873 167 873 167 922 207 c 128,-1,30
 971 247 971 247 1006 306 c 0,31,32
 1071 413 1071 413 1087 580 c 1,23,-1
EndSplineSet
EndChar

StartChar: uni0190
Encoding: 400 400 217
Width: 1001
GlyphClass: 2
Flags: W
AnchorPoint: "Anchor-4" 516 0 basechar 0
AnchorPoint: "Anchor-3" 516 0 basechar 0
AnchorPoint: "Anchor-2" 516 0 basechar 0
AnchorPoint: "Anchor-1" 516 1409 basechar 0
AnchorPoint: "Anchor-0" 808 1053 basechar 0
LayerCount: 2
Fore
SplineSet
564 122 m 0,0,1
 629 122 629 122 705.5 153.5 c 128,-1,2
 782 185 782 185 834 232 c 1,3,-1
 912 111 l 1,4,5
 755 -18 755 -18 548 -18 c 0,6,7
 436 -18 436 -18 341 18 c 128,-1,8
 246 54 246 54 182 115 c 0,9,10
 49 243 49 243 49 426 c 0,11,12
 49 652 49 652 296 764 c 1,13,14
 219 792 219 792 151.5 867 c 128,-1,15
 84 942 84 942 84 1032.5 c 128,-1,16
 84 1123 84 1123 113.5 1189.5 c 128,-1,17
 143 1256 143 1256 189 1296 c 128,-1,18
 235 1336 235 1336 298 1362 c 0,19,20
 410 1409 410 1409 530.5 1409 c 128,-1,21
 651 1409 651 1409 747.5 1373 c 128,-1,22
 844 1337 844 1337 884 1304 c 1,23,-1
 806 1188 l 1,24,25
 757 1222 757 1222 687 1245.5 c 128,-1,26
 617 1269 617 1269 552.5 1269 c 128,-1,27
 488 1269 488 1269 435 1252 c 128,-1,28
 382 1235 382 1235 353 1210 c 128,-1,29
 324 1185 324 1185 306 1151 c 0,30,31
 276 1097 276 1097 276 1036 c 128,-1,32
 276 975 276 975 306.5 929 c 128,-1,33
 337 883 337 883 383 858 c 0,34,35
 474 810 474 810 558 810 c 2,36,-1
 700 810 l 1,37,-1
 700 670 l 1,38,-1
 543 670 l 2,39,40
 396 670 396 670 318.5 598 c 128,-1,41
 241 526 241 526 241 409 c 128,-1,42
 241 292 241 292 330 207 c 128,-1,43
 419 122 419 122 564 122 c 0,0,1
EndSplineSet
EndChar

StartChar: uni0191
Encoding: 401 401 218
Width: 999
GlyphClass: 2
Flags: W
LayerCount: 2
Fore
SplineSet
180 1391 m 1,0,-1
 975 1391 l 1,1,-1
 975 1252 l 1,2,-1
 361 1252 l 1,3,-1
 361 783 l 1,4,-1
 779 784 l 1,5,-1
 779 644 l 1,6,-1
 361 644 l 1,7,-1
 361 28 l 2,8,9
 361 -211 361 -211 278 -330 c 0,10,11
 223 -408 223 -408 171.5 -434 c 128,-1,12
 120 -460 120 -460 90 -469.5 c 128,-1,13
 60 -479 60 -479 18 -484 c 0,14,15
 -38 -492 -38 -492 -114 -492 c 1,16,-1
 -159 -354 l 1,17,18
 34 -346 34 -346 98 -281 c 0,19,20
 165 -212 165 -212 175 -42 c 0,21,22
 180 40 180 40 180 166 c 2,23,-1
 180 1391 l 1,0,-1
EndSplineSet
EndChar

StartChar: florin
Encoding: 402 402 219
Width: 675
GlyphClass: 2
Flags: W
LayerCount: 2
Fore
SplineSet
383 30 m 2,0,1
 383 -260 383 -260 250 -385 c 0,2,3
 140 -488 140 -488 -38 -488 c 1,4,-1
 -51 -360 l 1,5,6
 74 -344 74 -344 118 -304 c 0,7,8
 170 -256 170 -256 186 -196 c 0,9,10
 218 -76 218 -76 218 72 c 2,11,-1
 222 810 l 1,12,-1
 56 810 l 1,13,-1
 56 938 l 1,14,-1
 222 938 l 1,15,-1
 222 1020 l 2,16,17
 222 1464 222 1464 573 1464 c 0,18,19
 683 1464 683 1464 754 1430 c 0,20,21
 777 1418 777 1418 807 1398.5 c 128,-1,22
 837 1379 837 1379 846 1374 c 1,23,-1
 802 1247 l 1,24,25
 761 1283 761 1283 699.5 1309.5 c 128,-1,26
 638 1336 638 1336 569 1336 c 128,-1,27
 500 1336 500 1336 441.5 1264 c 128,-1,28
 383 1192 383 1192 383 1107 c 2,29,-1
 383 938 l 1,30,-1
 612 938 l 1,31,-1
 612 810 l 1,32,-1
 383 810 l 1,33,-1
 383 30 l 2,0,1
EndSplineSet
EndChar

StartChar: uni0194
Encoding: 404 404 220
Width: 1241
GlyphClass: 2
Flags: W
LayerCount: 2
Fore
SplineSet
704 169 m 1,0,1
 751 63 751 63 787 -16 c 0,2,3
 868 -192 868 -192 868 -293 c 128,-1,4
 868 -394 868 -394 796 -443 c 128,-1,5
 724 -492 724 -492 620 -492 c 0,6,7
 528 -492 528 -492 475 -460 c 0,8,9
 378 -401 378 -401 378 -290 c 0,10,11
 378 -234 378 -234 412.5 -140 c 128,-1,12
 447 -46 447 -46 539 162 c 1,13,-1
 59 1391 l 1,14,-1
 232 1391 l 1,15,-1
 623 378 l 1,16,-1
 1020 1410 l 1,17,-1
 1182 1410 l 1,18,-1
 704 169 l 1,0,1
621 -50 m 1,19,20
 566 -207 566 -207 566 -259.5 c 128,-1,21
 566 -312 566 -312 582.5 -332 c 128,-1,22
 599 -352 599 -352 620 -352 c 0,23,24
 680 -352 680 -352 680 -261 c 0,25,26
 680 -206 680 -206 621 -50 c 1,19,20
EndSplineSet
EndChar

StartChar: uni0196
Encoding: 406 406 221
Width: 696
GlyphClass: 2
Flags: W
AnchorPoint: "Anchor-4" 361 0 basechar 0
AnchorPoint: "Anchor-3" 361 0 basechar 0
AnchorPoint: "Anchor-2" 361 0 basechar 0
AnchorPoint: "Anchor-1" 270 1409 basechar 0
AnchorPoint: "Anchor-0" 270 1053 basechar 0
LayerCount: 2
Fore
SplineSet
668 13 m 1,0,1
 580 -18 580 -18 486 -18 c 128,-1,2
 392 -18 392 -18 348 -3 c 128,-1,3
 304 12 304 12 264 47 c 0,4,5
 180 122 180 122 180 313 c 2,6,-1
 180 1392 l 1,7,-1
 361 1392 l 1,8,-1
 361 334 l 2,9,10
 361 123 361 123 496 123 c 0,11,12
 564 123 564 123 646 140 c 1,13,-1
 668 13 l 1,0,1
EndSplineSet
EndChar

StartChar: uni0197
Encoding: 407 407 222
Width: 663
GlyphClass: 2
Flags: W
AnchorPoint: "Anchor-4" 331 0 basechar 0
AnchorPoint: "Anchor-3" 331 0 basechar 0
AnchorPoint: "Anchor-2" 331 0 basechar 0
AnchorPoint: "Anchor-1" 331 1409 basechar 0
AnchorPoint: "Anchor-0" 331 1053 basechar 0
LayerCount: 2
Fore
SplineSet
241 664 m 1,0,-1
 61 664 l 1,1,-1
 61 803 l 1,2,-1
 241 803 l 1,3,-1
 241 1391 l 1,4,-1
 422 1391 l 1,5,-1
 422 804 l 1,6,-1
 602 804 l 1,7,-1
 602 664 l 1,8,-1
 422 664 l 1,9,-1
 422 0 l 1,10,-1
 241 0 l 1,11,-1
 241 664 l 1,0,-1
EndSplineSet
EndChar

StartChar: uni0198
Encoding: 408 408 223
Width: 1161
GlyphClass: 2
Flags: W
LayerCount: 2
Fore
SplineSet
1103 1 m 1,0,-1
 892 1 l 1,1,-1
 361 679 l 1,2,-1
 361 0 l 1,3,-1
 180 0 l 1,4,-1
 180 1391 l 1,5,-1
 361 1391 l 1,6,-1
 361 693 l 1,7,-1
 637 1071 l 1,8,9
 756 1232 756 1232 808.5 1288 c 128,-1,10
 861 1344 861 1344 894 1366 c 0,11,12
 962 1409 962 1409 1019 1409 c 0,13,14
 1170 1409 1170 1409 1246 1328 c 1,15,16
 1316 1258 1316 1258 1332 1119 c 1,17,-1
 1171 1095 l 1,18,19
 1160 1177 1160 1177 1128 1223 c 128,-1,20
 1096 1269 1096 1269 1032 1269 c 0,21,22
 974 1269 974 1269 883 1151 c 0,23,24
 873 1137 873 1137 849 1104 c 128,-1,25
 825 1071 825 1071 822 1066 c 2,26,-1
 555 701 l 1,27,-1
 1103 1 l 1,0,-1
EndSplineSet
EndChar

StartChar: uni0199
Encoding: 409 409 224
Width: 936
GlyphClass: 2
Flags: W
LayerCount: 2
Fore
SplineSet
325 0 m 1,0,-1
 164 0 l 1,1,-1
 164 1020 l 2,2,3
 164 1464 164 1464 515 1464 c 0,4,5
 625 1464 625 1464 696 1430 c 0,6,7
 719 1418 719 1418 749 1398.5 c 128,-1,8
 779 1379 779 1379 788 1374 c 1,9,-1
 744 1247 l 1,10,11
 703 1283 703 1283 641.5 1309.5 c 128,-1,12
 580 1336 580 1336 511 1336 c 128,-1,13
 442 1336 442 1336 383.5 1265.5 c 128,-1,14
 325 1195 325 1195 325 1107 c 2,15,-1
 325 624 l 1,16,-1
 644 938 l 1,17,-1
 844 938 l 1,18,-1
 459 562 l 1,19,-1
 914 0 l 1,20,-1
 714 0 l 1,21,-1
 325 479 l 1,22,-1
 325 0 l 1,0,-1
EndSplineSet
EndChar

StartChar: uni019D
Encoding: 413 413 225
Width: 1385
GlyphClass: 2
Flags: W
LayerCount: 2
Fore
SplineSet
180 1391 m 1,0,-1
 361 1391 l 1,1,-1
 1024 348 l 1,2,-1
 1024 1391 l 1,3,-1
 1205 1391 l 1,4,-1
 1205 0 l 1,5,-1
 1024 0 l 1,6,-1
 361 1042 l 1,7,-1
 361 28 l 2,8,9
 361 -211 361 -211 278 -330 c 0,10,11
 223 -408 223 -408 171.5 -434 c 128,-1,12
 120 -460 120 -460 90 -469.5 c 128,-1,13
 60 -479 60 -479 18 -484 c 0,14,15
 -38 -492 -38 -492 -114 -492 c 1,16,-1
 -159 -354 l 1,17,18
 34 -346 34 -346 98 -281 c 0,19,20
 165 -212 165 -212 175 -42 c 0,21,22
 180 40 180 40 180 166 c 2,23,-1
 180 1391 l 1,0,-1
EndSplineSet
EndChar

StartChar: uni019F
Encoding: 415 415 226
Width: 1444
GlyphClass: 2
Flags: W
AnchorPoint: "Anchor-4" 727 0 basechar 0
AnchorPoint: "Anchor-3" 727 0 basechar 0
AnchorPoint: "Anchor-2" 727 0 basechar 0
AnchorPoint: "Anchor-1" 727 1409 basechar 0
AnchorPoint: "Anchor-0" 1263 1053 basechar 0
LayerCount: 2
Fore
SplineSet
435 1355.5 m 128,-1,1
 565 1409 565 1409 710.5 1409 c 128,-1,2
 856 1409 856 1409 965.5 1373 c 128,-1,3
 1075 1337 1075 1337 1154.5 1272 c 128,-1,4
 1234 1207 1234 1207 1290 1118 c 0,5,6
 1399 944 1399 944 1399 703 c 0,7,8
 1399 334 1399 334 1150 124 c 0,9,10
 981 -18 981 -18 727 -18 c 0,11,12
 562 -18 562 -18 431 37.5 c 128,-1,13
 300 93 300 93 216 190 c 1,14,15
 45 391 45 391 45 703 c 0,16,17
 45 1011 45 1011 220 1208 c 1,18,0
 305 1302 305 1302 435 1355.5 c 128,-1,1
1209 664 m 1,19,-1
 238 664 l 1,20,21
 248 427 248 427 370 279 c 0,22,23
 498 123 498 123 727 123 c 0,24,25
 835 123 835 123 924.5 166 c 128,-1,26
 1014 209 1014 209 1074 284 c 0,27,28
 1199 439 1199 439 1209 664 c 1,19,-1
1204 804 m 1,29,30
 1180 1005 1180 1005 1060 1136 c 0,31,32
 935 1271 935 1271 727 1271 c 0,33,34
 589 1271 589 1271 484 1210 c 0,35,36
 276 1091 276 1091 243 803 c 1,37,-1
 1204 804 l 1,29,30
EndSplineSet
EndChar

StartChar: uni01A9
Encoding: 425 425 227
Width: 1040
GlyphClass: 2
Flags: W
LayerCount: 2
Fore
SplineSet
55 1 m 1,0,-1
 583 696 l 1,1,-1
 55 1392 l 1,2,-1
 938 1392 l 1,3,-1
 938 1253 l 1,4,-1
 349 1253 l 1,5,-1
 770 696 l 1,6,-1
 350 140 l 1,7,-1
 938 141 l 1,8,-1
 938 1 l 1,9,-1
 55 1 l 1,0,-1
EndSplineSet
EndChar

StartChar: uni01B2
Encoding: 434 434 228
Width: 1325
GlyphClass: 2
Flags: W
AnchorPoint: "Anchor-4" 656 0 basechar 0
AnchorPoint: "Anchor-3" 656 0 basechar 0
AnchorPoint: "Anchor-2" 656 0 basechar 0
AnchorPoint: "Anchor-1" 656 1409 basechar 0
AnchorPoint: "Anchor-0" 964 1160 basechar 0
LayerCount: 2
Fore
SplineSet
681 -18 m 0,0,1
 180 -18 180 -18 180 438 c 2,2,-1
 180 1391 l 1,3,-1
 361 1391 l 1,4,-1
 361 486 l 2,5,6
 361 204 361 204 560 140 c 0,7,8
 614 123 614 123 681.5 123 c 128,-1,9
 749 123 749 123 818.5 151 c 128,-1,10
 888 179 888 179 950 232.5 c 128,-1,11
 1012 286 1012 286 1051.5 377.5 c 128,-1,12
 1091 469 1091 469 1091 578.5 c 128,-1,13
 1091 688 1091 688 1067.5 781.5 c 128,-1,14
 1044 875 1044 875 995 960 c 0,15,16
 905 1118 905 1118 733 1284 c 1,17,-1
 874 1409 l 1,18,19
 1046 1229 1046 1229 1116 1124.5 c 128,-1,20
 1186 1020 1186 1020 1216 945 c 0,21,22
 1280 781 1280 781 1280 593 c 128,-1,23
 1280 405 1280 405 1201.5 267.5 c 128,-1,24
 1123 130 1123 130 987 56 c 128,-1,25
 851 -18 851 -18 681 -18 c 0,0,1
EndSplineSet
EndChar

StartChar: uni01B3
Encoding: 435 435 229
Width: 1307
GlyphClass: 2
Flags: W
LayerCount: 2
Fore
SplineSet
985 1068 m 2,0,-1
 711 618 l 1,1,-1
 711 0 l 1,2,-1
 530 0 l 1,3,-1
 530 619 l 1,4,-1
 59 1391 l 1,5,-1
 237 1391 l 1,6,-1
 626 754 l 1,7,-1
 817 1068 l 1,8,9
 977 1328 977 1328 1081 1381 c 0,10,11
 1136 1409 1136 1409 1206 1409 c 0,12,13
 1444 1409 1444 1409 1478 1119 c 1,14,-1
 1317 1095 l 1,15,16
 1299 1232 1299 1232 1254 1257 c 0,17,18
 1232 1269 1232 1269 1205.5 1269 c 128,-1,19
 1179 1269 1179 1269 1158.5 1260.5 c 128,-1,20
 1138 1252 1138 1252 1122.5 1242 c 128,-1,21
 1107 1232 1107 1232 1087.5 1210.5 c 128,-1,22
 1068 1189 1068 1189 1057.5 1177 c 128,-1,23
 1047 1165 1047 1165 1028.5 1136.5 c 128,-1,24
 1010 1108 1010 1108 1006 1101.5 c 128,-1,25
 1002 1095 1002 1095 985 1068 c 2,0,-1
EndSplineSet
EndChar

StartChar: uni01B4
Encoding: 436 436 230
Width: 1130
GlyphClass: 2
Flags: W
LayerCount: 2
Fore
SplineSet
57 -322 m 1,0,1
 110 -367 110 -367 145.5 -367 c 128,-1,2
 181 -367 181 -367 205 -354 c 128,-1,3
 229 -341 229 -341 253 -313.5 c 128,-1,4
 277 -286 277 -286 298 -255.5 c 128,-1,5
 319 -225 319 -225 344 -178 c 1,6,7
 372 -122 372 -122 433 11 c 1,8,-1
 24 938 l 1,9,-1
 197 938 l 1,10,-1
 520 207 l 1,11,-1
 708 636 l 1,12,13
 817 880 817 880 916 928 c 0,14,15
 972 956 972 956 1059 956 c 0,16,17
 1204 956 1204 956 1270 804 c 0,18,19
 1295 747 1295 747 1301 672 c 1,20,-1
 1140 642 l 1,21,22
 1137 695 1137 695 1104.5 755.5 c 128,-1,23
 1072 816 1072 816 1027 816 c 0,24,25
 989 816 989 816 964 788.5 c 128,-1,26
 939 761 939 761 924 738.5 c 128,-1,27
 909 716 909 716 897 692 c 0,28,29
 871 640 871 640 853 598 c 2,30,-1
 592 18 l 2,31,32
 417 -371 417 -371 302 -453 c 0,33,34
 243 -496 243 -496 156.5 -496 c 128,-1,35
 70 -496 70 -496 -1 -420 c 1,36,-1
 57 -322 l 1,0,1
EndSplineSet
EndChar

StartChar: uni01B5
Encoding: 437 437 231
Width: 1259
GlyphClass: 2
Flags: W
AnchorPoint: "Anchor-4" 601 0 basechar 0
AnchorPoint: "Anchor-3" 1048 0 basechar 0
AnchorPoint: "Anchor-2" 1048 0 basechar 0
AnchorPoint: "Anchor-1" 601 1409 basechar 0
AnchorPoint: "Anchor-0" 808 1053 basechar 0
LayerCount: 2
Fore
SplineSet
654 664 m 1,0,-1
 320 139 l 1,1,-1
 1116 139 l 1,2,-1
 1116 -1 l 1,3,-1
 50 0 l 1,4,-1
 472 664 l 1,5,-1
 215 664 l 1,6,-1
 215 803 l 1,7,-1
 561 803 l 1,8,-1
 847 1252 l 1,9,-1
 87 1252 l 1,10,-1
 87 1391 l 1,11,-1
 1116 1391 l 1,12,-1
 743 804 l 1,13,-1
 1008 804 l 1,14,-1
 1008 664 l 1,15,-1
 654 664 l 1,0,-1
EndSplineSet
EndChar

StartChar: uni01B6
Encoding: 438 438 232
Width: 972
GlyphClass: 2
Flags: W
AnchorPoint: "Anchor-4" 508 0 basechar 0
AnchorPoint: "Anchor-3" 820 0 basechar 0
AnchorPoint: "Anchor-2" 820 0 basechar 0
AnchorPoint: "Anchor-1" 508 956 basechar 0
AnchorPoint: "Anchor-0" 738 828 basechar 0
LayerCount: 2
Fore
SplineSet
111 938 m 1,0,-1
 889 938 l 1,1,-1
 631 558 l 1,2,-1
 863 558 l 1,3,-1
 863 449 l 1,4,-1
 557 449 l 1,5,-1
 340 128 l 1,6,-1
 905 128 l 1,7,-1
 905 0 l 1,8,-1
 67 0 l 1,9,-1
 371 449 l 1,10,-1
 128 449 l 1,11,-1
 128 558 l 1,12,-1
 445 558 l 1,13,-1
 616 810 l 1,14,-1
 111 810 l 1,15,-1
 111 938 l 1,0,-1
EndSplineSet
EndChar

StartChar: uni01DD
Encoding: 477 477 241
Width: 939
GlyphClass: 2
Flags: W
AnchorPoint: "Anchor-4" 450 0 basechar 0
AnchorPoint: "Anchor-3" 450 0 basechar 0
AnchorPoint: "Anchor-2" 450 0 basechar 0
AnchorPoint: "Anchor-1" 450 956 basechar 0
AnchorPoint: "Anchor-0" 680 828 basechar 0
LayerCount: 2
Fore
SplineSet
433 110 m 0,0,1
 572 110 572 110 641 194 c 0,2,3
 689 252 689 252 704 358 c 1,4,-1
 219 358 l 1,5,6
 228 249 228 249 284.5 179.5 c 128,-1,7
 341 110 341 110 433 110 c 0,0,1
95 883 m 1,8,9
 203 956 203 956 387 956 c 0,10,11
 620 956 620 956 746 823 c 128,-1,12
 872 690 872 690 872 469 c 0,13,14
 872 180 872 180 685 52 c 0,15,16
 582 -18 582 -18 453 -18 c 0,17,18
 255 -18 255 -18 154 116 c 0,19,20
 67 231 67 231 61 418 c 1,21,-1
 85 478 l 1,22,-1
 711 478 l 1,23,24
 709 644 709 644 622 735.5 c 128,-1,25
 535 827 535 827 390 827 c 0,26,27
 280 827 280 827 138 768 c 1,28,-1
 95 883 l 1,8,9
EndSplineSet
EndChar

StartChar: uni0228
Encoding: 552 552 242
Width: 1077
GlyphClass: 2
Flags: W
LayerCount: 2
Fore
SplineSet
493 0 m 1,0,-1
 180 0 l 1,1,-1
 180 1391 l 1,2,-1
 975 1391 l 1,3,-1
 975 1252 l 1,4,-1
 361 1252 l 1,5,-1
 361 784 l 1,6,-1
 779 784 l 1,7,-1
 779 644 l 1,8,-1
 361 644 l 1,9,-1
 361 140 l 1,10,-1
 975 140 l 1,11,-1
 975 0 l 1,12,-1
 595 0 l 1,13,14
 571 -54 571 -54 571 -106 c 1,15,16
 621 -119 621 -119 657 -170 c 128,-1,17
 693 -221 693 -221 693 -295.5 c 128,-1,18
 693 -370 693 -370 650.5 -414.5 c 128,-1,19
 608 -459 608 -459 522 -494 c 1,20,-1
 443 -419 l 1,21,22
 505 -393 505 -393 538.5 -364 c 128,-1,23
 572 -335 572 -335 572 -285 c 128,-1,24
 572 -235 572 -235 538.5 -203.5 c 128,-1,25
 505 -172 505 -172 447 -172 c 1,26,27
 447 -73 447 -73 493 0 c 1,0,-1
EndSplineSet
EndChar

StartChar: uni0229
Encoding: 553 553 243
Width: 939
GlyphClass: 2
Flags: W
LayerCount: 2
Fore
SplineSet
500 828 m 0,0,1
 361 828 361 828 292 744 c 0,2,3
 244 686 244 686 229 580 c 1,4,-1
 714 580 l 1,5,6
 705 689 705 689 648.5 758.5 c 128,-1,7
 592 828 592 828 500 828 c 0,0,1
838 55 m 1,8,9
 730 -18 730 -18 546 -18 c 0,10,11
 530 -18 530 -18 515 -17 c 1,12,13
 498 -62 498 -62 498 -106 c 1,14,15
 548 -119 548 -119 584 -170 c 128,-1,16
 620 -221 620 -221 620 -295.5 c 128,-1,17
 620 -370 620 -370 577.5 -414.5 c 128,-1,18
 535 -459 535 -459 449 -494 c 1,19,-1
 370 -419 l 1,20,21
 432 -393 432 -393 465.5 -364 c 128,-1,22
 499 -335 499 -335 499 -285 c 128,-1,23
 499 -235 499 -235 465.5 -203.5 c 128,-1,24
 432 -172 432 -172 374 -172 c 1,25,26
 374 -77 374 -77 416 -6 c 1,27,28
 275 22 275 22 187 115 c 0,29,30
 61 248 61 248 61 469 c 0,31,32
 61 758 61 758 248 886 c 0,33,34
 351 956 351 956 480 956 c 0,35,36
 678 956 678 956 780 822 c 1,37,38
 866 707 866 707 872 520 c 1,39,-1
 848 460 l 1,40,-1
 222 460 l 1,41,42
 224 294 224 294 311 202.5 c 128,-1,43
 398 111 398 111 543 111 c 0,44,45
 653 111 653 111 795 170 c 1,46,-1
 838 55 l 1,8,9
EndSplineSet
EndChar

StartChar: uni0237
Encoding: 567 567 246
Width: 547
GlyphClass: 2
Flags: W
AnchorPoint: "Anchor-4" 222 -492 basechar 0
AnchorPoint: "Anchor-3" 222 -492 basechar 0
AnchorPoint: "Anchor-2" 222 -492 basechar 0
AnchorPoint: "Anchor-1" 302 956 basechar 0
AnchorPoint: "Anchor-0" 302 828 basechar 0
LayerCount: 2
Fore
SplineSet
383 938 m 1,0,-1
 383 111 l 2,1,2
 383 -95 383 -95 343 -204 c 0,3,4
 281 -372 281 -372 100 -492 c 1,5,-1
 10 -420 l 1,6,7
 119 -314 119 -314 160 -230 c 0,8,9
 222 -103 222 -103 222 111 c 2,10,-1
 222 810 l 1,11,-1
 56 810 l 1,12,-1
 56 938 l 1,13,-1
 383 938 l 1,0,-1
EndSplineSet
EndChar

StartChar: uni0244
Encoding: 580 580 247
Width: 1432
GlyphClass: 2
Flags: W
AnchorPoint: "Anchor-4" 716 0 basechar 0
AnchorPoint: "Anchor-3" 716 0 basechar 0
AnchorPoint: "Anchor-2" 716 0 basechar 0
AnchorPoint: "Anchor-1" 716 1392 basechar 0
AnchorPoint: "Anchor-0" 1109 1053 basechar 0
LayerCount: 2
Fore
SplineSet
422 486 m 2,0,1
 422 204 422 204 620 140 c 0,2,3
 675 123 675 123 742 123 c 0,4,5
 875 123 875 123 947.5 218.5 c 128,-1,6
 1020 314 1020 314 1020 513 c 2,7,-1
 1020 664 l 1,8,-1
 422 664 l 1,9,-1
 422 486 l 2,0,1
241 664 m 1,10,-1
 61 664 l 1,11,-1
 61 803 l 1,12,-1
 241 803 l 1,13,-1
 241 1391 l 1,14,-1
 422 1391 l 1,15,-1
 422 803 l 1,16,-1
 1020 804 l 1,17,-1
 1020 1391 l 1,18,-1
 1191 1391 l 1,19,-1
 1191 804 l 1,20,-1
 1371 804 l 1,21,-1
 1371 664 l 1,22,-1
 1191 664 l 1,23,-1
 1191 469 l 2,24,25
 1191 248 1191 248 1073 115 c 128,-1,26
 955 -18 955 -18 742 -18 c 0,27,28
 241 -18 241 -18 241 438 c 2,29,-1
 241 664 l 1,10,-1
EndSplineSet
EndChar

StartChar: uni0245
Encoding: 581 581 248
Width: 1328
GlyphClass: 2
Flags: W
AnchorPoint: "Anchor-4" 664 0 basechar 0
AnchorPoint: "Anchor-3" 1166 0 basechar 0
AnchorPoint: "Anchor-2" 1166 0 basechar 0
AnchorPoint: "Anchor-1" 664 1409 basechar 0
AnchorPoint: "Anchor-0" 786 1053 basechar 0
LayerCount: 2
Fore
SplineSet
659 1143 m 1,0,-1
 235 0 l 1,1,-1
 67 0 l 1,2,-1
 589 1391 l 1,3,-1
 739 1391 l 1,4,-1
 1261 0 l 1,5,-1
 1083 0 l 1,6,-1
 659 1143 l 1,0,-1
EndSplineSet
EndChar

StartChar: uni0251
Encoding: 593 593 249
Width: 1016
GlyphClass: 2
Flags: W
AnchorPoint: "Anchor-4" 555 0 basechar 0
AnchorPoint: "Anchor-3" 848 0 basechar 0
AnchorPoint: "Anchor-2" 848 0 basechar 0
AnchorPoint: "Anchor-1" 555 956 basechar 0
AnchorPoint: "Anchor-0" 816 828 basechar 0
LayerCount: 2
Fore
SplineSet
735 156 m 1,0,1
 680 74 680 74 667.5 63.5 c 128,-1,2
 655 53 655 53 636.5 36 c 128,-1,3
 618 19 618 19 601.5 12.5 c 128,-1,4
 585 6 585 6 562 -3 c 0,5,6
 524 -18 524 -18 450 -18 c 128,-1,7
 376 -18 376 -18 307 9.5 c 128,-1,8
 238 37 238 37 182 92 c 0,9,10
 61 211 61 211 61 456 c 0,11,12
 61 728 61 728 274 874 c 0,13,14
 395 956 395 956 534 956 c 0,15,16
 737 956 737 956 896 858 c 1,17,-1
 896 209 l 2,18,19
 896 126 896 126 903 87.5 c 128,-1,20
 910 49 910 49 929 0 c 1,21,-1
 768 0 l 1,22,23
 749 27 749 27 742 56.5 c 128,-1,24
 735 86 735 86 735 156 c 1,0,1
464 110 m 0,25,26
 628 110 628 110 735 290 c 1,27,-1
 735 790 l 1,28,29
 677 827 677 827 580.5 827 c 128,-1,30
 484 827 484 827 416.5 797 c 128,-1,31
 349 767 349 767 307 715 c 0,32,33
 222 610 222 610 222 448 c 0,34,35
 222 195 222 195 378 128 c 0,36,37
 418 110 418 110 464 110 c 0,25,26
EndSplineSet
EndChar

StartChar: uni0253
Encoding: 595 595 250
Width: 1059
GlyphClass: 2
Flags: W
AnchorPoint: "Anchor-4" 555 0 basechar 0
AnchorPoint: "Anchor-3" 555 0 basechar 0
AnchorPoint: "Anchor-2" 555 0 basechar 0
AnchorPoint: "Anchor-1" 555 1475 basechar 0
AnchorPoint: "Anchor-0" 841 828 basechar 0
LayerCount: 2
Fore
SplineSet
594 828 m 0,0,1
 431 827 431 827 325 648 c 1,2,-1
 325 148 l 1,3,4
 383 111 383 111 479.5 111 c 128,-1,5
 576 111 576 111 643.5 141 c 128,-1,6
 711 171 711 171 753 223 c 0,7,8
 838 328 838 328 838 490 c 0,9,10
 838 743 838 743 681 810 c 0,11,12
 640 828 640 828 594 828 c 0,0,1
325 828 m 1,13,14
 390 901 390 901 457 928.5 c 128,-1,15
 524 956 524 956 604 956 c 128,-1,16
 684 956 684 956 753 928.5 c 128,-1,17
 822 901 822 901 878 846 c 0,18,19
 999 727 999 727 999 482 c 0,20,21
 999 210 999 210 786 64 c 0,22,23
 665 -18 665 -18 526 -18 c 0,24,25
 323 -18 323 -18 164 80 c 1,26,-1
 164 1020 l 2,27,28
 164 1464 164 1464 515 1464 c 0,29,30
 625 1464 625 1464 696 1430 c 0,31,32
 719 1418 719 1418 749 1398.5 c 128,-1,33
 779 1379 779 1379 788 1374 c 1,34,-1
 744 1247 l 1,35,36
 703 1283 703 1283 641.5 1309.5 c 128,-1,37
 580 1336 580 1336 511 1336 c 128,-1,38
 442 1336 442 1336 383.5 1264 c 128,-1,39
 325 1192 325 1192 325 1107 c 2,40,-1
 325 828 l 1,13,14
EndSplineSet
EndChar

StartChar: uni0254
Encoding: 596 596 251
Width: 921
GlyphClass: 2
Flags: W
AnchorPoint: "Anchor-4" 607 956 basechar 0 6
AnchorPoint: "Anchor-3" 607 956 basechar 0 6
AnchorPoint: "Anchor-1" 429 956 basechar 0
AnchorPoint: "Anchor-0" 860 685 basechar 0 7
LayerCount: 2
Fore
SplineSet
372 827 m 2,0,1
 255 827 255 827 147 748 c 1,2,-1
 85 856 l 1,3,4
 231 956 231 956 392 956 c 0,5,6
 607 956 607 956 733.5 820.5 c 128,-1,7
 860 685 860 685 860 466.5 c 128,-1,8
 860 248 860 248 739.5 115 c 128,-1,9
 619 -18 619 -18 413 -18 c 0,10,11
 155 -18 155 -18 61 220 c 1,12,-1
 173 282 l 1,13,14
 241 111 241 111 411 111 c 0,15,16
 554 111 554 111 626.5 213.5 c 128,-1,17
 699 316 699 316 699 466.5 c 128,-1,18
 699 617 699 617 611.5 722 c 128,-1,19
 524 827 524 827 378 827 c 2,20,-1
 372 827 l 2,0,1
EndSplineSet
EndChar

StartChar: uni0256
Encoding: 598 598 252
Width: 1063
GlyphClass: 2
Flags: W
AnchorPoint: "Anchor-4" 482 0 basechar 0
AnchorPoint: "Anchor-3" 1063 -492 basechar 0
AnchorPoint: "Anchor-2" 1063 -492 basechar 0
AnchorPoint: "Anchor-1" 816 1475 basechar 0
AnchorPoint: "Anchor-0" 816 828 basechar 0
LayerCount: 2
Fore
SplineSet
899 68 m 2,0,1
 899 -168 899 -168 958 -258 c 0,2,3
 997 -317 997 -317 1039 -334 c 1,4,5
 1092 -354 1092 -354 1168 -364 c 1,6,-1
 1155 -492 l 1,7,8
 1030 -492 1030 -492 945 -447 c 0,9,10
 909 -428 909 -428 867.5 -389 c 128,-1,11
 826 -350 826 -350 798 -297 c 0,12,13
 734 -173 734 -173 734 26 c 2,14,-1
 734 110 l 1,15,16
 621 -18 621 -18 465 -18 c 0,17,18
 349 -18 349 -18 255 46 c 128,-1,19
 161 110 161 110 111 212.5 c 128,-1,20
 61 315 61 315 61 432 c 0,21,22
 61 665 61 665 196.5 810.5 c 128,-1,23
 332 956 332 956 533 956 c 0,24,25
 617 956 617 956 734 924 c 1,26,-1
 734 1475 l 1,27,-1
 899 1475 l 1,28,-1
 899 68 l 2,0,1
734 784 m 1,29,30
 651 828 651 828 569.5 828 c 128,-1,31
 488 828 488 828 431.5 799.5 c 128,-1,32
 375 771 375 771 328 721.5 c 128,-1,33
 281 672 281 672 251.5 597 c 128,-1,34
 222 522 222 522 222 436 c 0,35,36
 222 297 222 297 296.5 204 c 128,-1,37
 371 111 371 111 480 111 c 0,38,39
 554 111 554 111 621 161.5 c 128,-1,40
 688 212 688 212 734 290 c 1,41,-1
 734 784 l 1,29,30
EndSplineSet
EndChar

StartChar: uni0257
Encoding: 599 599 253
Width: 1063
GlyphClass: 2
Flags: W
AnchorPoint: "Anchor-4" 482 0 basechar 0
AnchorPoint: "Anchor-3" 482 0 basechar 0
AnchorPoint: "Anchor-2" 816 0 basechar 0
AnchorPoint: "Anchor-1" 816 1475 basechar 0
AnchorPoint: "Anchor-0" 816 828 basechar 0
LayerCount: 2
Fore
SplineSet
734 924 m 1,0,-1
 734 1016 l 2,1,2
 734 1314 734 1314 866 1414 c 0,3,4
 931 1464 931 1464 1006 1464 c 128,-1,5
 1081 1464 1081 1464 1134 1440 c 0,6,7
 1212 1406 1212 1406 1246 1349 c 1,8,-1
 1162 1254 l 1,9,10
 1102 1336 1102 1336 1024 1336 c 0,11,12
 970 1336 970 1336 934.5 1267.5 c 128,-1,13
 899 1199 899 1199 899 1067 c 2,14,-1
 899 0 l 1,15,-1
 734 0 l 1,16,-1
 734 110 l 1,17,18
 621 -18 621 -18 465 -18 c 0,19,20
 349 -18 349 -18 255 46 c 128,-1,21
 161 110 161 110 111 212.5 c 128,-1,22
 61 315 61 315 61 432 c 0,23,24
 61 665 61 665 196.5 810.5 c 128,-1,25
 332 956 332 956 533 956 c 0,26,27
 617 956 617 956 734 924 c 1,0,-1
734 784 m 1,28,29
 651 828 651 828 569.5 828 c 128,-1,30
 488 828 488 828 431.5 799.5 c 128,-1,31
 375 771 375 771 328 721.5 c 128,-1,32
 281 672 281 672 251.5 597 c 128,-1,33
 222 522 222 522 222 436 c 0,34,35
 222 297 222 297 296.5 204 c 128,-1,36
 371 111 371 111 480 111 c 0,37,38
 554 111 554 111 621 161.5 c 128,-1,39
 688 212 688 212 734 290 c 1,40,-1
 734 784 l 1,28,29
EndSplineSet
EndChar

StartChar: uni025B
Encoding: 603 603 255
Width: 822
GlyphClass: 2
Flags: W
AnchorPoint: "Anchor-4" 448 0 basechar 0
AnchorPoint: "Anchor-3" 478 0 basechar 0
AnchorPoint: "Anchor-1" 448 956 basechar 0
AnchorPoint: "Anchor-0" 668 828 basechar 0
LayerCount: 2
Fore
SplineSet
680 768 m 1,0,1
 576 828 576 828 466 828 c 0,2,3
 363 828 363 828 303 778 c 0,4,5
 266 748 266 748 266 692.5 c 128,-1,6
 266 637 266 637 327 601 c 128,-1,7
 388 565 388 565 502 565 c 2,8,-1
 588 565 l 1,9,-1
 572 445 l 1,10,-1
 472 445 l 2,11,12
 351 445 351 445 286.5 403 c 128,-1,13
 222 361 222 361 222 293.5 c 128,-1,14
 222 226 222 226 260 184 c 0,15,16
 326 111 326 111 440 111 c 0,17,18
 504 111 504 111 560 130 c 128,-1,19
 616 149 616 149 640.5 166.5 c 128,-1,20
 665 184 665 184 698 213 c 1,21,-1
 762 111 l 1,22,23
 716 57 716 57 632.5 19.5 c 128,-1,24
 549 -18 549 -18 443.5 -18 c 128,-1,25
 338 -18 338 -18 254 14.5 c 128,-1,26
 170 47 170 47 115.5 114.5 c 128,-1,27
 61 182 61 182 61 272.5 c 128,-1,28
 61 363 61 363 107.5 421 c 128,-1,29
 154 479 154 479 222 505 c 1,30,31
 100 557 100 557 100 702 c 0,32,33
 100 777 100 777 152 836 c 0,34,35
 256 956 256 956 450 956 c 0,36,37
 554 956 554 956 631 933.5 c 128,-1,38
 708 911 708 911 741 884 c 1,39,-1
 680 768 l 1,0,1
EndSplineSet
EndChar

StartChar: uni0261
Encoding: 609 609 256
Width: 1060
GlyphClass: 2
Flags: W
LayerCount: 2
Fore
SplineSet
603 9.5 m 128,-1,1
 536 -18 536 -18 456 -18 c 128,-1,2
 376 -18 376 -18 307 9.5 c 128,-1,3
 238 37 238 37 182 92 c 0,4,5
 61 211 61 211 61 456 c 0,6,7
 61 728 61 728 274 874 c 0,8,9
 395 956 395 956 534 956 c 0,10,11
 737 956 737 956 896 858 c 1,12,-1
 896 28 l 2,13,14
 896 -248 896 -248 797.5 -370 c 128,-1,15
 699 -492 699 -492 472 -492 c 0,16,17
 363 -492 363 -492 271 -462.5 c 128,-1,18
 179 -433 179 -433 120 -393 c 1,19,-1
 176 -281 l 1,20,21
 224 -315 224 -315 311 -339.5 c 128,-1,22
 398 -364 398 -364 486.5 -364 c 128,-1,23
 575 -364 575 -364 631 -325 c 128,-1,24
 687 -286 687 -286 711 -194.5 c 128,-1,25
 735 -103 735 -103 735 68 c 2,26,-1
 735 110 l 1,27,0
 670 37 670 37 603 9.5 c 128,-1,1
464 110 m 0,28,29
 628 110 628 110 735 290 c 1,30,-1
 735 790 l 1,31,32
 677 827 677 827 580.5 827 c 128,-1,33
 484 827 484 827 416.5 797 c 128,-1,34
 349 767 349 767 307 715 c 0,35,36
 222 610 222 610 222 448 c 0,37,38
 222 194 222 194 377 128 c 0,39,40
 418 110 418 110 464 110 c 0,28,29
EndSplineSet
EndChar

StartChar: uni0263
Encoding: 611 611 257
Width: 1040
GlyphClass: 2
Flags: W
LayerCount: 2
Fore
SplineSet
516 -42 m 1,0,1
 462 -176 462 -176 462 -253 c 128,-1,2
 462 -330 462 -330 475 -348.5 c 128,-1,3
 488 -367 488 -367 518.5 -367 c 128,-1,4
 549 -367 549 -367 562.5 -349 c 128,-1,5
 576 -331 576 -331 576 -276 c 0,6,7
 576 -182 576 -182 516 -42 c 1,0,1
365 -437.5 m 128,-1,9
 301 -383 301 -383 301 -278.5 c 128,-1,10
 301 -174 301 -174 438 136 c 1,11,-1
 84 938 l 1,12,-1
 257 938 l 1,13,-1
 524 332 l 1,14,-1
 794 938 l 1,15,-1
 956 938 l 1,16,-1
 603 154 l 1,17,18
 673 -7 673 -7 705 -110 c 128,-1,19
 737 -213 737 -213 737 -296 c 128,-1,20
 737 -379 737 -379 673.5 -435.5 c 128,-1,21
 610 -492 610 -492 519.5 -492 c 128,-1,8
 429 -492 429 -492 365 -437.5 c 128,-1,9
EndSplineSet
EndChar

StartChar: uni0269
Encoding: 617 617 259
Width: 593
GlyphClass: 2
Flags: W
AnchorPoint: "Anchor-4" 344 0 basechar 0
AnchorPoint: "Anchor-3" 344 0 basechar 0
AnchorPoint: "Anchor-2" 344 0 basechar 0
AnchorPoint: "Anchor-1" 244 956 basechar 0
AnchorPoint: "Anchor-0" 244 828 basechar 0
LayerCount: 2
Fore
SplineSet
371 -18 m 0,0,1
 163 -18 163 -18 163 246 c 2,2,-1
 163 938 l 1,3,-1
 324 938 l 1,4,-1
 324 256 l 2,5,6
 324 179 324 179 354.5 145.5 c 128,-1,7
 385 112 385 112 411 112 c 128,-1,8
 437 112 437 112 525 120 c 1,9,-1
 538 3 l 1,10,11
 438 -18 438 -18 371 -18 c 0,0,1
EndSplineSet
EndChar

StartChar: uni0272
Encoding: 626 626 260
Width: 1121
GlyphClass: 2
Flags: W
AnchorPoint: "Anchor-4" 555 0 basechar 0
AnchorPoint: "Anchor-3" 827 0 basechar 0
AnchorPoint: "Anchor-2" 854 0 basechar 0
AnchorPoint: "Anchor-1" 555 956 basechar 0
AnchorPoint: "Anchor-0" 907 828 basechar 0
LayerCount: 2
Fore
SplineSet
796 507 m 2,0,1
 796 828 796 828 566 828 c 0,2,3
 507 828 507 828 458 796.5 c 128,-1,4
 409 765 409 765 382 721 c 0,5,6
 325 628 325 628 325 578 c 2,7,-1
 325 26 l 2,8,9
 325 -264 325 -264 192 -389 c 0,10,11
 82 -492 82 -492 -96 -492 c 1,12,-1
 -109 -364 l 1,13,14
 18 -348 18 -348 62 -308 c 0,15,16
 116 -259 116 -259 132 -200 c 0,17,18
 164 -80 164 -80 164 68 c 2,19,-1
 164 938 l 1,20,-1
 325 938 l 1,21,-1
 325 766 l 1,22,23
 415 956 415 956 618 956 c 0,24,25
 700 956 700 956 765.5 919.5 c 128,-1,26
 831 883 831 883 868 841 c 0,27,28
 957 742 957 742 957 563 c 2,29,-1
 957 0 l 1,30,-1
 796 0 l 1,31,-1
 796 507 l 2,0,1
EndSplineSet
EndChar

StartChar: uni0283
Encoding: 643 643 261
Width: 572
GlyphClass: 2
Flags: W
LayerCount: 2
Fore
SplineSet
131 688 m 1,0,1
 109 749 109 749 84 856 c 128,-1,2
 59 963 59 963 59 1020 c 0,3,4
 59 1464 59 1464 410 1464 c 0,5,6
 520 1464 520 1464 590 1430 c 0,7,8
 614 1418 614 1418 644 1398.5 c 128,-1,9
 674 1379 674 1379 683 1374 c 1,10,-1
 639 1247 l 1,11,12
 598 1283 598 1283 536.5 1309.5 c 128,-1,13
 475 1336 475 1336 406.5 1336 c 128,-1,14
 338 1336 338 1336 279 1261 c 128,-1,15
 220 1186 220 1186 220 1057 c 0,16,17
 220 1008 220 1008 243 907.5 c 128,-1,18
 266 807 266 807 286 754 c 1,19,-1
 427 296 l 1,20,21
 513 57 513 57 513 -46 c 0,22,23
 513 -490 513 -490 162 -490 c 0,24,25
 52 -490 52 -490 -18 -456 c 0,26,27
 -42 -444 -42 -444 -72 -424.5 c 128,-1,28
 -102 -405 -102 -405 -111 -400 c 1,29,-1
 -67 -273 l 1,30,31
 -26 -309 -26 -309 35.5 -335.5 c 128,-1,32
 97 -362 97 -362 160 -362 c 0,33,34
 248 -362 248 -362 300 -281.5 c 128,-1,35
 352 -201 352 -201 352 -83 c 0,36,37
 352 -36 352 -36 324 64 c 128,-1,38
 296 164 296 164 272 230 c 1,39,-1
 131 688 l 1,0,1
EndSplineSet
EndChar

StartChar: uni0289
Encoding: 649 649 262
Width: 1237
GlyphClass: 2
Flags: W
AnchorPoint: "Anchor-4" 613 0 basechar 0
AnchorPoint: "Anchor-3" 934 0 basechar 0
AnchorPoint: "Anchor-2" 934 0 basechar 0
AnchorPoint: "Anchor-1" 613 956 basechar 0
AnchorPoint: "Anchor-0" 965 828 basechar 0
LayerCount: 2
Fore
SplineSet
383 431 m 2,0,1
 383 110 383 110 613 110 c 0,2,3
 672 110 672 110 721 141.5 c 128,-1,4
 770 173 770 173 797 217 c 0,5,6
 854 310 854 310 854 360 c 2,7,-1
 854 449 l 1,8,-1
 383 449 l 1,9,-1
 383 431 l 2,0,1
1015 558 m 1,10,-1
 1176 558 l 1,11,-1
 1176 449 l 1,12,-1
 1015 449 l 1,13,-1
 1015 0 l 1,14,-1
 854 0 l 1,15,-1
 854 172 l 1,16,17
 764 -18 764 -18 561 -18 c 0,18,19
 479 -18 479 -18 413.5 18.5 c 128,-1,20
 348 55 348 55 310 97 c 0,21,22
 222 196 222 196 222 375 c 2,23,-1
 222 449 l 1,24,-1
 61 449 l 1,25,-1
 61 558 l 1,26,-1
 222 558 l 1,27,-1
 222 938 l 1,28,-1
 383 938 l 1,29,-1
 383 558 l 1,30,-1
 854 558 l 1,31,-1
 854 938 l 1,32,-1
 1015 938 l 1,33,-1
 1015 558 l 1,10,-1
EndSplineSet
EndChar

StartChar: uni028B
Encoding: 651 651 263
Width: 1121
GlyphClass: 2
Flags: W
AnchorPoint: "Anchor-4" 492 0 basechar 0
AnchorPoint: "Anchor-3" 492 0 basechar 0
AnchorPoint: "Anchor-2" 492 0 basechar 0
AnchorPoint: "Anchor-1" 492 956 basechar 0
AnchorPoint: "Anchor-0" 765 828 basechar 0
LayerCount: 2
Fore
SplineSet
516 111 m 0,0,1
 788 111 788 111 788 489 c 0,2,3
 788 632 788 632 684 777 c 0,4,5
 664 804 664 804 628 850 c 1,6,-1
 759 956 l 1,7,8
 951 705 951 705 951 489 c 0,9,10
 951 272 951 272 846 132 c 1,11,12
 735 -18 735 -18 507 -18 c 0,13,14
 352 -18 352 -18 258 85 c 128,-1,15
 164 188 164 188 164 366 c 2,16,-1
 164 938 l 1,17,-1
 325 938 l 1,18,-1
 325 366 l 2,19,20
 325 264 325 264 375 187.5 c 128,-1,21
 425 111 425 111 516 111 c 0,0,1
EndSplineSet
EndChar

StartChar: uni028C
Encoding: 652 652 264
Width: 984
GlyphClass: 2
Flags: W
AnchorPoint: "Anchor-4" 492 0 basechar 0
AnchorPoint: "Anchor-3" 876 0 basechar 0
AnchorPoint: "Anchor-2" 876 0 basechar 0
AnchorPoint: "Anchor-1" 492 956 basechar 0
AnchorPoint: "Anchor-0" 846 828 basechar 0
LayerCount: 2
Fore
SplineSet
486 672 m 1,0,-1
 183 0 l 1,1,-1
 21 0 l 1,2,-1
 438 938 l 1,3,-1
 544 938 l 1,4,-1
 963 0 l 1,5,-1
 790 0 l 1,6,-1
 486 672 l 1,0,-1
EndSplineSet
EndChar

StartChar: uni02BB
Encoding: 699 699 265
Width: 450
GlyphClass: 2
Flags: W
LayerCount: 2
Fore
SplineSet
221 1142 m 0,0,1
 221 1124 221 1124 270 1100 c 0,2,3
 288 1092 288 1092 303.5 1067 c 128,-1,4
 319 1042 319 1042 319 1002 c 128,-1,5
 319 962 319 962 287.5 926.5 c 128,-1,6
 256 891 256 891 208 891 c 128,-1,7
 160 891 160 891 132.5 908.5 c 128,-1,8
 105 926 105 926 94 954 c 0,9,10
 75 1002 75 1002 75 1063 c 0,11,12
 75 1222 75 1222 269 1409 c 1,13,-1
 351 1337 l 1,14,15
 221 1213 221 1213 221 1142 c 0,0,1
EndSplineSet
EndChar

StartChar: afii57929
Encoding: 700 700 266
Width: 450
GlyphClass: 2
Flags: W
LayerCount: 2
Fore
SplineSet
205 1158 m 0,0,1
 205 1176 205 1176 156 1200 c 0,2,3
 138 1208 138 1208 122.5 1233 c 128,-1,4
 107 1258 107 1258 107 1298 c 128,-1,5
 107 1338 107 1338 138.5 1373.5 c 128,-1,6
 170 1409 170 1409 218 1409 c 128,-1,7
 266 1409 266 1409 293.5 1391.5 c 128,-1,8
 321 1374 321 1374 332 1346 c 0,9,10
 351 1298 351 1298 351 1237 c 0,11,12
 351 1078 351 1078 157 891 c 1,13,-1
 75 963 l 1,14,15
 205 1087 205 1087 205 1158 c 0,0,1
EndSplineSet
EndChar

StartChar: afii64937
Encoding: 701 701 267
Width: 450
GlyphClass: 2
Flags: W
LayerCount: 2
Fore
SplineSet
221 1158 m 0,0,1
 221 1087 221 1087 351 963 c 1,2,-1
 269 891 l 1,3,4
 153 1003 153 1003 114 1089.5 c 128,-1,5
 75 1176 75 1176 75 1254 c 0,6,7
 75 1409 75 1409 201 1409 c 0,8,9
 256 1409 256 1409 287.5 1373.5 c 128,-1,10
 319 1338 319 1338 319 1298 c 128,-1,11
 319 1258 319 1258 303.5 1233 c 128,-1,12
 288 1208 288 1208 270 1200 c 0,13,14
 221 1176 221 1176 221 1158 c 0,0,1
EndSplineSet
EndChar

StartChar: uni02DE
Encoding: 734 734 268
Width: 576
GlyphClass: 4
Flags: W
AnchorPoint: "Anchor-0" 0 828 mark 0
LayerCount: 2
Fore
SplineSet
166 931 m 1,1,2
 166 873 166 873 197.5 839.5 c 128,-1,3
 229 806 229 806 279 806 c 128,-1,4
 329 806 329 806 358 839.5 c 128,-1,5
 387 873 387 873 413 935 c 1,6,-1
 488 856 l 1,7,8
 453 770 453 770 408.5 727.5 c 128,-1,9
 364 685 364 685 289.5 685 c 128,-1,10
 215 685 215 685 164 721 c 128,-1,11
 113 757 113 757 100 807 c 1,12,13
 30 807 30 807 -42 765 c 1,14,-1
 -42 858 l 1,15,0
 41 931 41 931 166 931 c 1,1,2
EndSplineSet
EndChar

StartChar: gravecomb
Encoding: 768 768 269
Width: 0
GlyphClass: 4
Flags: W
AnchorPoint: "Anchor-5" 0 1475 basemark 0
AnchorPoint: "Anchor-5" 0 956 mark 0
AnchorPoint: "Anchor-1" 0 956 mark 0
LayerCount: 2
Fore
SplineSet
-249 1475 m 1,0,-1
 -61 1475 l 1,1,-1
 82 1144 l 1,2,-1
 -10 1100 l 1,3,-1
 -249 1475 l 1,0,-1
EndSplineSet
EndChar

StartChar: acutecomb
Encoding: 769 769 270
Width: 0
GlyphClass: 4
Flags: W
AnchorPoint: "Anchor-5" 0 1475 basemark 0
AnchorPoint: "Anchor-5" 0 956 mark 0
AnchorPoint: "Anchor-1" 0 956 mark 0
LayerCount: 2
Fore
SplineSet
249 1475 m 1,0,-1
 10 1100 l 1,1,-1
 -82 1144 l 1,2,-1
 61 1475 l 1,3,-1
 249 1475 l 1,0,-1
EndSplineSet
EndChar

StartChar: uni0302
Encoding: 770 770 271
Width: 0
GlyphClass: 4
Flags: W
AnchorPoint: "Anchor-5" 0 1475 basemark 0
AnchorPoint: "Anchor-5" 0 956 mark 0
AnchorPoint: "Anchor-1" 0 956 mark 0
LayerCount: 2
Fore
SplineSet
0 1349 m 1,0,-1
 -234 1100 l 1,1,-1
 -309 1149 l 1,2,-1
 -94 1449 l 1,3,-1
 94 1449 l 1,4,-1
 309 1149 l 1,5,-1
 234 1100 l 1,6,-1
 0 1349 l 1,0,-1
EndSplineSet
EndChar

StartChar: tildecomb
Encoding: 771 771 272
Width: 0
GlyphClass: 4
Flags: W
AnchorPoint: "Anchor-5" 0 1410 basemark 0
AnchorPoint: "Anchor-5" 0 1035 mark 0
AnchorPoint: "Anchor-1" 0 956 mark 0
LayerCount: 2
Fore
SplineSet
-272 1107 m 1,0,-1
 -342 1167 l 1,1,2
 -271 1306 -271 1306 -168 1338 c 0,3,4
 -143 1346 -143 1346 -110.5 1346 c 128,-1,5
 -78 1346 -78 1346 -2.5 1302 c 128,-1,6
 73 1258 73 1258 107 1258 c 128,-1,7
 141 1258 141 1258 182 1282 c 128,-1,8
 223 1306 223 1306 251 1356 c 1,9,-1
 321 1296 l 1,10,11
 251 1159 251 1159 148 1124 c 0,12,13
 122 1116 122 1116 89.5 1116 c 128,-1,14
 57 1116 57 1116 -18.5 1161 c 128,-1,15
 -94 1206 -94 1206 -127.5 1206 c 128,-1,16
 -161 1206 -161 1206 -202.5 1181.5 c 128,-1,17
 -244 1157 -244 1157 -272 1107 c 1,0,-1
EndSplineSet
EndChar

StartChar: uni0304
Encoding: 772 772 273
Width: 0
GlyphClass: 4
Flags: W
AnchorPoint: "Anchor-5" 0 1379 basemark 0
AnchorPoint: "Anchor-5" 0 1170 mark 0
AnchorPoint: "Anchor-1" 0 956 mark 0
LayerCount: 2
Fore
SplineSet
314 1250 m 1,0,-1
 -314 1250 l 1,1,-1
 -314 1359 l 1,2,-1
 314 1359 l 1,3,-1
 314 1250 l 1,0,-1
EndSplineSet
EndChar

StartChar: uni0306
Encoding: 774 774 274
Width: 0
GlyphClass: 4
Flags: W
AnchorPoint: "Anchor-5" 0 1475 basemark 0
AnchorPoint: "Anchor-5" 0 956 mark 0
AnchorPoint: "Anchor-1" 0 956 mark 0
LayerCount: 2
Fore
SplineSet
0 1130 m 0,0,1
 -220 1130 -220 1130 -297 1328 c 0,2,3
 -310 1362 -310 1362 -322 1405 c 1,4,-1
 -234 1440 l 1,5,6
 -169 1252 -169 1252 0 1252 c 256,7,8
 169 1252 169 1252 234 1440 c 1,9,-1
 322 1405 l 1,10,11
 279 1252 279 1252 200 1190 c 0,12,13
 123 1130 123 1130 0 1130 c 0,0,1
EndSplineSet
EndChar

StartChar: uni0307
Encoding: 775 775 275
Width: 0
GlyphClass: 2
Flags: W
AnchorPoint: "Anchor-5" 0 1475 basemark 0
AnchorPoint: "Anchor-5" 0 1120 mark 0
AnchorPoint: "Anchor-1" 0 956 mark 0
LayerCount: 2
Fore
SplineSet
-118 1309 m 256,0,1
 -118 1359 -118 1359 -83.5 1394.5 c 128,-1,2
 -49 1430 -49 1430 0 1430 c 256,3,4
 49 1430 49 1430 83.5 1394.5 c 128,-1,5
 118 1359 118 1359 118 1309 c 256,6,7
 118 1259 118 1259 83.5 1223.5 c 128,-1,8
 49 1188 49 1188 0 1188 c 256,9,10
 -49 1188 -49 1188 -83.5 1223.5 c 128,-1,11
 -118 1259 -118 1259 -118 1309 c 256,0,1
EndSplineSet
EndChar

StartChar: uni0308
Encoding: 776 776 276
Width: 0
GlyphClass: 4
Flags: W
AnchorPoint: "Anchor-5" 0 1475 basemark 0
AnchorPoint: "Anchor-5" 0 1120 mark 0
AnchorPoint: "Anchor-1" 0 956 mark 0
LayerCount: 2
Fore
SplineSet
-354 1309 m 256,0,1
 -354 1359 -354 1359 -319.5 1394.5 c 128,-1,2
 -285 1430 -285 1430 -236 1430 c 256,3,4
 -187 1430 -187 1430 -152.5 1394.5 c 128,-1,5
 -118 1359 -118 1359 -118 1309 c 256,6,7
 -118 1259 -118 1259 -152.5 1223.5 c 128,-1,8
 -187 1188 -187 1188 -236 1188 c 256,9,10
 -285 1188 -285 1188 -319.5 1223.5 c 128,-1,11
 -354 1259 -354 1259 -354 1309 c 256,0,1
118 1309 m 256,12,13
 118 1359 118 1359 152.5 1394.5 c 128,-1,14
 187 1430 187 1430 236 1430 c 256,15,16
 285 1430 285 1430 319.5 1394.5 c 128,-1,17
 354 1359 354 1359 354 1309 c 256,18,19
 354 1259 354 1259 319.5 1223.5 c 128,-1,20
 285 1188 285 1188 236 1188 c 256,21,22
 187 1188 187 1188 152.5 1223.5 c 128,-1,23
 118 1259 118 1259 118 1309 c 256,12,13
EndSplineSet
EndChar

StartChar: hookabovecomb
Encoding: 777 777 277
Width: 0
GlyphClass: 4
Flags: W
AnchorPoint: "Anchor-5" 0 1475 basemark 0
AnchorPoint: "Anchor-5" 0 956 mark 0
AnchorPoint: "Anchor-1" 0 956 mark 0
LayerCount: 2
Fore
SplineSet
-24 1020 m 1,0,1
 -56 1062 -56 1062 -56 1099 c 128,-1,2
 -56 1136 -56 1136 -44.5 1156.5 c 128,-1,3
 -33 1177 -33 1177 -17 1190 c 128,-1,4
 -1 1203 -1 1203 15 1214 c 0,5,6
 54 1241 54 1241 54 1268.5 c 128,-1,7
 54 1296 54 1296 39 1314 c 128,-1,8
 24 1332 24 1332 -2 1332 c 0,9,10
 -55 1332 -55 1332 -81 1295 c 1,11,-1
 -150 1350 l 1,12,13
 -130 1382 -130 1382 -88.5 1411 c 128,-1,14
 -47 1440 -47 1440 17 1440 c 128,-1,15
 81 1440 81 1440 123 1393.5 c 128,-1,16
 165 1347 165 1347 165 1278 c 0,17,18
 165 1221 165 1221 122 1188 c 0,19,20
 104 1175 104 1175 86 1163 c 0,21,22
 42 1135 42 1135 42 1100 c 0,23,24
 42 1077 42 1077 50 1054 c 128,-1,25
 58 1031 58 1031 61 1020 c 1,26,-1
 -24 1020 l 1,0,1
EndSplineSet
EndChar

StartChar: uni030A
Encoding: 778 778 278
Width: 0
GlyphClass: 4
Flags: W
AnchorPoint: "Anchor-5" 0 1475 basemark 0
AnchorPoint: "Anchor-5" 0 956 mark 0
AnchorPoint: "Anchor-1" 0 956 mark 0
LayerCount: 2
Fore
SplineSet
-67 1287.5 m 128,-1,1
 -95 1260 -95 1260 -95 1220.5 c 128,-1,2
 -95 1181 -95 1181 -67 1153.5 c 128,-1,3
 -39 1126 -39 1126 0 1126 c 256,4,5
 39 1126 39 1126 67 1153.5 c 128,-1,6
 95 1181 95 1181 95 1220.5 c 128,-1,7
 95 1260 95 1260 67 1287.5 c 128,-1,8
 39 1315 39 1315 0 1315 c 256,9,0
 -39 1315 -39 1315 -67 1287.5 c 128,-1,1
-180 1220 m 256,10,11
 -180 1294 -180 1294 -127 1347 c 128,-1,12
 -74 1400 -74 1400 0 1400 c 256,13,14
 74 1400 74 1400 127 1347 c 128,-1,15
 180 1294 180 1294 180 1220 c 256,16,17
 180 1146 180 1146 127 1093 c 128,-1,18
 74 1040 74 1040 0 1040 c 256,19,20
 -74 1040 -74 1040 -127 1093 c 128,-1,21
 -180 1146 -180 1146 -180 1220 c 256,10,11
EndSplineSet
EndChar

StartChar: uni030B
Encoding: 779 779 279
Width: 0
GlyphClass: 4
Flags: W
AnchorPoint: "Anchor-5" 0 1475 basemark 0
AnchorPoint: "Anchor-5" 0 956 mark 0
AnchorPoint: "Anchor-1" 0 956 mark 0
LayerCount: 2
Fore
SplineSet
22 1475 m 1,0,-1
 -217 1100 l 1,1,-1
 -309 1144 l 1,2,-1
 -166 1475 l 1,3,-1
 22 1475 l 1,0,-1
382 1475 m 1,4,-1
 143 1100 l 1,5,-1
 51 1144 l 1,6,-1
 194 1475 l 1,7,-1
 382 1475 l 1,4,-1
EndSplineSet
EndChar

StartChar: uni030C
Encoding: 780 780 280
Width: 0
GlyphClass: 4
Flags: W
AnchorPoint: "Anchor-5" 0 1475 basemark 0
AnchorPoint: "Anchor-5" 0 956 mark 0
AnchorPoint: "Anchor-1" 0 956 mark 0
LayerCount: 2
Fore
SplineSet
0 1200 m 1,0,-1
 234 1449 l 1,1,-1
 309 1400 l 1,2,-1
 94 1100 l 1,3,-1
 -94 1100 l 1,4,-1
 -309 1400 l 1,5,-1
 -234 1449 l 1,6,-1
 0 1200 l 1,0,-1
EndSplineSet
EndChar

StartChar: uni030D
Encoding: 781 781 281
Width: 0
GlyphClass: 4
Flags: W
AnchorPoint: "Anchor-5" 0 1475 basemark 0
AnchorPoint: "Anchor-5" 0 956 mark 0
AnchorPoint: "Anchor-1" 0 956 mark 0
LayerCount: 2
Fore
SplineSet
-54 1101 m 1,0,-1
 -54 1461 l 1,1,-1
 54 1461 l 1,2,-1
 54 1101 l 1,3,-1
 -54 1101 l 1,0,-1
EndSplineSet
EndChar

StartChar: uni030E
Encoding: 782 782 282
Width: 0
GlyphClass: 4
Flags: W
AnchorPoint: "Anchor-5" 0 1475 basemark 0
AnchorPoint: "Anchor-5" 0 956 mark 0
AnchorPoint: "Anchor-1" 0 956 mark 0
LayerCount: 2
Fore
SplineSet
108 1101 m 1,0,-1
 108 1461 l 1,1,-1
 216 1461 l 1,2,-1
 216 1101 l 1,3,-1
 108 1101 l 1,0,-1
-216 1101 m 1,4,-1
 -216 1461 l 1,5,-1
 -108 1461 l 1,6,-1
 -108 1101 l 1,7,-1
 -216 1101 l 1,4,-1
EndSplineSet
EndChar

StartChar: uni0310
Encoding: 784 784 283
Width: 0
GlyphClass: 4
Flags: W
AnchorPoint: "Anchor-0" 0 828 mark 0
LayerCount: 2
Fore
SplineSet
269 1158 m 1,0,1
 269 1176 269 1176 220 1200 c 0,2,3
 202 1208 202 1208 186.5 1233 c 128,-1,4
 171 1258 171 1258 171 1298 c 128,-1,5
 171 1338 171 1338 202.5 1373.5 c 128,-1,6
 234 1409 234 1409 282 1409 c 128,-1,7
 330 1409 330 1409 357.5 1391.5 c 128,-1,8
 385 1374 385 1374 396 1346 c 0,9,10
 415 1298 415 1298 415 1230.5 c 128,-1,11
 415 1163 415 1163 376 1090 c 0,12,13
 263 877 263 877 -22 760 c 1,14,-1
 -90 850 l 1,15,16
 192 959 192 959 269 1158 c 1,0,1
EndSplineSet
EndChar

StartChar: uni0311
Encoding: 785 785 284
Width: 0
GlyphClass: 4
Flags: W
AnchorPoint: "Anchor-5" 0 1475 basemark 0
AnchorPoint: "Anchor-5" 0 956 mark 0
AnchorPoint: "Anchor-1" 0 956 mark 0
LayerCount: 2
Fore
SplineSet
0 1440 m 0,0,1
 220 1440 220 1440 297 1242 c 0,2,3
 310 1208 310 1208 322 1165 c 1,4,-1
 234 1130 l 1,5,6
 169 1318 169 1318 0 1318 c 256,7,8
 -169 1318 -169 1318 -234 1130 c 1,9,-1
 -322 1165 l 1,10,11
 -279 1318 -279 1318 -200 1380 c 0,12,13
 -123 1440 -123 1440 0 1440 c 0,0,1
EndSplineSet
EndChar

StartChar: uni0312
Encoding: 786 786 285
Width: 0
GlyphClass: 4
Flags: W
AnchorPoint: "Anchor-5" 0 1475 basemark 0
AnchorPoint: "Anchor-5" 0 956 mark 0
AnchorPoint: "Anchor-1" 0 956 mark 0
LayerCount: 2
Fore
SplineSet
34 1254 m 0,0,1
 34 1245 34 1245 66 1230 c 0,2,3
 126 1201 126 1201 126 1144.5 c 128,-1,4
 126 1088 126 1088 92.5 1061 c 128,-1,5
 59 1034 59 1034 6.5 1034 c 128,-1,6
 -46 1034 -46 1034 -82 1078 c 128,-1,7
 -118 1122 -118 1122 -118 1182.5 c 128,-1,8
 -118 1243 -118 1243 -85.5 1302 c 128,-1,9
 -53 1361 -53 1361 38 1430 c 1,10,-1
 120 1358 l 1,11,12
 34 1290 34 1290 34 1254 c 0,0,1
EndSplineSet
EndChar

StartChar: uni0314
Encoding: 788 788 287
Width: 0
GlyphClass: 4
Flags: W
AnchorPoint: "Anchor-5" 0 1475 basemark 0
AnchorPoint: "Anchor-5" 0 956 mark 0
AnchorPoint: "Anchor-1" 0 956 mark 0
LayerCount: 2
Fore
SplineSet
34 1210 m 0,0,1
 34 1174 34 1174 120 1106 c 1,2,-1
 38 1034 l 1,3,4
 -53 1103 -53 1103 -85.5 1162 c 128,-1,5
 -118 1221 -118 1221 -118 1281.5 c 128,-1,6
 -118 1342 -118 1342 -82 1386 c 128,-1,7
 -46 1430 -46 1430 6.5 1430 c 128,-1,8
 59 1430 59 1430 92.5 1403 c 128,-1,9
 126 1376 126 1376 126 1335.5 c 128,-1,10
 126 1295 126 1295 111.5 1272 c 128,-1,11
 97 1249 97 1249 80 1241 c 0,12,13
 34 1219 34 1219 34 1210 c 0,0,1
EndSplineSet
EndChar

StartChar: uni0315
Encoding: 789 789 288
Width: 0
GlyphClass: 4
Flags: W
AnchorPoint: "Anchor-5" 0 1475 basemark 0
AnchorPoint: "Anchor-5" 0 956 mark 0
AnchorPoint: "Anchor-1" 0 956 mark 0
LayerCount: 2
Fore
SplineSet
-26 1210 m 0,0,1
 -26 1219 -26 1219 -58 1234 c 0,2,3
 -118 1263 -118 1263 -118 1319.5 c 128,-1,4
 -118 1376 -118 1376 -84.5 1403 c 128,-1,5
 -51 1430 -51 1430 1.5 1430 c 128,-1,6
 54 1430 54 1430 90 1386 c 128,-1,7
 126 1342 126 1342 126 1281.5 c 128,-1,8
 126 1221 126 1221 93.5 1162 c 128,-1,9
 61 1103 61 1103 -30 1034 c 1,10,-1
 -112 1106 l 1,11,12
 -26 1174 -26 1174 -26 1210 c 0,0,1
EndSplineSet
EndChar

StartChar: dotbelowcomb
Encoding: 803 803 289
Width: 0
GlyphClass: 4
Flags: W
AnchorPoint: "Anchor-6" 0 -349 basemark 0
AnchorPoint: "Anchor-6" 0 0 mark 0
AnchorPoint: "Anchor-4" 0 0 mark 0
LayerCount: 2
Fore
SplineSet
-118 -183 m 256,0,1
 -118 -133 -118 -133 -83.5 -97.5 c 128,-1,2
 -49 -62 -49 -62 0 -62 c 256,3,4
 49 -62 49 -62 83.5 -97.5 c 128,-1,5
 118 -133 118 -133 118 -183 c 256,6,7
 118 -233 118 -233 83.5 -268.5 c 128,-1,8
 49 -304 49 -304 0 -304 c 256,9,10
 -49 -304 -49 -304 -83.5 -268.5 c 128,-1,11
 -118 -233 -118 -233 -118 -183 c 256,0,1
EndSplineSet
EndChar

StartChar: uni0325
Encoding: 805 805 291
Width: 0
GlyphClass: 4
Flags: W
AnchorPoint: "Anchor-4" 0 0 mark 0
LayerCount: 2
Fore
SplineSet
-67 -174.5 m 128,-1,1
 -95 -202 -95 -202 -95 -241.5 c 128,-1,2
 -95 -281 -95 -281 -67 -308.5 c 128,-1,3
 -39 -336 -39 -336 0 -336 c 256,4,5
 39 -336 39 -336 67 -308.5 c 128,-1,6
 95 -281 95 -281 95 -241.5 c 128,-1,7
 95 -202 95 -202 67 -174.5 c 128,-1,8
 39 -147 39 -147 0 -147 c 256,9,0
 -39 -147 -39 -147 -67 -174.5 c 128,-1,1
-180 -242 m 256,10,11
 -180 -168 -180 -168 -127 -115 c 128,-1,12
 -74 -62 -74 -62 0 -62 c 256,13,14
 74 -62 74 -62 127 -115 c 128,-1,15
 180 -168 180 -168 180 -242 c 256,16,17
 180 -316 180 -316 127 -369 c 128,-1,18
 74 -422 74 -422 0 -422 c 256,19,20
 -74 -422 -74 -422 -127 -369 c 128,-1,21
 -180 -316 -180 -316 -180 -242 c 256,10,11
EndSplineSet
EndChar

StartChar: uni0326
Encoding: 806 806 292
Width: 0
GlyphClass: 4
Flags: W
AnchorPoint: "Anchor-4" 0 0 mark 0
LayerCount: 2
Fore
SplineSet
-26 -282 m 0,0,1
 -26 -273 -26 -273 -58 -258 c 0,2,3
 -118 -229 -118 -229 -118 -172.5 c 128,-1,4
 -118 -116 -118 -116 -84.5 -89 c 128,-1,5
 -51 -62 -51 -62 1.5 -62 c 128,-1,6
 54 -62 54 -62 90 -106 c 128,-1,7
 126 -150 126 -150 126 -210.5 c 128,-1,8
 126 -271 126 -271 93.5 -330 c 128,-1,9
 61 -389 61 -389 -30 -458 c 1,10,-1
 -112 -386 l 1,11,12
 -26 -318 -26 -318 -26 -282 c 0,0,1
EndSplineSet
EndChar

StartChar: uni0327
Encoding: 807 807 293
Width: 0
GlyphClass: 4
Flags: W
AnchorPoint: "Anchor-6" 0 -492 basemark 0
AnchorPoint: "Anchor-3" 0 0 mark 0
LayerCount: 2
Fore
SplineSet
-48 36 m 1,0,-1
 45 36 l 1,1,2
 3 -36 3 -36 3 -106 c 1,3,4
 53 -119 53 -119 89 -170 c 128,-1,5
 125 -221 125 -221 125 -295.5 c 128,-1,6
 125 -370 125 -370 82.5 -414.5 c 128,-1,7
 40 -459 40 -459 -46 -494 c 1,8,-1
 -125 -419 l 1,9,10
 -63 -393 -63 -393 -29.5 -364 c 128,-1,11
 4 -335 4 -335 4 -285 c 128,-1,12
 4 -235 4 -235 -29.5 -203.5 c 128,-1,13
 -63 -172 -63 -172 -121 -172 c 1,14,15
 -121 -47 -121 -47 -48 36 c 1,0,-1
EndSplineSet
EndChar

StartChar: uni0328
Encoding: 808 808 294
Width: 0
GlyphClass: 4
Flags: W
AnchorPoint: "Anchor-2" 0 0 mark 0
LayerCount: 2
Fore
SplineSet
48 36 m 1,0,1
 -65 -113 -65 -113 -65 -194 c 0,2,3
 -65 -248 -65 -248 -38.5 -270 c 128,-1,4
 -12 -292 -12 -292 27 -292 c 128,-1,5
 66 -292 66 -292 88 -281 c 1,6,-1
 103 -374 l 1,7,8
 69 -390 69 -390 26 -390 c 0,9,10
 -67 -390 -67 -390 -119.5 -333.5 c 128,-1,11
 -172 -277 -172 -277 -172 -213 c 128,-1,12
 -172 -149 -172 -149 -143 -96 c 128,-1,13
 -114 -43 -114 -43 -45 36 c 1,14,-1
 48 36 l 1,0,1
EndSplineSet
EndChar

StartChar: uni0329
Encoding: 809 809 295
Width: 0
GlyphClass: 4
Flags: W
AnchorPoint: "Anchor-4" 0 0 mark 0
LayerCount: 2
Fore
SplineSet
-54 -422 m 1,0,-1
 -54 -62 l 1,1,-1
 54 -62 l 1,2,-1
 54 -422 l 1,3,-1
 -54 -422 l 1,0,-1
EndSplineSet
EndChar

StartChar: uni032C
Encoding: 812 812 296
Width: 0
GlyphClass: 4
Flags: W
AnchorPoint: "Anchor-6" 0 -483 basemark 0
AnchorPoint: "Anchor-6" 0 0 mark 0
AnchorPoint: "Anchor-4" 0 0 mark 0
LayerCount: 2
Fore
SplineSet
0 -358 m 1,0,-1
 234 -109 l 1,1,-1
 309 -158 l 1,2,-1
 94 -458 l 1,3,-1
 -94 -458 l 1,4,-1
 -309 -158 l 1,5,-1
 -234 -109 l 1,6,-1
 0 -358 l 1,0,-1
EndSplineSet
EndChar

StartChar: uni032D
Encoding: 813 813 297
Width: 0
GlyphClass: 4
Flags: W
AnchorPoint: "Anchor-6" 0 -483 basemark 0
AnchorPoint: "Anchor-6" 0 0 mark 0
AnchorPoint: "Anchor-4" 0 0 mark 0
LayerCount: 2
Fore
SplineSet
0 -209 m 1,0,-1
 -234 -458 l 1,1,-1
 -309 -409 l 1,2,-1
 -94 -109 l 1,3,-1
 94 -109 l 1,4,-1
 309 -409 l 1,5,-1
 234 -458 l 1,6,-1
 0 -209 l 1,0,-1
EndSplineSet
EndChar

StartChar: uni0331
Encoding: 817 817 298
Width: 0
GlyphClass: 4
Flags: W
AnchorPoint: "Anchor-6" 0 -349 basemark 0
AnchorPoint: "Anchor-6" 0 0 mark 0
AnchorPoint: "Anchor-4" 0 0 mark 0
LayerCount: 2
Fore
SplineSet
-314 -109 m 1,0,-1
 314 -109 l 1,1,-1
 314 -218 l 1,2,-1
 -314 -218 l 1,3,-1
 -314 -109 l 1,0,-1
EndSplineSet
EndChar

StartChar: uni2010
Encoding: 8208 8208 351
Width: 595
GlyphClass: 2
Flags: W
LayerCount: 2
Fore
SplineSet
534 449 m 1,0,-1
 61 449 l 1,1,-1
 61 558 l 1,2,-1
 534 558 l 1,3,-1
 534 449 l 1,0,-1
EndSplineSet
EndChar

StartChar: emdash
Encoding: 8212 8212 354
Width: 1556
GlyphClass: 2
Flags: W
LayerCount: 2
Fore
SplineSet
1488 449 m 1,0,-1
 68 449 l 1,1,-1
 68 558 l 1,2,-1
 1488 558 l 1,3,-1
 1488 449 l 1,0,-1
EndSplineSet
EndChar

StartChar: quoteleft
Encoding: 8216 8216 355
Width: 450
GlyphClass: 2
Flags: W
LayerCount: 2
Fore
SplineSet
221 1142 m 0,0,1
 221 1124 221 1124 270 1100 c 0,2,3
 288 1092 288 1092 303.5 1067 c 128,-1,4
 319 1042 319 1042 319 1002 c 128,-1,5
 319 962 319 962 287.5 926.5 c 128,-1,6
 256 891 256 891 208 891 c 128,-1,7
 160 891 160 891 132.5 908.5 c 128,-1,8
 105 926 105 926 94 954 c 0,9,10
 75 1002 75 1002 75 1063 c 0,11,12
 75 1222 75 1222 269 1409 c 1,13,-1
 351 1337 l 1,14,15
 221 1213 221 1213 221 1142 c 0,0,1
EndSplineSet
EndChar

StartChar: quoteright
Encoding: 8217 8217 356
Width: 450
GlyphClass: 2
Flags: W
LayerCount: 2
Fore
SplineSet
205 1158 m 0,0,1
 205 1176 205 1176 156 1200 c 0,2,3
 138 1208 138 1208 122.5 1233 c 128,-1,4
 107 1258 107 1258 107 1298 c 128,-1,5
 107 1338 107 1338 138.5 1373.5 c 128,-1,6
 170 1409 170 1409 218 1409 c 128,-1,7
 266 1409 266 1409 293.5 1391.5 c 128,-1,8
 321 1374 321 1374 332 1346 c 0,9,10
 351 1298 351 1298 351 1237 c 0,11,12
 351 1078 351 1078 157 891 c 1,13,-1
 75 963 l 1,14,15
 205 1087 205 1087 205 1158 c 0,0,1
EndSplineSet
EndChar

StartChar: quotereversed
Encoding: 8219 8219 358
Width: 450
GlyphClass: 2
Flags: W
LayerCount: 2
Fore
SplineSet
221 1158 m 0,0,1
 221 1087 221 1087 351 963 c 1,2,-1
 269 891 l 1,3,4
 153 1003 153 1003 114 1089.5 c 128,-1,5
 75 1176 75 1176 75 1254 c 0,6,7
 75 1409 75 1409 201 1409 c 0,8,9
 256 1409 256 1409 287.5 1373.5 c 128,-1,10
 319 1338 319 1338 319 1298 c 128,-1,11
 319 1258 319 1258 303.5 1233 c 128,-1,12
 288 1208 288 1208 270 1200 c 0,13,14
 221 1176 221 1176 221 1158 c 0,0,1
EndSplineSet
EndChar

StartChar: bullet
Encoding: 8226 8226 363
Width: 466
GlyphClass: 2
Flags: W
LayerCount: 2
Fore
SplineSet
63 504 m 256,0,1
 63 576 63 576 113 627 c 128,-1,2
 163 678 163 678 233 678 c 256,3,4
 303 678 303 678 353 627 c 128,-1,5
 403 576 403 576 403 504 c 256,6,7
 403 432 403 432 353 381 c 128,-1,8
 303 330 303 330 233 330 c 256,9,10
 163 330 163 330 113 381 c 128,-1,11
 63 432 63 432 63 504 c 256,0,1
EndSplineSet
EndChar

StartChar: guilsinglleft
Encoding: 8249 8249 364
Width: 572
GlyphClass: 2
Flags: W
LayerCount: 2
Fore
SplineSet
187 525 m 1,0,-1
 467 268 l 1,1,-1
 434 168 l 1,2,-1
 18 525 l 1,3,-1
 434 882 l 1,4,-1
 467 782 l 1,5,-1
 187 525 l 1,0,-1
EndSplineSet
EndChar

StartChar: guilsinglright
Encoding: 8250 8250 365
Width: 572
GlyphClass: 2
Flags: W
LayerCount: 2
Fore
SplineSet
385 525 m 1,0,-1
 105 782 l 1,1,-1
 138 882 l 1,2,-1
 554 525 l 1,3,-1
 138 168 l 1,4,-1
 105 268 l 1,5,-1
 385 525 l 1,0,-1
EndSplineSet
EndChar

StartChar: uni20A6
Encoding: 8358 8358 366
Width: 1305
GlyphClass: 2
Flags: W
LayerCount: 2
Fore
SplineSet
944 350 m 1,0,-1
 944 476 l 1,1,-1
 866 476 l 1,2,-1
 944 350 l 1,0,-1
361 1296 m 1,3,-1
 668 798 l 1,4,-1
 944 798 l 1,5,-1
 944 1296 l 1,6,-1
 1125 1296 l 1,7,-1
 1125 798 l 1,8,-1
 1252 798 l 1,9,-1
 1252 689 l 1,10,-1
 1125 689 l 1,11,-1
 1125 585 l 1,12,-1
 1252 585 l 1,13,-1
 1252 476 l 1,14,-1
 1125 476 l 1,15,-1
 1125 0 l 1,16,-1
 944 0 l 1,17,-1
 650 476 l 1,18,-1
 361 476 l 1,19,-1
 361 0 l 1,20,-1
 180 0 l 1,21,-1
 180 476 l 1,22,-1
 53 476 l 1,23,-1
 53 585 l 1,24,-1
 180 585 l 1,25,-1
 180 689 l 1,26,-1
 53 689 l 1,27,-1
 53 798 l 1,28,-1
 180 798 l 1,29,-1
 180 1296 l 1,30,-1
 361 1296 l 1,3,-1
361 945 m 1,31,-1
 361 798 l 1,32,-1
 452 798 l 1,33,-1
 361 945 l 1,31,-1
361 689 m 1,34,-1
 361 585 l 1,35,-1
 583 585 l 1,36,-1
 519 689 l 1,37,-1
 361 689 l 1,34,-1
944 689 m 1,38,-1
 735 689 l 1,39,-1
 799 585 l 1,40,-1
 944 585 l 1,41,-1
 944 689 l 1,38,-1
EndSplineSet
EndChar

StartChar: Euro
Encoding: 8364 8364 367
Width: 1398
GlyphClass: 2
Flags: W
LayerCount: 2
Fore
SplineSet
1326 115 m 1,0,1
 1149 -18 1149 -18 855 -18 c 0,2,3
 635 -18 635 -18 472 102 c 0,4,5
 300 228 300 228 254 476 c 1,6,-1
 61 476 l 1,7,-1
 61 585 l 1,8,-1
 242 585 l 1,9,10
 240 613 240 613 240 639.5 c 128,-1,11
 240 666 240 666 241 689 c 1,12,-1
 114 689 l 1,13,-1
 114 798 l 1,14,-1
 255 798 l 1,15,16
 286 950 286 950 374 1065 c 128,-1,17
 462 1180 462 1180 592.5 1242.5 c 128,-1,18
 723 1305 723 1305 877 1305 c 0,19,20
 1133 1305 1133 1305 1276 1206 c 0,21,22
 1296 1192 1296 1192 1326 1170 c 1,23,-1
 1238 1064 l 1,24,25
 1110 1176 1110 1176 915 1176 c 128,-1,26
 720 1176 720 1176 590 1075.5 c 128,-1,27
 460 975 460 975 418 798 c 1,28,-1
 1002 798 l 1,29,-1
 1002 689 l 1,30,-1
 402 689 l 1,31,32
 401 666 401 666 401 639.5 c 128,-1,33
 401 613 401 613 403 585 c 1,34,-1
 948 585 l 1,35,-1
 948 476 l 1,36,-1
 417 476 l 1,37,38
 472 213 472 213 698 138 c 0,39,40
 780 111 780 111 883 111 c 0,41,42
 1066 111 1066 111 1248 217 c 1,43,-1
 1326 115 l 1,0,1
EndSplineSet
EndChar

StartChar: uni20B5
Encoding: 8373 8373 368
Width: 1146
GlyphClass: 2
Flags: W
LayerCount: 2
Fore
SplineSet
654 1176 m 2,0,1
 788 1176 788 1176 893.5 1138.5 c 128,-1,2
 999 1101 999 1101 1062 1054 c 1,3,-1
 982 945 l 1,4,5
 956 971 956 971 864 1009 c 128,-1,6
 772 1047 772 1047 678 1047 c 0,7,8
 655 1047 655 1047 632 1045 c 1,9,-1
 632 112 l 1,10,11
 646 111 646 111 660 111 c 0,12,13
 825 111 825 111 991 207 c 1,14,-1
 1062 103 l 1,15,16
 903 -18 903 -18 634 -18 c 2,17,-1
 632 -18 l 1,18,-1
 632 -180 l 1,19,-1
 515 -180 l 1,20,-1
 515 -7 l 1,21,22
 314 31 314 31 195 188 c 128,-1,23
 76 345 76 345 76 568.5 c 128,-1,24
 76 792 76 792 198.5 952.5 c 128,-1,25
 321 1113 321 1113 515 1160 c 1,26,-1
 515 1338 l 1,27,-1
 632 1338 l 1,28,-1
 632 1176 l 1,29,-1
 654 1176 l 2,0,1
515 132 m 1,30,-1
 515 1018 l 1,31,32
 389 970 389 970 313 855 c 128,-1,33
 237 740 237 740 237 577 c 128,-1,34
 237 414 237 414 308.5 294 c 128,-1,35
 380 174 380 174 515 132 c 1,30,-1
EndSplineSet
EndChar

StartChar: uni2C6D
Encoding: 11373 11373 369
Width: 1319
GlyphClass: 2
Flags: W
AnchorPoint: "Anchor-4" 684 0 basechar 0
AnchorPoint: "Anchor-3" 684 0 basechar 0
AnchorPoint: "Anchor-2" 1048 0 basechar 0
AnchorPoint: "Anchor-1" 684 1409 basechar 0
AnchorPoint: "Anchor-0" 1048 1053 basechar 0
LayerCount: 2
Fore
SplineSet
958 1209 m 1,0,1
 874 1269 874 1269 751.5 1269 c 128,-1,2
 629 1269 629 1269 548.5 1238 c 128,-1,3
 468 1207 468 1207 411 1151.5 c 128,-1,4
 354 1096 354 1096 314 1020 c 1,5,6
 237 869 237 869 237 665 c 0,7,8
 237 331 237 331 389 196 c 0,9,10
 471 123 471 123 589 123 c 0,11,12
 807 123 807 123 958 411 c 1,13,-1
 958 1209 l 1,0,1
958 170 m 1,14,15
 791 -18 791 -18 584 -18 c 0,16,17
 479 -18 479 -18 405 6.5 c 128,-1,18
 331 31 331 31 264.5 85 c 128,-1,19
 198 139 198 139 150 218 c 0,20,21
 45 392 45 392 45 676 c 0,22,23
 45 815 45 815 82.5 936 c 128,-1,24
 120 1057 120 1057 182 1142 c 128,-1,25
 244 1227 244 1227 324 1288 c 0,26,27
 482 1409 482 1409 665 1409 c 0,28,29
 931 1409 931 1409 1139 1265 c 1,30,-1
 1139 0 l 1,31,-1
 958 0 l 1,32,-1
 958 170 l 1,14,15
EndSplineSet
EndChar

StartChar: uni0268.dotless
Encoding: 65537 -1 370
Width: 605
GlyphClass: 2
Flags: W
AnchorPoint: "Anchor-4" 302 0 basechar 0
AnchorPoint: "Anchor-3" 302 0 basechar 0
AnchorPoint: "Anchor-2" 302 0 basechar 0
AnchorPoint: "Anchor-1" 302 956 basechar 0
AnchorPoint: "Anchor-0" 302 828 basechar 0
LayerCount: 2
Fore
SplineSet
222 558 m 1,0,-1
 222 810 l 1,1,-1
 56 810 l 1,2,-1
 56 938 l 1,3,-1
 383 938 l 1,4,-1
 383 558 l 1,5,-1
 544 558 l 1,6,-1
 544 449 l 1,7,-1
 383 449 l 1,8,-1
 383 0 l 1,9,-1
 222 0 l 1,10,-1
 222 449 l 1,11,-1
 61 449 l 1,12,-1
 61 558 l 1,13,-1
 222 558 l 1,0,-1
EndSplineSet
EndChar

StartChar: glyph371
Encoding: 65538 -1 371
Width: 1121
GlyphClass: 2
Flags: W
LayerCount: 2
Fore
SplineSet
796 172 m 1,0,1
 706 -18 706 -18 503 -18 c 0,2,3
 421 -18 421 -18 355.5 18.5 c 128,-1,4
 290 55 290 55 252.5 97 c 128,-1,5
 215 139 215 139 190 211 c 0,6,7
 164 283 164 283 164 375 c 2,8,-1
 164 938 l 1,9,-1
 325 938 l 1,10,-1
 325 431 l 2,11,12
 325 110 325 110 555 110 c 0,13,14
 614 110 614 110 663 142 c 0,15,16
 739 190 739 190 781 300 c 0,17,18
 796 338 796 338 796 360 c 2,19,-1
 796 938 l 1,20,-1
 957 938 l 1,21,-1
 957 0 l 1,22,-1
 796 0 l 1,23,-1
 796 172 l 1,0,1
EndSplineSet
EndChar

StartChar: .ttfautohint
Encoding: 65539 -1 372
Width: 1121
Flags: W
LayerCount: 2
Fore
SplineSet
0 0 m 0,0,-1
EndSplineSet
EndChar
